<svg id="Layer_1" data-name="Layer 1" xmlns="http://www.w3.org/2000/svg" viewBox="0 0 134.24 45.36"><defs><style>.cls-1{fill:#592700;}.cls-2{fill:#d28850;}.cls-3{fill:#f7a400;}</style></defs><title>butternut-squash-mixed-bean-and-cheese</title><path class="cls-1" d="M12.77,27.31l-1.52,5.08h0L9.69,27.31H7.27v.35c0,.33.51,0,.51.63v5.91c0,.63-.6.3-.6.67v.3h2v-.3c0-.37-.6,0-.6-.67v-5.4h0l1.85,6.38h.76l1.85-6.38h0v5.4c0,.63-.51.3-.51.63v.35h2.65v-.35c0-.33-.51,0-.51-.63V28.28c0-.63.51-.3.51-.63v-.35Zm3.89,6.89c0,.63-.51.3-.51.63v.35H18.8v-.35c0-.33-.51,0-.51-.63V28.28c0-.63.51-.3.51-.63v-.35H16.15v.35c0,.33.51,0,.51.63Zm2.83-6.89v.36c0,.21.38,0,.63.52l1.71,3.28-1.59,2.65c-.37.63-.85.46-.85.75v.3h2.11v-.3c0-.33-.48-.16-.48-.58a1.59,1.59,0,0,1,.27-.66l.9-1.49.75,1.39a1.92,1.92,0,0,1,.3.8c0,.4-.52.2-.52.54v.32h3v-.35c0-.29-.55-.09-.82-.75l-1.75-3.42,1.43-2.39c.33-.54.86-.35.86-.62v-.34H23.31v.31c0,.28.51.15.51.48a1.05,1.05,0,0,1-.16.37L22.76,30,22,28.59a1.32,1.32,0,0,1-.19-.5c0-.34.54-.18.54-.47v-.31Zm7,6.89c0,.63-.52.3-.52.63v.35h5.48V32.81h-.27c-.43,0-.43.46-.49.79s-.31,1-1.47,1H28.14V31.41h.43c1.08,0,.49.82,1.08.82H30V30h-.31c-.58,0,0,.82-1.08.82h-.43V27.89h1c1.55,0,.83,1.59,1.64,1.59H31V27.15a3.27,3.27,0,0,1-1.25.16H26v.35c0,.33.52,0,.52.63Zm7.89-6.31h.82c1.39,0,1.93,1,1.93,3.35,0,2.81-.56,3.35-2,3.35h-.78Zm-1.64,6.31c0,.63-.52.3-.52.63v.35H35.3c2.34,0,3.66-1.46,3.66-3.93,0-2.22-1.16-3.93-3.77-3.93h-3v.35c0,.33.52,0,.52.63Zm13.2,1c2,0,2.73-1.12,2.73-2.13A2.1,2.1,0,0,0,46.41,31v0a1.83,1.83,0,0,0,1.83-1.82c0-1.13-.8-1.82-2.35-1.82H42.53v.35c0,.33.52,0,.52.63v5.91c0,.63-.52.3-.52.63v.35Zm-1.26-3.79h.6c1,0,1.57.55,1.57,1.72,0,.8-.42,1.37-1.57,1.37h-.6Zm0-3.5h.49a1.23,1.23,0,0,1,1.37,1.42,1.26,1.26,0,0,1-1.37,1.38h-.49Zm5.22,6.31c0,.63-.52.3-.52.63v.35h5.48V32.81h-.27c-.43,0-.43.46-.49.79s-.32,1-1.47,1H51.55V31.41H52c1.08,0,.5.82,1.08.82h.31V30h-.31c-.58,0,0,.82-1.08.82h-.43V27.89h1c1.55,0,.83,1.59,1.64,1.59h.27V27.15a3.28,3.28,0,0,1-1.25.16H49.4v.35c0,.33.52,0,.52.63ZM59,33.1l.29.84a1.39,1.39,0,0,1,.09.41c0,.34-.52.13-.52.59v.23h2.79v-.34c0-.28-.43-.07-.61-.61l-2.34-6.91c0-.11-.1-.17-.18-.17a.51.51,0,0,0-.26.09l-.84.46c-.12.07-.13.1-.13.18a2.32,2.32,0,0,1,.15.6.78.78,0,0,1,0,.26L55.81,34c-.26.84-.71.55-.71.91v.28h2v-.28c0-.36-.6-.2-.6-.68a2.17,2.17,0,0,1,.08-.48l.19-.62Zm-2-.69.83-2.87h0l.91,2.87Zm7-5.1H61.78v.35c0,.33.48,0,.48.63v5.91c0,.63-.55.3-.55.66v.32H63.6v-.32c0-.36-.55,0-.55-.66V28.72h0l3.76,6.45h.77V28.28c0-.63.55-.3.55-.66v-.31H66.27v.31c0,.36.55,0,.55.66v3.84h0Z"/><path class="cls-1" d="M92.25,27.64h-.51c0,.09-.1.22-.25.22a3.72,3.72,0,0,0-1.71-.56c-2.09,0-3.23,2-3.23,4.07s1.13,4,3.61,4a2.26,2.26,0,0,0,2.26-2.17l-.7-.41c-.07.54-.28,1.9-1.56,1.9s-1.66-1.66-1.66-3.5c0-1.68.34-3.34,1.65-3.34s1,2.27,1.75,2.27h.35Zm5.9,3.92V34.3c0,.62-.55.3-.55.62v.35h2.87v-.35c0-.32-.55,0-.55-.62V28.43c0-.62.55-.3.55-.62v-.35H97.6v.35c0,.32.55,0,.55.62v2.44H95.57V28.43c0-.62.55-.3.55-.62v-.35H93.25v.35c0,.32.55,0,.55.62V34.3c0,.62-.55.3-.55.62v.35h2.87v-.35c0-.32-.55,0-.55-.62V31.57Zm3.68,2.73c0,.62-.55.3-.55.62v.35h5.88V32.93h-.29c-.46,0-.46.46-.53.78s-.34,1-1.58,1h-1.17V31.53h.46c1.16,0,.53.81,1.16.81h.34V30.09h-.34c-.63,0,0,.81-1.16.81h-.46V28h1.07c1.66,0,.89,1.57,1.76,1.57h.29V27.31a3.76,3.76,0,0,1-1.34.16h-4.09v.35c0,.32.55,0,.55.62Zm6.69,0c0,.62-.55.3-.55.62v.35h5.87V32.93h-.29c-.46,0-.46.46-.53.78s-.34,1-1.58,1h-1.17V31.53h.46c1.16,0,.53.81,1.16.81h.34V30.09h-.34c-.63,0,0,.81-1.16.81h-.46V28h1.07c1.66,0,.89,1.57,1.76,1.57h.29V27.31a3.76,3.76,0,0,1-1.34.16H108v.35c0,.32.55,0,.55.62Zm6.37.9h.63a.21.21,0,0,1,.23-.16,5.22,5.22,0,0,0,1.71.38,2.7,2.7,0,0,0,2.85-2.68c0-2.62-3.86-2.18-3.86-3.91a1,1,0,0,1,1-.95c1.41,0,1.08,2,1.89,2h.36V27.54h-.55a.33.33,0,0,1-.33.17,4.33,4.33,0,0,0-1.52-.4,2.34,2.34,0,0,0-2.42,2.22c0,2.59,3.86,2,3.86,4a1.3,1.3,0,0,1-1.4,1.35c-1.87,0-1.34-2.3-2.24-2.3h-.26Zm7-.9c0,.62-.55.3-.55.62v.35h5.87V32.93h-.29c-.46,0-.46.46-.53.78s-.34,1-1.58,1h-1.17V31.53h.46c1.16,0,.53.81,1.16.81h.34V30.09h-.34c-.63,0,0,.81-1.16.81h-.46V28h1.07c1.66,0,.89,1.57,1.76,1.57h.29V27.31a3.77,3.77,0,0,1-1.34.16h-4.09v.35c0,.32.55,0,.55.62Z"/><path class="cls-1" d="M83.74,27.05,70.28,30.42v-.88l.29.15h.29l5.27-1.32.88-.44.59-.59.15-.29-.15-.29H77.3L77,26.9l-.15.29.15.29h-.29l-.29-.29v-.44l.59-.58h.88l.44.44v.81l-1,.66,5.27-1.32h1.75v.44Zm.29,7h-.29l-5.27,1.32-.88.44-.59.59-.15.29L77,37h.29l.29-.15.15-.29-.15-.29h.29l.29.29V37l-.58.59h-.88l-.44-.44v-.8l1-.66L72,37H70.28v-.44l.59.15,13.46-3.37v.88ZM73.45,35.22l.07-.56-.09-.39-.07-.06-1.05.26-.06.09-.1.44.06.53-1.48.38.28-.63.89-4-.09-.42L74,30.33l-.1.47.89,3.54.26.48Zm-.59-3.41,0-.22,0,.24-.32,1.54.06.06.58-.15.06-.09Zm6-2.15v4.2l-.86.22-1.4-2.17-.13-.31,0,.34v2l.15.51-1.4.35.16-.59V30.5L75.27,30l1.38-.34,1.11,1.71.13.31,0-.34V29.93l-.16-.51,1.38-.35Zm3.72,3.26-2.78.7L80,33V29.38l-.16-.5,2.78-.7.89.72v2.85Zm-.38-3.1-.16-.31-.32-.09-.41.1-.06.09V32l.09.07.38-.1.32-.25.16-.37Z"/><path class="cls-2" d="M133.21,41.74a2.84,2.84,0,0,0-1.4-.35,6.55,6.55,0,0,0-3.22,1.14,3.85,3.85,0,0,0-.95-.48,4.45,4.45,0,0,1-1.16-.6l-.07-.11-.1.09a18.55,18.55,0,0,1-1.5,1.17,4.72,4.72,0,0,1-1.42.65H11a4.72,4.72,0,0,1-1.42-.65,18.39,18.39,0,0,1-1.5-1.17L8,41.34l-.07.11a4.45,4.45,0,0,1-1.16.6,3.84,3.84,0,0,0-.95.48A6.55,6.55,0,0,0,2.6,41.39a2.84,2.84,0,0,0-1.4.35,1.92,1.92,0,0,0-.78,2.65,1.69,1.69,0,0,0,.94.79,2.14,2.14,0,0,0,1.23,0,1.32,1.32,0,0,0,.95-1.15,1.21,1.21,0,0,0-.34-.89,1.27,1.27,0,0,0-.88-.4H2.27A1.25,1.25,0,0,0,1,44a1.21,1.21,0,0,0,.19.71,1,1,0,0,1-.48-.45A1.42,1.42,0,0,1,.61,43a1.48,1.48,0,0,1,.88-.82,1.17,1.17,0,0,1,.37-.06c1.63,0,4.89,2.47,5.62,3.13l.1.09.07-.11a4.41,4.41,0,0,1,1.16-.6,3.13,3.13,0,0,0,1-.5,1.19,1.19,0,0,0,.27.06h.09l0-.08s0-.12.75-.21H123.5c.72.09.76.21.76.21l0,.08h.09a1.18,1.18,0,0,0,.27-.06,3.16,3.16,0,0,0,1,.5,4.43,4.43,0,0,1,1.16.6l.07.11.1-.09c.73-.66,4-3.13,5.62-3.13a1.17,1.17,0,0,1,.37.06,1.48,1.48,0,0,1,.88.82,1.42,1.42,0,0,1-.11,1.22,1,1,0,0,1-.48.45,1.2,1.2,0,0,0,.19-.71,1.25,1.25,0,0,0-1.27-1.19h-.05a1.25,1.25,0,0,0-1.22,1.28,1.32,1.32,0,0,0,.95,1.15,2.14,2.14,0,0,0,1.23,0,1.69,1.69,0,0,0,.94-.79,1.92,1.92,0,0,0-.79-2.65m-7.29,1.61a3.23,3.23,0,0,1,1.73-.78,1.27,1.27,0,0,1,.61.17l-.76.51-.15.11a3.22,3.22,0,0,1-1.73.78A1.27,1.27,0,0,1,125,44c.19-.11.38-.25.56-.38Zm-118.85,0-.15-.11-.76-.51a1.26,1.26,0,0,1,.61-.17,3.24,3.24,0,0,1,1.73.78l.34.25A6.8,6.8,0,0,0,9.4,44a1.27,1.27,0,0,1-.6.16,3.23,3.23,0,0,1-1.73-.78"/><path class="cls-1" d="M11.09,22c2.33,0,3.13-1.29,3.13-2.45,0-1.65-1.33-2.31-2.6-2.37v0A2.1,2.1,0,0,0,13.72,15c0-1.3-.91-2.09-2.69-2.09H7.17v.4c0,.37.59,0,.59.72v6.79c0,.72-.59.35-.59.72V22ZM9.64,17.61h.68c1.2,0,1.81.63,1.81,2,0,.92-.48,1.58-1.81,1.58H9.64Zm0-4h.57a1.42,1.42,0,0,1,1.57,1.63,1.45,1.45,0,0,1-1.57,1.59H9.64Zm5.2-.67v.4c0,.37.59,0,.59.72V19.5c0,1.7.88,2.64,3,2.64,2.31,0,3.22-.84,3.22-2.74V14.05c0-.72.59-.35.59-.72v-.4H20.17v.4c0,.37.59,0,.59.72v5.34c0,1.29-.35,1.95-1.69,1.95s-1.65-.81-1.65-2.17V14.05c0-.72.59-.35.59-.72v-.4Zm10.29,7.9c0,.72-.7.35-.7.72V22h3.27v-.4c0-.37-.7,0-.7-.72V13.6h.63c.71,0,.84.47.93.94s.13.94.63.94h.25V12.75l-.46.12a2,2,0,0,1-.48.06H23.64a2,2,0,0,1-.48-.06l-.46-.12v2.73h.25c.5,0,.54-.48.63-.94s.22-.94.93-.94h.63Zm7.17,0c0,.72-.7.35-.7.72V22h3.27v-.4c0-.37-.7,0-.7-.72V13.6h.63c.71,0,.84.47.93.94s.13.94.63.94h.25V12.75l-.46.12a2,2,0,0,1-.48.06H30.81a2,2,0,0,1-.48-.06l-.46-.12v2.73h.24c.5,0,.54-.48.63-.94s.22-.94.93-.94h.63Zm5.56,0c0,.72-.59.35-.59.72V22h6.29V19.25h-.31c-.49,0-.49.53-.57.9-.11.54-.36,1.14-1.69,1.14H39.74V17.64h.49c1.24,0,.57.94,1.24.94h.36V16h-.36c-.67,0,0,.94-1.24.94h-.49V13.6h1.15c1.78,0,1,1.82,1.88,1.82h.31V12.75a3.74,3.74,0,0,1-1.43.18H37.27v.4c0,.37.59,0,.59.72Zm7.17,0c0,.72-.59.35-.59.72V22h3.07v-.4c0-.37-.59,0-.59-.72V17.75c.22,0,.35.12.5.44L49.16,22H51.4v-.35c0-.18-.37-.06-.72-.76l-1.21-2.36c-.3-.59-.44-.87-1.21-1v-.08h.21a2,2,0,0,0,2.1-2.18c0-1.08-.61-2.28-2.63-2.28H44.44v.4c0,.37.59,0,.59.72Zm1.88-7.24c1.14,0,1.72.1,1.72,1.74s-.58,1.72-1.72,1.74ZM54,12.93H51.48v.4c0,.38.55,0,.55.72v6.78c0,.72-.63.35-.63.76V22h2.17V21.6c0-.41-.63,0-.63-.76V14.56h0L57.28,22h.89V14.05c0-.72.63-.35.63-.76v-.36H56.64v.36c0,.41.63,0,.63.76v4.41h0Zm5.24,0v.4c0,.37.59,0,.59.72V19.5c0,1.7.88,2.64,3,2.64,2.31,0,3.22-.84,3.22-2.74V14.05c0-.72.59-.35.59-.72v-.4H64.61v.4c0,.37.59,0,.59.72v5.34c0,1.29-.35,1.95-1.69,1.95s-1.65-.81-1.65-2.17V14.05c0-.72.59-.35.59-.72v-.4Zm10.29,7.9c0,.72-.7.35-.7.72V22h3.27v-.4c0-.37-.7,0-.7-.72V13.6h.63c.71,0,.84.47.93.94s.13.94.63.94h.25V12.75l-.46.12a2,2,0,0,1-.48.06H68.08a2,2,0,0,1-.48-.06l-.46-.12v2.73h.24c.5,0,.54-.48.63-.94s.22-.94.93-.94h.63Z"/><path class="cls-1" d="M78.68,19.54c.6,0,.4,1.89,2.7,1.89A1.44,1.44,0,0,0,82.92,20c0-2.12-4.62-1.37-4.62-4.63a2.84,2.84,0,0,1,3-2.64,2.93,2.93,0,0,1,1.25.28,2.16,2.16,0,0,0,.67.29c.15,0,.23-.14.27-.27h.6v2.26h-.41c-.91,0-.35-1.86-2.18-1.86a1.23,1.23,0,0,0-1.32,1.19c0,1.95,4.62,1.09,4.62,4.43a3.33,3.33,0,0,1-3.46,3.12,7.34,7.34,0,0,1-2.09-.5c-.17,0-.24.11-.26.27h-.79V19.54Z"/><path class="cls-1" d="M87.16,17.24c0,1.45.36,4.12,2.29,4.12s2.29-2.44,2.29-3.94-.31-4.11-2.3-4.12-2.28,2.5-2.28,3.94m6.5,5.66a.89.89,0,0,1,.19.36c0,.37-.86.94-1.89.94-2.14,0-2.62-1.93-4-2.28-2.5-.64-3.12-3.21-3.12-4.56a4.45,4.45,0,0,1,4.62-4.66A4.39,4.39,0,0,1,94,17.32,4.34,4.34,0,0,1,89.54,22v0c2,.21,2.41,1.07,3.38,1.07a.81.81,0,0,0,.67-.31Z"/><path class="cls-1" d="M97.83,12.92v.19c0,.86-.72.13-.72,1.14V19c0,1.32.35,2.33,1.86,2.33A1.88,1.88,0,0,0,101,19.56v-5.3c0-1-.72-.28-.72-1.14v-.19h2.23v.19c0,.86-.72.13-.72,1.14v5.3c0,1.69-1.42,2.6-3.33,2.6S95,21.31,95,19.34V14.26c0-1-.72-.28-.72-1.14v-.19Z"/><path class="cls-1" d="M105,18.62h2.52l-1.28-3.2Zm-.24.72-.37.86a1.72,1.72,0,0,0-.19.68c0,.69.86,0,.86.86v.19H102.4v-.19c0-1,.5.17,1.19-1.6l2.28-5.81-.12-.29a2.56,2.56,0,0,1-.18-.47c0-.15.2-.22.31-.27l1.09-.51a.81.81,0,0,1,.31-.12c.15,0,.22.27.29.47l3,7.49c.4,1,1,.2,1,1.11v.19h-3.83v-.19c0-.87.7-.26.7-.81a.94.94,0,0,0-.11-.41l-.5-1.18Z"/><path class="cls-1" d="M111.86,19.54c.6,0,.4,1.89,2.7,1.89A1.44,1.44,0,0,0,116.1,20c0-2.12-4.62-1.37-4.62-4.63a2.84,2.84,0,0,1,3-2.64,2.93,2.93,0,0,1,1.25.28,2.16,2.16,0,0,0,.67.29c.15,0,.23-.14.27-.27h.6v2.26h-.41c-.91,0-.35-1.86-2.18-1.86a1.23,1.23,0,0,0-1.32,1.19c0,1.95,4.62,1.09,4.62,4.43a3.33,3.33,0,0,1-3.46,3.12,7.34,7.34,0,0,1-2.09-.5c-.17,0-.24.11-.26.27h-.79V19.54Z"/><path class="cls-1" d="M124.41,16.93V14.26c0-1-.72-.28-.72-1.14v-.19h3.55v.19c0,.86-.72.13-.72,1.14v6.34c0,1,.72.28.72,1.14v.19h-3.58v-.19c0-.86.76-.13.76-1.14V17.7h-3.52v2.89c0,1,.72.28.72,1.14v.19h-3.55v-.19c0-.86.72-.13.72-1.14V14.26c0-1-.72-.28-.72-1.14v-.19h3.55v.19c0,.86-.72.13-.72,1.14v2.67Z"/><path class="cls-3" d="M12,26.55,10.5,31.63h0L8.94,26.55H6.51v.35c0,.33.51,0,.51.63v5.91c0,.63-.6.3-.6.67v.3h2v-.3c0-.37-.6,0-.6-.67V28h0l1.85,6.38h.76L12.3,28h0v5.4c0,.63-.51.3-.51.63v.35h2.65v-.35c0-.33-.51,0-.51-.63V27.53c0-.63.51-.3.51-.63v-.35Zm3.89,6.89c0,.63-.51.3-.51.63v.35H18v-.35c0-.33-.51,0-.51-.63V27.53c0-.63.51-.3.51-.63v-.35H15.4v.35c0,.33.51,0,.51.63Zm2.83-6.89v.36c0,.21.38,0,.63.52l1.71,3.28-1.59,2.65c-.37.63-.85.46-.85.75v.3h2.11v-.3c0-.33-.48-.16-.48-.58a1.59,1.59,0,0,1,.27-.66l.9-1.49.75,1.39a1.92,1.92,0,0,1,.3.8c0,.4-.52.2-.52.54v.31h3v-.35c0-.29-.55-.09-.82-.75L22.35,29.9l1.43-2.39c.33-.54.86-.35.86-.62v-.34H22.55v.31c0,.28.51.15.51.48a1.05,1.05,0,0,1-.16.37L22,29.26l-.72-1.43a1.32,1.32,0,0,1-.19-.5c0-.34.54-.18.54-.47v-.31Zm7,6.89c0,.63-.52.3-.52.63v.35h5.48V32.06h-.27c-.43,0-.43.46-.49.79s-.31,1-1.47,1H27.38V30.65h.43c1.08,0,.49.82,1.08.82h.31V29.2h-.31c-.58,0,0,.82-1.08.82h-.43V27.13h1c1.55,0,.83,1.59,1.64,1.59h.27V26.4a3.27,3.27,0,0,1-1.25.16H25.23v.35c0,.33.52,0,.52.63Zm7.89-6.31h.82c1.39,0,1.93,1,1.93,3.35,0,2.81-.56,3.35-2,3.35h-.78ZM32,33.44c0,.63-.52.3-.52.63v.35h3.07c2.34,0,3.66-1.46,3.66-3.93,0-2.22-1.16-3.93-3.77-3.93h-3v.35c0,.33.52,0,.52.63Zm13.2,1c2,0,2.73-1.12,2.73-2.13a2.1,2.1,0,0,0-2.27-2.07v0a1.83,1.83,0,0,0,1.83-1.82c0-1.13-.8-1.82-2.35-1.82H41.78v.35c0,.33.52,0,.52.63v5.91c0,.63-.52.3-.52.63v.35Zm-1.26-3.79h.6c1,0,1.57.55,1.57,1.72,0,.8-.42,1.37-1.57,1.37h-.6Zm0-3.5h.49a1.23,1.23,0,0,1,1.37,1.42,1.26,1.26,0,0,1-1.37,1.38h-.49Zm5.22,6.31c0,.63-.52.3-.52.63v.35h5.48V32.06h-.27c-.43,0-.43.46-.49.79s-.32,1-1.47,1H50.8V30.65h.43c1.08,0,.5.82,1.08.82h.31V29.2H52.3c-.58,0,0,.82-1.08.82H50.8V27.13h1c1.55,0,.83,1.59,1.64,1.59h.27V26.4a3.27,3.27,0,0,1-1.25.16H48.64v.35c0,.33.52,0,.52.63Zm9.09-1.09.29.84a1.42,1.42,0,0,1,.09.41c0,.34-.52.13-.52.59v.23H60.9v-.34c0-.28-.43-.07-.61-.61L58,26.56c0-.11-.1-.17-.18-.17a.51.51,0,0,0-.26.09l-.84.46c-.12.07-.13.1-.13.18a2.32,2.32,0,0,1,.15.6.78.78,0,0,1,0,.26l-1.58,5.25c-.26.84-.71.55-.71.91v.28h2v-.28c0-.36-.6-.2-.6-.68a2.17,2.17,0,0,1,.08-.48l.19-.62Zm-2-.69.83-2.87h0L58,31.65Zm7-5.1H61v.35c0,.33.48,0,.48.63v5.91c0,.63-.55.3-.55.66v.31h1.89V34.1c0-.36-.55,0-.55-.66V28h0l3.76,6.45h.77V27.53c0-.63.55-.3.55-.66v-.31H65.52v.31c0,.36.55,0,.55.66v3.84h0Z"/><path class="cls-3" d="M10.67,21C13,21,13.8,19.76,13.8,18.6c0-1.65-1.33-2.31-2.6-2.37v0a2.1,2.1,0,0,0,2.1-2.09c0-1.3-.91-2.09-2.69-2.09H6.75v.4c0,.37.59,0,.59.72v6.79c0,.72-.59.35-.59.72V21ZM9.22,16.7h.68c1.2,0,1.81.63,1.81,2,0,.92-.48,1.58-1.81,1.58H9.22Zm0-4h.57a1.42,1.42,0,0,1,1.57,1.63A1.45,1.45,0,0,1,9.79,15.9H9.22Zm5.2-.67v.4c0,.37.59,0,.59.72v5.44c0,1.7.88,2.64,3,2.64,2.31,0,3.22-.84,3.22-2.74V13.14c0-.72.59-.35.59-.72V12H19.75v.4c0,.37.59,0,.59.72v5.34c0,1.29-.35,1.95-1.69,1.95S17,19.62,17,18.26V13.14c0-.72.59-.35.59-.72V12Zm10.29,7.9c0,.72-.7.35-.7.72V21h3.27v-.4c0-.37-.7,0-.7-.72V12.69h.63c.71,0,.84.47.93.94s.13.94.63.94H29V11.84l-.46.12a2,2,0,0,1-.48.06H23.22a2,2,0,0,1-.48-.06l-.46-.12v2.73h.25c.5,0,.54-.48.63-.94s.22-.94.93-.94h.63Zm7.17,0c0,.72-.7.35-.7.72V21h3.27v-.4c0-.37-.7,0-.7-.72V12.69h.63c.71,0,.84.47.93.94s.13.94.63.94h.25V11.84l-.46.12a2,2,0,0,1-.48.06H30.39a2,2,0,0,1-.48-.06l-.46-.12v2.73h.24c.5,0,.54-.48.63-.94s.22-.94.93-.94h.63Zm5.56,0c0,.72-.59.35-.59.72V21h6.29V18.34h-.31c-.49,0-.49.53-.57.9-.11.54-.36,1.14-1.69,1.14H39.32V16.73h.49c1.24,0,.57.94,1.24.94h.36V15.06h-.36c-.67,0,0,.94-1.24.94h-.49V12.69h1.15c1.78,0,1,1.82,1.88,1.82h.31V11.84a3.74,3.74,0,0,1-1.43.18H36.85v.4c0,.37.59,0,.59.72Zm7.17,0c0,.72-.59.35-.59.72V21h3.07v-.4c0-.37-.59,0-.59-.72V16.84c.22,0,.35.12.5.44L48.74,21H51V20.7c0-.18-.37-.06-.72-.76L49,17.58c-.3-.59-.44-.87-1.21-1v-.08H48a2,2,0,0,0,2.1-2.18c0-1.08-.61-2.28-2.63-2.28H44v.4c0,.37.59,0,.59.72Zm1.88-7.24c1.13,0,1.72.1,1.72,1.74s-.58,1.72-1.72,1.74ZM53.63,12H51.06v.4c0,.38.55,0,.55.72v6.78c0,.72-.63.35-.63.76V21h2.17v-.36c0-.41-.63,0-.63-.76V13.64h0L56.87,21h.89V13.14c0-.72.63-.35.63-.76V12H56.22v.36c0,.41.63,0,.63.76v4.41h0Zm5.24,0v.4c0,.37.59,0,.59.72v5.44c0,1.7.88,2.64,3,2.64,2.31,0,3.22-.84,3.22-2.74V13.14c0-.72.59-.35.59-.72V12H64.19v.4c0,.37.59,0,.59.72v5.34c0,1.29-.35,1.95-1.69,1.95s-1.65-.81-1.65-2.17V13.14c0-.72.59-.35.59-.72V12Zm10.29,7.9c0,.72-.7.35-.7.72V21h3.27v-.4c0-.37-.7,0-.7-.72V12.69h.63c.71,0,.84.47.93.94s.13.94.63.94h.25V11.84L73,12a2,2,0,0,1-.48.06H67.66a2,2,0,0,1-.48-.06l-.46-.12v2.73H67c.5,0,.54-.48.63-.94s.22-.94.93-.94h.63Z"/><path class="cls-3" d="M91.5,26.89H91c0,.09-.1.22-.25.22A3.72,3.72,0,0,0,89,26.55c-2.09,0-3.23,2-3.23,4.07s1.13,4,3.61,4a2.26,2.26,0,0,0,2.26-2.17l-.7-.41c-.07.54-.28,1.9-1.56,1.9s-1.66-1.66-1.66-3.5c0-1.68.34-3.34,1.65-3.34s1,2.27,1.75,2.27h.35Zm5.9,3.92v2.73c0,.63-.55.3-.55.63v.35h2.86v-.35c0-.32-.55,0-.55-.62V27.68c0-.62.55-.3.55-.62v-.35H96.85v.35c0,.32.55,0,.55.62v2.44H94.81V27.68c0-.62.55-.3.55-.62v-.35H92.5v.35c0,.32.55,0,.55.62v5.86c0,.63-.55.3-.55.63v.35h2.87v-.35c0-.32-.55,0-.55-.62V30.81Zm3.68,2.73c0,.63-.55.3-.55.63v.35h5.88V32.17h-.29c-.46,0-.46.46-.53.78s-.34,1-1.58,1h-1.17V30.78h.46c1.16,0,.53.81,1.16.81h.34V29.34h-.34c-.63,0,0,.81-1.16.81h-.46V27.29h1.07c1.66,0,.89,1.57,1.76,1.57H106V26.55a3.76,3.76,0,0,1-1.34.16h-4.09v.35c0,.32.55,0,.55.62Zm6.69,0c0,.63-.55.3-.55.63v.35h5.87V32.17h-.29c-.46,0-.46.46-.53.78s-.34,1-1.58,1h-1.17V30.78H110c1.16,0,.53.81,1.16.81h.34V29.34h-.34c-.63,0,0,.81-1.16.81h-.46V27.29h1.07c1.66,0,.89,1.57,1.76,1.57h.29V26.55a3.76,3.76,0,0,1-1.34.16h-4.09v.35c0,.32.55,0,.55.62Zm6.37.9h.63a.21.21,0,0,1,.23-.16,5.22,5.22,0,0,0,1.71.38A2.7,2.7,0,0,0,119.56,32c0-2.62-3.86-2.18-3.86-3.91a1,1,0,0,1,1-.95c1.41,0,1.08,2,1.89,2H119V26.79h-.55a.33.33,0,0,1-.33.17,4.34,4.34,0,0,0-1.52-.4,2.34,2.34,0,0,0-2.42,2.22c0,2.59,3.86,2,3.86,4a1.3,1.3,0,0,1-1.4,1.35c-1.87,0-1.34-2.3-2.24-2.3h-.26Zm7-.9c0,.63-.55.3-.55.63v.35h5.87V32.17h-.29c-.46,0-.46.46-.53.78s-.34,1-1.58,1h-1.17V30.78h.46c1.16,0,.53.81,1.16.81h.34V29.34h-.34c-.63,0,0,.81-1.16.81h-.46V27.29H124c1.66,0,.89,1.57,1.76,1.57H126V26.55a3.77,3.77,0,0,1-1.34.16h-4.09v.35c0,.32.55,0,.55.62Z"/><path class="cls-3" d="M83,26.3,69.52,29.66v-.88l.29.15h.29l5.27-1.32.88-.44.59-.59L77,26.3,76.84,26h-.29l-.29.15-.15.29.15.29H76l-.29-.29V26l.59-.58h.88l.44.44v.81l-1,.66L81.82,26h1.75v.44Zm.29,7H83l-5.27,1.32-.88.44-.59.59-.15.29.15.29h.29l.29-.15.15-.29-.15-.29h.29l.29.29v.44l-.58.59H76l-.44-.44v-.8l1-.66-5.27,1.32H69.52v-.44l.59.15,13.46-3.37v.88ZM72.7,34.46l.07-.56-.09-.39-.07-.06-1.05.26-.06.09-.1.44.06.53L70,35.15l.28-.63.89-4-.09-.42,2.17-.54-.1.47L74,33.58l.26.48Zm-.59-3.41,0-.22,0,.24-.32,1.54.06.06.58-.15.06-.09Zm6-2.15v4.2l-.86.22-1.4-2.17-.13-.31,0,.34v2l.15.51-1.4.35.16-.59V29.75l-.19-.48,1.38-.34L77,30.64l.13.31,0-.34V29.18l-.16-.51,1.38-.35Zm3.72,3.26-2.78.7.16-.58V28.62l-.16-.5,2.78-.7.89.72V31Zm-.38-3.1-.16-.31L81,28.67l-.41.1-.06.09v2.41l.09.07.38-.1.32-.25.16-.37Z"/><path class="cls-2" d="M133.08.4A3,3,0,0,0,131.64,0a6.89,6.89,0,0,0-3.32,1.14,4,4,0,0,0-1-.48,4.61,4.61,0,0,1-1.19-.6L126.08,0l-.1.09a18.85,18.85,0,0,1-1.54,1.17A5,5,0,0,1,123,1.9H108.68v.68h14.39c.74.09.78.21.78.21l0,.08H124a1.2,1.2,0,0,0,.28-.06,3.26,3.26,0,0,0,1,.5,4.57,4.57,0,0,1,1.19.6l.07.11.1-.09c.75-.66,4.11-3.13,5.79-3.13a1.21,1.21,0,0,1,.38.06,1.5,1.5,0,0,1,.91.82,1.39,1.39,0,0,1-.12,1.22,1,1,0,0,1-.49.45,1.18,1.18,0,0,0,.2-.71A1.27,1.27,0,0,0,132,1.44h-.05a1.27,1.27,0,0,0-1.26,1.28,1.33,1.33,0,0,0,1,1.15,2.27,2.27,0,0,0,1.26,0,1.73,1.73,0,0,0,1-.79A1.89,1.89,0,0,0,133.08.4m-5.88,1.5L127,2a3.37,3.37,0,0,1-1.78.78,1.34,1.34,0,0,1-.62-.16c.19-.11.39-.25.58-.38l.35-.25a3.38,3.38,0,0,1,1.78-.78,1.34,1.34,0,0,1,.63.17l-.78.51"/><path class="cls-2" d="M25.46,1.9H11.17A4.9,4.9,0,0,1,9.7,1.25,18.74,18.74,0,0,1,8.15.09L8.05,0,8,.11a4.59,4.59,0,0,1-1.19.6,3.94,3.94,0,0,0-1,.48A6.87,6.87,0,0,0,2.5,0,3,3,0,0,0,1.06.4,1.89,1.89,0,0,0,.25,3a1.73,1.73,0,0,0,1,.79,2.28,2.28,0,0,0,1.26,0,1.33,1.33,0,0,0,1-1.15,1.2,1.2,0,0,0-.35-.89,1.34,1.34,0,0,0-.91-.4H2.16A1.27,1.27,0,0,0,.85,2.63a1.18,1.18,0,0,0,.2.71,1,1,0,0,1-.49-.45A1.38,1.38,0,0,1,.45,1.67,1.5,1.5,0,0,1,1.35.86,1.18,1.18,0,0,1,1.74.8c1.67,0,5,2.47,5.79,3.13l.1.09.07-.11a4.59,4.59,0,0,1,1.19-.6,3.24,3.24,0,0,0,1-.5,1.27,1.27,0,0,0,.28.06h.09l0-.08s0-.12.77-.21H25.46ZM8.89,2.79A3.37,3.37,0,0,1,7.1,2L6.94,1.9c-.27-.19-.53-.35-.78-.51a1.35,1.35,0,0,1,.63-.17A3.37,3.37,0,0,1,8.57,2l.35.24a6.64,6.64,0,0,0,.58.38,1.34,1.34,0,0,1-.62.16"/><path class="cls-1" d="M31.86,2.64a1.83,1.83,0,0,0,.23.92,1.62,1.62,0,0,0,.65.63,1.94,1.94,0,0,0,.94.22,1.79,1.79,0,0,0,1.3-.5,1.71,1.71,0,0,0,.51-1.28,1.85,1.85,0,0,0-.23-.92,1.59,1.59,0,0,0-.65-.63,2.08,2.08,0,0,0-1.88,0,1.58,1.58,0,0,0-.64.63,1.88,1.88,0,0,0-.22.92M33.68,0a3.09,3.09,0,0,1,1.44.33,2.54,2.54,0,0,1,1,1,2.57,2.57,0,0,1,.38,1.36A2.55,2.55,0,0,1,36.15,4a2.54,2.54,0,0,1-1,1,3.26,3.26,0,0,1-2.91,0,2.6,2.6,0,0,1-1-3.62,2.53,2.53,0,0,1,1-1A3.07,3.07,0,0,1,33.68,0"/><path class="cls-1" d="M38.91.07v3a1.64,1.64,0,0,0,.14.73,1.09,1.09,0,0,0,.45.45,1.46,1.46,0,0,0,.73.18A1.65,1.65,0,0,0,41,4.25a1,1,0,0,0,.47-.46,1.78,1.78,0,0,0,.15-.8V.07h1V3.13A2,2,0,0,1,42,4.72a2.55,2.55,0,0,1-1.76.56A2.83,2.83,0,0,1,39,5a1.81,1.81,0,0,1-.8-.74,2.22,2.22,0,0,1-.28-1.13V.07Z"/><path class="cls-1" d="M45.85,2.26a.9.9,0,0,0,.61-.2.68.68,0,0,0,.22-.53A.64.64,0,0,0,46.47,1a1,1,0,0,0-.63-.18h-.62V2.26Zm.23-2.2a1.72,1.72,0,0,1,1.18.4,1.32,1.32,0,0,1,.46,1,1.3,1.3,0,0,1-.23.76,1.5,1.5,0,0,1-.67.51,1.49,1.49,0,0,1,.44.36,4.55,4.55,0,0,1,.48.77q.47.93.7,1.29H47.32A6.15,6.15,0,0,1,47,4.67a12,12,0,0,0-.63-1.11,1.51,1.51,0,0,0-.38-.4A.76.76,0,0,0,45.58,3h-.36V5.22h-1V.07Z"/><path class="cls-1" d="M54.25,4.44a1.8,1.8,0,0,0,1.32-.5,1.75,1.75,0,0,0,.5-1.3,1.74,1.74,0,0,0-.5-1.32A1.87,1.87,0,0,0,54.21.84h-1V4.44Zm.1-4.37a3,3,0,0,1,1.43.33,2.38,2.38,0,0,1,1,.92,2.6,2.6,0,0,1,.35,1.33A2.57,2.57,0,0,1,56.75,4a2.34,2.34,0,0,1-1,.9,3.25,3.25,0,0,1-1.47.32h-2.1V.07Z"/><polygon class="cls-1" points="61.86 0.07 61.86 0.84 59.53 0.84 59.53 2.2 61.76 2.2 61.76 2.97 59.53 2.97 59.53 4.44 61.91 4.44 61.91 5.21 58.53 5.21 58.53 0.07 61.86 0.07"/><polygon class="cls-1" points="64.34 0.07 64.34 4.44 66.84 4.44 66.84 5.21 63.35 5.21 63.35 0.07 64.34 0.07"/><polygon class="cls-1" points="71.36 0.07 71.36 0.84 69.02 0.84 69.02 2.2 71.26 2.2 71.26 2.97 69.02 2.97 69.02 4.44 71.41 4.44 71.41 5.21 68.03 5.21 68.03 0.07 71.36 0.07"/><path class="cls-1" d="M75.54,0a3.68,3.68,0,0,1,.86.1,4.29,4.29,0,0,1,.91.34v.94A4.27,4.27,0,0,0,76.43,1a2.91,2.91,0,0,0-.84-.12,2.14,2.14,0,0,0-1,.23,1.65,1.65,0,0,0-.69.64,1.76,1.76,0,0,0-.25.92,1.77,1.77,0,0,0,.24.92,1.63,1.63,0,0,0,.68.63,2.18,2.18,0,0,0,1,.22,2.67,2.67,0,0,0,.81-.12,5.87,5.87,0,0,0,1-.44V4.8a4.53,4.53,0,0,1-.92.37,3.86,3.86,0,0,1-1,.11A3.18,3.18,0,0,1,74,5,2.43,2.43,0,0,1,73,4a2.55,2.55,0,0,1-.37-1.33A2.63,2.63,0,0,1,73,1.29a2.54,2.54,0,0,1,1-1A3.24,3.24,0,0,1,75.54,0"/><polygon class="cls-1" points="83.09 0.07 83.09 0.84 81.26 0.84 81.26 5.21 80.27 5.21 80.27 0.84 78.44 0.84 78.44 0.07 83.09 0.07"/><path class="cls-1" d="M85.06,3.21h1.66l-.87-2ZM86.36.07l2.27,5.15h-1L87,4H84.76l-.5,1.25h-1L85.34.07Z"/><path class="cls-1" d="M91.6,4.44a1.28,1.28,0,0,0,.76-.19.65.65,0,0,0,.26-.56.61.61,0,0,0-.26-.52A1.13,1.13,0,0,0,91.67,3h-.94V4.44ZM91.36,2.2A1,1,0,0,0,92,2a.64.64,0,0,0,.23-.52A.59.59,0,0,0,92,1a.84.84,0,0,0-.55-.17h-.72V2.2ZM91.63.07a1.75,1.75,0,0,1,1.15.37,1.15,1.15,0,0,1,.45.92A1.06,1.06,0,0,1,93,2a1.27,1.27,0,0,1-.54.43v0a1.48,1.48,0,0,1,.84.48,1.27,1.27,0,0,1,.3.84,1.37,1.37,0,0,1-.22.76,1.35,1.35,0,0,1-.61.51,2.28,2.28,0,0,1-.92.17H89.74V.07Z"/><polygon class="cls-1" points="95.98 0.07 95.98 4.44 98.48 4.44 98.48 5.21 94.99 5.21 94.99 0.07 95.98 0.07"/><polygon class="cls-1" points="103 0.07 103 0.84 100.66 0.84 100.66 2.2 102.9 2.2 102.9 2.97 100.66 2.97 100.66 4.44 103.05 4.44 103.05 5.21 99.67 5.21 99.67 0.07 103 0.07"/><path class="cls-3" d="M78.14,18.71c.6,0,.4,1.89,2.7,1.89a1.44,1.44,0,0,0,1.54-1.47c0-2.12-4.62-1.37-4.62-4.63a2.84,2.84,0,0,1,3-2.64,2.93,2.93,0,0,1,1.25.28,2.16,2.16,0,0,0,.67.29c.15,0,.23-.14.27-.27h.6v2.27H83.1c-.91,0-.35-1.86-2.18-1.86a1.23,1.23,0,0,0-1.32,1.19c0,1.95,4.62,1.09,4.62,4.43a3.33,3.33,0,0,1-3.46,3.12,7.34,7.34,0,0,1-2.09-.5c-.17,0-.24.11-.26.27h-.79V18.71Z"/><path class="cls-3" d="M86.61,16.4c0,1.45.36,4.12,2.29,4.12s2.29-2.44,2.29-3.94-.31-4.11-2.3-4.12S86.61,15,86.61,16.4m6.5,5.66a.89.89,0,0,1,.19.36c0,.37-.86.94-1.89.94-2.14,0-2.62-1.93-4-2.28-2.5-.64-3.12-3.21-3.12-4.56a4.45,4.45,0,0,1,4.62-4.66,4.39,4.39,0,0,1,4.57,4.62A4.34,4.34,0,0,1,89,21.14v0c2,.21,2.41,1.07,3.38,1.07a.81.81,0,0,0,.67-.31Z"/><path class="cls-3" d="M97.29,12.09v.19c0,.86-.72.13-.72,1.14v4.79c0,1.32.35,2.33,1.86,2.33a1.88,1.88,0,0,0,2.06-1.82v-5.3c0-1-.72-.28-.72-1.14v-.19H102v.19c0,.86-.72.13-.72,1.14v5.3c0,1.69-1.42,2.6-3.33,2.6s-3.49-.84-3.49-2.82V13.42c0-1-.72-.28-.72-1.14v-.19Z"/><path class="cls-3" d="M104.48,17.79H107l-1.28-3.2Zm-.24.72-.37.86a1.72,1.72,0,0,0-.19.68c0,.69.86,0,.86.86v.19h-2.68V20.9c0-1,.5.17,1.19-1.6l2.28-5.81-.12-.29a2.56,2.56,0,0,1-.18-.47c0-.15.2-.22.31-.27l1.09-.51a.81.81,0,0,1,.31-.12c.15,0,.22.27.29.47l3,7.49c.4,1,1,.2,1,1.11v.19h-3.83V20.9c0-.87.7-.26.7-.81a.94.94,0,0,0-.11-.41l-.5-1.18Z"/><path class="cls-3" d="M111.32,18.71c.6,0,.4,1.89,2.7,1.89a1.44,1.44,0,0,0,1.54-1.47c0-2.12-4.62-1.37-4.62-4.63a2.84,2.84,0,0,1,3-2.64,2.93,2.93,0,0,1,1.25.28,2.16,2.16,0,0,0,.67.29c.15,0,.23-.14.27-.27h.6v2.27h-.41c-.91,0-.35-1.86-2.18-1.86a1.23,1.23,0,0,0-1.32,1.19c0,1.95,4.62,1.09,4.62,4.43A3.33,3.33,0,0,1,114,21.32a7.34,7.34,0,0,1-2.09-.5c-.17,0-.24.11-.26.27h-.79V18.71Z"/><path class="cls-3" d="M123.86,16.1V13.42c0-1-.72-.28-.72-1.14v-.19h3.55v.19c0,.86-.72.13-.72,1.14v6.34c0,1,.72.28.72,1.14v.19h-3.58V20.9c0-.86.76-.13.76-1.14V16.86h-3.52v2.89c0,1,.72.28.72,1.14v.19h-3.55V20.9c0-.86.72-.13.72-1.14V13.42c0-1-.72-.28-.72-1.14v-.19h3.55v.19c0,.86-.72.13-.72,1.14V16.1Z"/></svg>