<svg xmlns="http://www.w3.org/2000/svg" viewBox="0 0 291.21 97.16"><defs><style>.cls-1{fill:#592700;}.cls-2{fill:#d28850;}.cls-3{fill:#dd5e24;}</style></defs><title>Asset 2</title><g id="Layer_2" data-name="Layer 2"><g id="Layer_1-2" data-name="Layer 1"><path class="cls-1" d="M55.79 55.82l-.48-.92-1-.26-1.22.31-.18.26v7.21l.26.22 1.14-.31 1-.74.48-1.09zm1.14 9.27l-8.31 2.1.48-1.75V54.51L48.62 53l8.31-2.1 2.67 2.14v8.53zm-11.11-9.75v12.55l-2.58.66L39 62.07l-.39-.92.13 1V68l.44 1.53-4.2 1 .48-1.75v-11l-.57-1.44 4.11-1 3.32 5.12.39.92-.09-1v-4.21l-.48-1.53 4.11-1.05zm-18.06 6.43l-.09-.66-.09.7-1 4.59.18.18 1.75-.44.18-.26zM29.51 72l.22-1.66-.26-1.18-.22-.18-3.15.79-.18.26-.31 1.31.17 1.57-4.4 1.09.83-1.88 2.67-11.89-.27-1.23 6.47-1.62-.31 1.4 2.67 10.58.79 1.44zm31.61-3.41h-.87l-15.74 3.89-2.62 1.31-1.75 1.75-.44.87.44.87H41l.87-.44.44-.88-.44-.87h.87l.88.87v1.31L41.88 79h-2.62l-1.31-1.31v-2.37l3.06-2-15.74 3.97H20V76l1.75.44L62 66.36V69zm-.87-21L20 57.61V55l.87.44h.88l15.74-3.94 2.62-1.31 1.75-1.75.44-.87-.44-.87H41l-.88.44-.42.86.44.87h-.87l-.88-.87v-1.32l1.75-1.75h2.62l1.31 1.31v2.41l-3.06 2 15.74-3.94H62V48z"/><path class="cls-2" d="M15 92.93l-.33-.23c-.57-.39-1.11-.74-1.65-1.07a2.83 2.83 0 0 1 1.32-.35A7.11 7.11 0 0 1 18 92.93l.73.51c.4.28.81.57 1.22.8a2.83 2.83 0 0 1-1.3.34A7.1 7.1 0 0 1 15 92.93m257.69 0a7.11 7.11 0 0 1 3.75-1.65 2.83 2.83 0 0 1 1.32.35c-.54.33-1.08.68-1.65 1.07l-.33.23a7.09 7.09 0 0 1-3.78 1.65 2.83 2.83 0 0 1-1.3-.34c.41-.23.82-.52 1.22-.8zm15.81-3.39a6.31 6.31 0 0 0-3-.74c-1.94 0-4.25.8-7 2.39a8.29 8.29 0 0 0-2.05-1 9.64 9.64 0 0 1-2.51-1.26l-.15-.23-.21.18a39.78 39.78 0 0 1-3.25 2.45 10.31 10.31 0 0 1-3.09 1.36H23.5a10.31 10.31 0 0 1-3.09-1.36 39.18 39.18 0 0 1-3.25-2.45L17 88.7l-.15.23a9.68 9.68 0 0 1-2.51 1.26 8.21 8.21 0 0 0-2.05 1c-2.74-1.6-5-2.39-7-2.39a6.32 6.32 0 0 0-3 .74 4 4 0 0 0-1.7 5.57 3.66 3.66 0 0 0 2 1.66 4.78 4.78 0 0 0 2.66.09 2.79 2.79 0 0 0 2.06-2.42 2.5 2.5 0 0 0-.73-1.87 2.8 2.8 0 0 0-1.91-.83h-.13a2.68 2.68 0 0 0-2.75 2.5 2.48 2.48 0 0 0 .42 1.49 2 2 0 0 1-1-.94 2.91 2.91 0 0 1-.25-2.57 3.17 3.17 0 0 1 1.89-1.72 2.52 2.52 0 0 1 .81-.12c3.53 0 10.6 5.2 12.18 6.59l.21.19.14-.23a9.67 9.67 0 0 1 2.51-1.26 6.81 6.81 0 0 0 2.11-1.06 2.59 2.59 0 0 0 .58.13h.19l.06-.17s.1-.26 1.62-.45H267.4c1.55.19 1.65.44 1.65.45l.06.17h.19a2.58 2.58 0 0 0 .58-.13 6.79 6.79 0 0 0 2.12 1.06 9.69 9.69 0 0 1 2.51 1.26l.14.23.21-.19c1.58-1.4 8.65-6.59 12.18-6.59a2.52 2.52 0 0 1 .81.12 3.18 3.18 0 0 1 1.91 1.72 2.92 2.92 0 0 1-.24 2.57 2 2 0 0 1-1 .94 2.47 2.47 0 0 0 .42-1.49 2.68 2.68 0 0 0-2.75-2.5H286a2.67 2.67 0 0 0-2.64 2.7 2.8 2.8 0 0 0 2.06 2.42 4.79 4.79 0 0 0 2.66-.09 3.65 3.65 0 0 0 2-1.66 4 4 0 0 0-1.7-5.57"/><path class="cls-1" d="M18.87 25.8c0-1.17-1-.57-1-1.17V24h5.68c3.29 0 4.28 1.95 4.28 3.71a3.29 3.29 0 0 1-3.42 3.54h-.34v.13c1.26.25 1.49.69 2 1.66l2 3.84c.57 1.13 1.17.94 1.17 1.24v.57h-3.67l-2.83-6.12c-.25-.52-.46-.69-.82-.71v5c0 1.17 1 .57 1 1.17v.65h-5V38c0-.61 1 0 1-1.17zm3.06 4.93c1.84 0 2.79-.17 2.79-2.83s-.94-2.79-2.79-2.83zM42.11 31.31c0 3.9-2 7.63-6.29 7.63s-6.29-3.73-6.29-7.63 2-7.63 6.29-7.63 6.29 3.73 6.29 7.63zm-6.29-6.54c-2.31 0-2.89 3.12-2.89 6.54s.59 6.54 2.89 6.54 2.89-3.16 2.89-6.54-.58-6.54-2.89-6.54zM45.65 34.79l-.36 1.15a4 4 0 0 0-.15.9c0 .9 1.11.61 1.11 1.28v.52h-3.72v-.52c0-.67.84-.13 1.32-1.7l3-9.79a1.46 1.46 0 0 0 .08-.48 4.31 4.31 0 0 0-.31-1.15c0-.15 0-.21.25-.34l1.57-.86a1 1 0 0 1 .48-.17c.15 0 .27.1.34.31l4.36 12.89c.34 1 1.13.61 1.13 1.13v.63h-5.2v-.42c0-.86 1-.48 1-1.11a2.61 2.61 0 0 0-.17-.75l-.54-1.57zm3.71-1.3l-1.7-5.34-1.55 5.34zM55.59 33.53h.46c1.57 0 .65 4.32 3.9 4.32a2.35 2.35 0 0 0 2.43-2.54c0-3.69-6.73-2.6-6.73-7.46a4.22 4.22 0 0 1 4.21-4.17c1.61 0 2.2.75 2.64.75a.57.57 0 0 0 .57-.31h1v4.36h-.63c-1.4 0-.84-3.71-3.29-3.71a1.72 1.72 0 0 0-1.82 1.78C58.29 29.8 65 29 65 33.91a4.89 4.89 0 0 1-5 5 8.55 8.55 0 0 1-3-.71.37.37 0 0 0-.4.29h-1.01zM70.43 25.06h-1c-1.15 0-1.36.76-1.51 1.53s-.21 1.53-1 1.53h-.4v-4.44l.75.19A3.29 3.29 0 0 0 68 24h7.92a3.29 3.29 0 0 0 .78-.1l.75-.19v4.44h-.4c-.82 0-.88-.77-1-1.53s-.36-1.53-1.51-1.53h-1v11.73c0 1.17 1.13.57 1.13 1.17v.65H69.3V38c0-.61 1.13 0 1.13-1.17zM83.74 38.64V38c0-.61 1 0 1-1.17v-11c0-1.17-1-.57-1-1.17V24H90c2.89 0 4.38 1.28 4.38 3.4A3.41 3.41 0 0 1 91 30.76c2 .15 4.2 1.24 4.2 3.9 0 1.89-1.3 4-5.09 4zm4-8.36h.92a2.36 2.36 0 0 0 2.56-2.58c0-1.7-.8-2.64-2.56-2.64h-.92zm0 7.06h1.11c2.16 0 2.93-1.07 2.93-2.56 0-2.18-1-3.21-2.93-3.21h-1.09zM101.37 24v.65c0 .61-1 0-1 1.17v8.32c0 2.2.42 3.52 2.68 3.52s2.75-1.07 2.75-3.16v-8.7c0-1.17-1-.57-1-1.17V24h3.4v.65c0 .61-1 0-1 1.17v8.68c0 3.1-1.49 4.46-5.24 4.46-3.46 0-4.88-1.53-4.88-4.3V25.8c0-1.17-1-.57-1-1.17V24zM112.94 25.06h-1c-1.15 0-1.36.76-1.51 1.53s-.21 1.53-1 1.53H109v-4.44l.75.19a3.29 3.29 0 0 0 .78.1h7.92a3.29 3.29 0 0 0 .78-.1l.75-.19v4.44h-.4c-.82 0-.88-.77-1-1.53s-.36-1.53-1.51-1.53h-1v11.76c0 1.17 1.13.57 1.13 1.17v.65h-5.32V38c0-.61 1.13 0 1.13-1.17zM124.59 25.06h-1c-1.15 0-1.36.76-1.51 1.53s-.21 1.53-1 1.53h-.4v-4.44l.75.19a3.29 3.29 0 0 0 .78.1h7.92a3.29 3.29 0 0 0 .78-.1l.75-.19v4.44h-.4c-.82 0-.88-.77-1-1.53s-.36-1.53-1.51-1.53h-1v11.76c0 1.17 1.13.57 1.13 1.17v.65h-5.32V38c0-.61 1.13 0 1.13-1.17zM133.63 25.8c0-1.17-1-.57-1-1.17V24h7.13a6.1 6.1 0 0 0 2.33-.29V28h-.5c-1.51 0-.17-3-3.06-3h-1.87v5.39h.8c2 0 .92-1.53 2-1.53h.59v4.23h-.59c-1.09 0 0-1.53-2-1.53h-.8v5.93h2c2.16 0 2.56-1 2.75-1.84.13-.61.13-1.47.92-1.47h.5v4.4h-10.17V38c0-.61 1 0 1-1.17zM145.28 25.8c0-1.17-1-.57-1-1.17V24H150c3.29 0 4.28 1.95 4.28 3.71a3.29 3.29 0 0 1-3.42 3.54h-.34v.13c1.26.25 1.49.69 2 1.66l2 3.84c.57 1.13 1.17.94 1.17 1.24v.57H152l-2.83-6.12c-.25-.52-.46-.69-.82-.71v5c0 1.17 1 .57 1 1.17v.65h-5V38c0-.61 1 0 1-1.17zm3.06 4.93c1.84 0 2.79-.17 2.79-2.83s-.94-2.79-2.79-2.83z"/><path class="cls-1" d="M165.13 33v-7.2c0-1.17-1-.57-1-1.24V24h3.52v.59c0 .67-1 .06-1 1.24v12.81h-1.45l-7-12v10.18c0 1.17 1 .57 1 1.24v.59h-3.52v-.59c0-.67 1-.06 1-1.24v-11c0-1.17-.9-.57-.9-1.17V24h4.17zM173.6 24v.65c0 .61-1 0-1 1.17v8.32c0 2.2.42 3.52 2.68 3.52s2.75-1.07 2.75-3.16v-8.7c0-1.17-1-.57-1-1.17V24h3.4v.65c0 .61-1 0-1 1.17v8.68c0 3.1-1.49 4.46-5.24 4.46-3.46 0-4.88-1.53-4.88-4.3V25.8c0-1.17-1-.57-1-1.17V24zM185.17 25.06h-1c-1.15 0-1.36.76-1.51 1.53s-.21 1.53-1 1.53h-.4v-4.44l.75.19a3.29 3.29 0 0 0 .78.1h7.92a3.29 3.29 0 0 0 .78-.1l.75-.19v4.44h-.4c-.82 0-.88-.77-1-1.53s-.36-1.53-1.51-1.53h-1v11.76c0 1.17 1.13.57 1.13 1.17v.65H184V38c0-.61 1.13 0 1.13-1.17zM198.87 33.53h.46c1.57 0 .65 4.32 3.9 4.32a2.35 2.35 0 0 0 2.43-2.54c0-3.69-6.73-2.6-6.73-7.46a4.22 4.22 0 0 1 4.21-4.17c1.61 0 2.2.75 2.64.75a.57.57 0 0 0 .57-.31h1v4.36h-.63c-1.4 0-.84-3.71-3.29-3.71a1.72 1.72 0 0 0-1.82 1.78c0 3.25 6.73 2.43 6.73 7.36a4.89 4.89 0 0 1-5 5 8.55 8.55 0 0 1-3-.71.37.37 0 0 0-.4.29h-1.09zM223.13 41.41a3.5 3.5 0 0 1-3 1.43c-3.23 0-4.23-3.52-5.6-4-3.19-1.17-4.46-4.3-4.46-7.5 0-3.9 2-7.63 6.29-7.63s6.29 3.73 6.29 7.63-1.95 7.13-6.2 7.63c2.54.55 4 2.14 5.05 2.14a1.39 1.39 0 0 0 .86-.38zm-9.62-10.1c0 3.42.59 6.54 2.89 6.54s2.89-3.16 2.89-6.54-.59-6.54-2.89-6.54-2.89 3.12-2.89 6.54zM228.93 24v.65c0 .61-1 0-1 1.17v8.32c0 2.2.42 3.52 2.68 3.52s2.75-1.07 2.75-3.16v-8.7c0-1.17-1-.57-1-1.17V24h3.4v.65c0 .61-1 0-1 1.17v8.68c0 3.1-1.49 4.46-5.24 4.46-3.46 0-4.88-1.53-4.88-4.3V25.8c0-1.17-1-.57-1-1.17V24zM239 34.79l-.36 1.15a4 4 0 0 0-.15.9c0 .9 1.11.61 1.11 1.28v.52h-3.73v-.52c0-.67.84-.13 1.32-1.7l3-9.79a1.46 1.46 0 0 0 .08-.48A4.31 4.31 0 0 0 240 25c0-.15 0-.21.25-.34l1.57-.86a1 1 0 0 1 .48-.17c.15 0 .27.1.34.31L247 36.88c.34 1 1.13.61 1.13 1.13v.63h-5.2v-.42c0-.86 1-.48 1-1.11a2.61 2.61 0 0 0-.17-.75l-.54-1.57zm3.71-1.3L241 28.14l-1.55 5.34zM249 33.53h.46c1.57 0 .65 4.32 3.9 4.32a2.35 2.35 0 0 0 2.43-2.54c0-3.69-6.73-2.6-6.73-7.46a4.22 4.22 0 0 1 4.21-4.17c1.61 0 2.2.75 2.64.75a.57.57 0 0 0 .57-.31h1v4.36h-.63c-1.4 0-.84-3.71-3.29-3.71a1.72 1.72 0 0 0-1.82 1.78c0 3.25 6.73 2.43 6.73 7.36a4.89 4.89 0 0 1-5 5 8.55 8.55 0 0 1-3-.71.37.37 0 0 0-.4.29H249zM264.25 31.69v5.13c0 1.17 1 .57 1 1.17v.65h-5V38c0-.61 1 0 1-1.17v-11c0-1.17-1-.57-1-1.17V24h5v.65c0 .61-1 0-1 1.17v4.59h4.51V25.8c0-1.17-1-.57-1-1.17V24h5v.65c0 .61-1 0-1 1.17v11c0 1.17 1 .57 1 1.17v.65h-5V38c0-.61 1 0 1-1.17v-5.14zM70.86 71.34v-1.05c0-1 1.57 0 1.57-1.91V50.46c0-1.91-1.57-.92-1.57-1.91V47.5H81c4.7 0 7.12 2.08 7.12 5.52s-2.66 5.25-5.55 5.52v.07c3.37.17 6.88 1.91 6.88 6.27 0 3.07-2.11 6.47-8.28 6.47zm6.54-13.59h1.5c3 0 4.16-1.94 4.16-4.19 0-2.76-1.3-4.29-4.16-4.29h-1.5zm0 11.48h1.8c3.51 0 4.77-1.74 4.77-4.16 0-3.54-1.6-5.21-4.77-5.21h-1.8zM93.78 50.46c0-1.91-1.57-.92-1.57-1.91V47.5h8.11v1.06c0 1-1.57 0-1.57 1.91v19.1h1.94c3.51 0 4.16-1.57 4.46-3 .2-1 .2-2.38 1.5-2.38h.82v7.15H92.22v-1.05c0-1 1.57 0 1.57-1.91zM116.54 47.5v1.06c0 1-1.57 0-1.57 1.91V64c0 3.58.68 5.72 4.36 5.72s4.46-1.74 4.46-5.14V50.46c0-1.91-1.57-.92-1.57-1.91V47.5h5.52v1.06c0 1-1.57 0-1.57 1.91v14.1c0 5-2.42 7.26-8.52 7.26-5.62 0-7.94-2.49-7.94-7V50.46c0-1.91-1.57-.92-1.57-1.91V47.5zM131.09 50.46c0-1.91-1.57-.92-1.57-1.91V47.5h11.58a9.93 9.93 0 0 0 3.78-.48v7.05h-.82c-2.45 0-.27-4.8-5-4.8h-3V58h1.3c3.27 0 1.5-2.49 3.27-2.49h1v6.88h-1c-1.77 0 0-2.49-3.27-2.49h-1.3v9.64h3.3c3.51 0 4.16-1.57 4.46-3 .21-1 .21-2.38 1.5-2.38h.82v7.15h-16.62v-1.02c0-1 1.57 0 1.57-1.91zM173.09 55.74h-1c-2 0-.89-6.95-4.94-6.95-3.71 0-4.67 5.08-4.67 10.22 0 5.62 1 10.7 4.7 10.7s4.22-4.16 4.43-5.79l2 1.26c-.61 4.19-2.93 6.64-6.4 6.64-7 0-10.22-6.06-10.22-12.37s3.2-12.4 9.13-12.43c2.83 0 4.39 1.7 4.84 1.7s.61-.41.72-.68h1.43zM182.46 60v8.35c0 1.91 1.57.92 1.57 1.91v1.06h-8.11v-1.03c0-1 1.57 0 1.57-1.91V50.46c0-1.91-1.57-.92-1.57-1.91V47.5H184v1.06c0 1-1.57 0-1.57 1.91v7.46h7.32v-7.47c0-1.91-1.57-.92-1.57-1.91V47.5h8.11v1.06c0 1-1.57 0-1.57 1.91v17.91c0 1.91 1.57.92 1.57 1.91v1.06h-8.11v-1.06c0-1 1.57 0 1.57-1.91V60zM200.21 50.46c0-1.91-1.57-.92-1.57-1.91V47.5h11.58A9.93 9.93 0 0 0 214 47v7.05h-.82c-2.45 0-.27-4.8-5-4.8h-3V58h1.3c3.27 0 1.5-2.49 3.27-2.49h1v6.88h-1c-1.77 0 0-2.49-3.27-2.49h-1.3v9.64h3.3c3.51 0 4.16-1.57 4.46-3 .21-1 .21-2.38 1.5-2.38h.82v7.15h-16.62v-1.02c0-1 1.57 0 1.57-1.91zM219.15 50.46c0-1.91-1.57-.92-1.57-1.91V47.5h11.58A9.93 9.93 0 0 0 233 47v7.05h-.82c-2.45 0-.27-4.8-5-4.8h-3V58h1.3c3.27 0 1.5-2.49 3.27-2.49h1v6.88h-1c-1.77 0 0-2.49-3.27-2.49h-1.3v9.64h3.3c3.51 0 4.16-1.57 4.46-3 .21-1 .21-2.38 1.5-2.38h.82v7.15h-16.67v-1.02c0-1 1.57 0 1.57-1.91zM237.17 63h.75c2.56 0 1.06 7 6.34 7a3.82 3.82 0 0 0 4-4.12c0-6-10.94-4.22-10.94-12.13a6.86 6.86 0 0 1 6.8-6.75c2.62 0 3.58 1.23 4.29 1.23a.92.92 0 0 0 .92-.51h1.57v7.09h-1c-2.28 0-1.36-6-5.35-6a2.79 2.79 0 0 0-3 2.9c0 5.28 10.94 4 10.94 12a8 8 0 0 1-8.07 8.18c-2.79 0-4.33-1.16-4.84-1.16a.6.6 0 0 0-.65.48h-1.77zM257 50.46c0-1.91-1.57-.92-1.57-1.91V47.5h11.58a9.93 9.93 0 0 0 3.78-.48v7.05H270c-2.45 0-.27-4.8-5-4.8h-3V58h1.3c3.27 0 1.5-2.49 3.27-2.49h1v6.88h-1c-1.77 0 0-2.49-3.27-2.49H262v9.64h3.3c3.51 0 4.16-1.57 4.46-3 .21-1 .21-2.38 1.5-2.38h.82v7.15h-16.61v-1.02c0-1 1.57 0 1.57-1.91z"/><path class="cls-2" d="M289 2.67a6.3 6.3 0 0 0-3-.74c-1.94 0-4.25.79-7 2.39a8.37 8.37 0 0 0-2.05-1 9.68 9.68 0 0 1-2.51-1.26l-.15-.23L274 2a39.88 39.88 0 0 1-3.25 2.45 10.33 10.33 0 0 1-3.09 1.36h-26.03v1.46h26.29c1.55.19 1.65.44 1.65.45l.05.17h.19a2.59 2.59 0 0 0 .58-.13 6.81 6.81 0 0 0 2.11 1.04 9.66 9.66 0 0 1 2.5 1.26l.15.23.21-.19C277 8.71 284 3.52 287.55 3.52a2.52 2.52 0 0 1 .81.12 3.17 3.17 0 0 1 1.91 1.72 2.91 2.91 0 0 1-.27 2.56 2 2 0 0 1-1 .94 2.47 2.47 0 0 0 .42-1.49 2.68 2.68 0 0 0-2.75-2.5h-.11a2.67 2.67 0 0 0-2.64 2.7A2.8 2.8 0 0 0 286 10a4.77 4.77 0 0 0 2.66-.09 3.64 3.64 0 0 0 2-1.66A4 4 0 0 0 289 2.67zm-12.41 3.16l-.33.23a7.1 7.1 0 0 1-3.75 1.65 2.82 2.82 0 0 1-1.3-.34c.41-.23.82-.52 1.22-.8l.73-.51a7.09 7.09 0 0 1 3.75-1.65 2.83 2.83 0 0 1 1.32.35c-.53.33-1.08.68-1.64 1.07zM51.1 5.83H24a10.33 10.33 0 0 1-3.09-1.36A39.52 39.52 0 0 1 17.68 2l-.21-.18-.15.23a9.68 9.68 0 0 1-2.51 1.26 8.37 8.37 0 0 0-2.05 1c-2.74-1.6-5-2.39-7-2.39a6.3 6.3 0 0 0-3 .74 4 4 0 0 0-1.7 5.57 3.64 3.64 0 0 0 2 1.66 4.77 4.77 0 0 0 2.7.11 2.8 2.8 0 0 0 2.05-2.42 2.51 2.51 0 0 0-.73-1.87 2.8 2.8 0 0 0-1.91-.83h-.11a2.68 2.68 0 0 0-2.75 2.5 2.48 2.48 0 0 0 .42 1.49 2.05 2.05 0 0 1-1-.94 2.91 2.91 0 0 1-.24-2.57 3.17 3.17 0 0 1 1.88-1.73 2.53 2.53 0 0 1 .81-.12c3.53 0 10.59 5.2 12.18 6.59l.21.19.15-.23a9.64 9.64 0 0 1 2.5-1.26 6.79 6.79 0 0 0 2.11-1.06 2.59 2.59 0 0 0 .58.13h.19l.06-.17s.1-.26 1.62-.45H51.1zM19.22 7.72a7.1 7.1 0 0 1-3.75-1.65l-.34-.23c-.57-.39-1.11-.74-1.65-1.07a2.83 2.83 0 0 1 1.32-.35 7.1 7.1 0 0 1 3.75 1.65l.74.51c.4.28.81.57 1.22.8a2.82 2.82 0 0 1-1.29.34z"/><path class="cls-1" d="M67.85 0a6 6 0 0 1 4.29 1.63 5.41 5.41 0 0 1 1.71 4.09 5.33 5.33 0 0 1-1.73 4.07 6.15 6.15 0 0 1-4.36 1.61 5.8 5.8 0 0 1-4.19-1.61 5.37 5.37 0 0 1-1.67-4 5.49 5.49 0 0 1 1.69-4.12A5.88 5.88 0 0 1 67.85 0zm.06 1.51a4.32 4.32 0 0 0-3.14 1.19 4.07 4.07 0 0 0-1.23 3 4 4 0 0 0 1.23 3 4.58 4.58 0 0 0 6.19 0 4.07 4.07 0 0 0 1.24-3 4 4 0 0 0-1.24-3 4.23 4.23 0 0 0-3.05-1.19zM85.34.16h1.6v6.31a7.5 7.5 0 0 1-.19 1.93 4.19 4.19 0 0 1-.46 1.09 3.43 3.43 0 0 1-.67.78 5.1 5.1 0 0 1-3.45 1.14 5.16 5.16 0 0 1-3.49-1.13 3.63 3.63 0 0 1-.68-.79 4.06 4.06 0 0 1-.45-1.06 7.83 7.83 0 0 1-.18-2V.16H79v6.31a4.68 4.68 0 0 0 .36 2.18 2.55 2.55 0 0 0 1.09 1 3.78 3.78 0 0 0 1.73.37 3.49 3.49 0 0 0 2.31-.74 2.29 2.29 0 0 0 .68-.94 5.76 5.76 0 0 0 .21-1.85zM91 11.28V.16h2.79a4 4 0 0 1 2.65.84 2.8 2.8 0 0 1 1 2.26A2.9 2.9 0 0 1 97 4.93 2.9 2.9 0 0 1 95.56 6a4.87 4.87 0 0 1 1 1A19.31 19.31 0 0 1 98 9.05q.58.95.93 1.42l.59.8h-1.86l-.48-.73-.1-.14-.31-.4-.49-.81-.53-.87a8.69 8.69 0 0 0-.9-1.09 3.46 3.46 0 0 0-.74-.58A2.5 2.5 0 0 0 93 6.44h-.41v4.84zm2.07-9.76h-.48V5h.6a4.52 4.52 0 0 0 1.66-.21 1.57 1.57 0 0 0 .7-.62 1.82 1.82 0 0 0 .25-1 1.7 1.7 0 0 0-.28-1 1.49 1.49 0 0 0-.78-.6 5.63 5.63 0 0 0-1.69-.06zM108.89.16h6.3v1.42h-4.71V5H115v1.39h-4.55v3.45h4.86v1.42h-6.45zM126.88.16h1.92l-4.45 5.36 4.76 5.75h-1.92l-3.79-4.6-3.82 4.61h-1.94l4.78-5.76L118 .16h1.94l3.49 4.25zM141.74 8.7v1.75a8.31 8.31 0 0 1-4 1 6.23 6.23 0 0 1-3.16-.75 5.5 5.5 0 0 1-2.05-2.06 5.59 5.59 0 0 1-.76-2.84 5.42 5.42 0 0 1 1.73-4.08A5.94 5.94 0 0 1 137.73 0a10 10 0 0 1 3.89.92v1.72a7.65 7.65 0 0 0-3.81-1.11 4.41 4.41 0 0 0-3.17 1.21 4 4 0 0 0-1.26 3 4 4 0 0 0 1.24 3 4.43 4.43 0 0 0 3.17 1.18 7.2 7.2 0 0 0 3.95-1.22zM145.49.16h6.3v1.42h-4.71V5h4.55v1.39h-4.55v3.45h4.86v1.42h-6.45zM155.34 11.28V.14h3.52a3.64 3.64 0 0 1 2.54.86 3 3 0 0 1 .95 2.31 3.09 3.09 0 0 1-.48 1.69 2.78 2.78 0 0 1-1.33 1.09 6.78 6.78 0 0 1-2.42.34h-1.18v4.82zm3.25-9.72h-1.65V5h1.74a2.2 2.2 0 0 0 1.5-.46 1.64 1.64 0 0 0 .53-1.31q0-1.67-2.12-1.67zM164.58.14h9.29v1.42H170v9.72h-1.6V1.56h-3.81zM177.18.16h1.59v11.12h-1.59zM188.49 0a6 6 0 0 1 4.29 1.63 5.41 5.41 0 0 1 1.71 4.09 5.33 5.33 0 0 1-1.73 4.07 6.15 6.15 0 0 1-4.36 1.61 5.8 5.8 0 0 1-4.19-1.61 5.37 5.37 0 0 1-1.67-4 5.49 5.49 0 0 1 1.69-4.12A5.88 5.88 0 0 1 188.49 0zm.06 1.51a4.32 4.32 0 0 0-3.14 1.19 4.07 4.07 0 0 0-1.23 3 4 4 0 0 0 1.23 3 4.58 4.58 0 0 0 6.19 0 4.07 4.07 0 0 0 1.24-3 4 4 0 0 0-1.24-3 4.23 4.23 0 0 0-3.05-1.19zM207.07.16h1.51v11.12h-1.37l-7.43-8.56v8.56h-1.5V.16h1.29l7.5 8.63zM216.31.1h1.12l5 11.18h-1.63L219.3 8h-4.74l-1.39 3.29h-1.64zm2.34 6.47l-1.79-4-1.66 4zM225.42.16H227v9.67h5v1.45h-6.6z"/><path class="cls-3" d="M54.79 54.82l-.48-.92-1-.26-1.22.31-.18.26v7.21l.26.22 1.14-.31 1-.74.48-1.09zm1.14 9.27l-8.31 2.1.48-1.75V53.51L47.62 52l8.31-2.1 2.67 2.14v8.53zm-11.11-9.75v12.55l-2.58.66L38 61.07l-.39-.92.13 1V67l.44 1.53-4.2 1 .48-1.75v-11l-.57-1.44 4.11-1 3.32 5.12.39.92-.09-1v-4.21l-.48-1.53 4.11-1.05zm-18.06 6.43l-.09-.66-.09.7-1 4.59.18.18 1.75-.44.18-.26zM28.51 71l.22-1.66-.26-1.18-.22-.18-3.15.79-.18.26-.31 1.31.17 1.57-4.4 1.09.83-1.88 2.67-11.89-.27-1.23 6.47-1.62-.31 1.4 2.67 10.58.79 1.44zm31.61-3.41h-.87l-15.74 3.89-2.62 1.31-1.75 1.75-.44.87.44.87H40l.87-.44.44-.88-.44-.87h.87l.88.87v1.31L40.88 78h-2.62l-1.31-1.31v-2.37l3.06-2-15.74 3.97H19V75l1.75.44L61 65.36V68zm-.87-21L19 56.61V54l.87.44h.88l15.74-3.94 2.62-1.31 1.75-1.75.44-.87-.44-.87H40l-.88.44-.42.86.44.87h-.87l-.88-.87v-1.32l1.75-1.75h2.62l1.31 1.31v2.41l-3.06 2 15.74-3.94H61V47zM17.87 24.8c0-1.17-1-.57-1-1.17V23h5.68c3.29 0 4.28 1.95 4.28 3.71a3.29 3.29 0 0 1-3.42 3.54h-.34v.13c1.26.25 1.49.69 2 1.66l2 3.84c.57 1.13 1.17.94 1.17 1.24v.57h-3.67l-2.83-6.12c-.25-.52-.46-.69-.82-.71v5c0 1.17 1 .57 1 1.17v.65h-5V37c0-.61 1 0 1-1.17zm3.06 4.93c1.84 0 2.79-.17 2.79-2.83s-.94-2.79-2.79-2.83zM41.11 30.31c0 3.9-2 7.63-6.29 7.63s-6.29-3.73-6.29-7.63 2-7.63 6.29-7.63 6.29 3.73 6.29 7.63zm-6.29-6.54c-2.31 0-2.89 3.12-2.89 6.54s.59 6.54 2.89 6.54 2.89-3.16 2.89-6.54-.58-6.54-2.89-6.54zM44.65 33.79l-.36 1.15a4 4 0 0 0-.15.9c0 .9 1.11.61 1.11 1.28v.52h-3.72v-.52c0-.67.84-.13 1.32-1.7l3-9.79a1.46 1.46 0 0 0 .08-.48 4.31 4.31 0 0 0-.31-1.15c0-.15 0-.21.25-.34l1.57-.86a1 1 0 0 1 .48-.17c.15 0 .27.1.34.31l4.36 12.89c.34 1 1.13.61 1.13 1.13v.63h-5.2v-.42c0-.86 1-.48 1-1.11a2.61 2.61 0 0 0-.17-.75l-.54-1.57zm3.71-1.3l-1.7-5.34-1.55 5.34zM54.59 32.53h.46c1.57 0 .65 4.32 3.9 4.32a2.35 2.35 0 0 0 2.43-2.54c0-3.69-6.73-2.6-6.73-7.46a4.22 4.22 0 0 1 4.21-4.17c1.61 0 2.2.75 2.64.75a.57.57 0 0 0 .57-.31h1v4.36h-.63c-1.4 0-.84-3.71-3.29-3.71a1.72 1.72 0 0 0-1.82 1.78C57.29 28.8 64 28 64 32.91a4.89 4.89 0 0 1-5 5 8.55 8.55 0 0 1-3-.71.37.37 0 0 0-.4.29h-1.01zM69.43 24.06h-1c-1.15 0-1.36.76-1.51 1.53s-.21 1.53-1 1.53h-.4v-4.44l.75.19A3.29 3.29 0 0 0 67 23h7.92a3.29 3.29 0 0 0 .78-.1l.75-.19v4.44h-.4c-.82 0-.88-.77-1-1.53s-.36-1.53-1.51-1.53h-1v11.73c0 1.17 1.13.57 1.13 1.17v.65H68.3V37c0-.61 1.13 0 1.13-1.17zM82.74 37.64V37c0-.61 1 0 1-1.17v-11c0-1.17-1-.57-1-1.17V23H89c2.89 0 4.38 1.28 4.38 3.4A3.41 3.41 0 0 1 90 29.76c2 .15 4.2 1.24 4.2 3.9 0 1.89-1.3 4-5.09 4zm4-8.36h.92a2.36 2.36 0 0 0 2.56-2.58c0-1.7-.8-2.64-2.56-2.64h-.92zm0 7.06h1.11c2.16 0 2.93-1.07 2.93-2.56 0-2.18-1-3.21-2.93-3.21h-1.09zM100.37 23v.65c0 .61-1 0-1 1.17v8.32c0 2.2.42 3.52 2.68 3.52s2.75-1.07 2.75-3.16v-8.7c0-1.17-1-.57-1-1.17V23h3.4v.65c0 .61-1 0-1 1.17v8.68c0 3.1-1.49 4.46-5.24 4.46-3.46 0-4.88-1.53-4.88-4.3V24.8c0-1.17-1-.57-1-1.17V23zM111.94 24.06h-1c-1.15 0-1.36.76-1.51 1.53s-.21 1.53-1 1.53H108v-4.44l.75.19a3.29 3.29 0 0 0 .78.1h7.92a3.29 3.29 0 0 0 .78-.1l.75-.19v4.44h-.4c-.82 0-.88-.77-1-1.53s-.36-1.53-1.51-1.53h-1v11.76c0 1.17 1.13.57 1.13 1.17v.65h-5.32V37c0-.61 1.13 0 1.13-1.17zM123.59 24.06h-1c-1.15 0-1.36.76-1.51 1.53s-.21 1.53-1 1.53h-.4v-4.44l.75.19a3.29 3.29 0 0 0 .78.1h7.92a3.29 3.29 0 0 0 .78-.1l.75-.19v4.44h-.4c-.82 0-.88-.77-1-1.53s-.36-1.53-1.51-1.53h-1v11.76c0 1.17 1.13.57 1.13 1.17v.65h-5.32V37c0-.61 1.13 0 1.13-1.17zM132.63 24.8c0-1.17-1-.57-1-1.17V23h7.13a6.1 6.1 0 0 0 2.33-.29V27h-.5c-1.51 0-.17-3-3.06-3h-1.87v5.39h.8c2 0 .92-1.53 2-1.53h.59v4.23h-.59c-1.09 0 0-1.53-2-1.53h-.8v5.93h2c2.16 0 2.56-1 2.75-1.84.13-.61.13-1.47.92-1.47h.5v4.4h-10.17V37c0-.61 1 0 1-1.17zM144.28 24.8c0-1.17-1-.57-1-1.17V23H149c3.29 0 4.28 1.95 4.28 3.71a3.29 3.29 0 0 1-3.42 3.54h-.34v.13c1.26.25 1.49.69 2 1.66l2 3.84c.57 1.13 1.17.94 1.17 1.24v.57H151l-2.83-6.12c-.25-.52-.46-.69-.82-.71v5c0 1.17 1 .57 1 1.17v.65h-5V37c0-.61 1 0 1-1.17zm3.06 4.93c1.84 0 2.79-.17 2.79-2.83s-.94-2.79-2.79-2.83z"/><path class="cls-3" d="M164.13 32v-7.2c0-1.17-1-.57-1-1.24V23h3.52v.59c0 .67-1 .06-1 1.24v12.81h-1.45l-7-12v10.18c0 1.17 1 .57 1 1.24v.59h-3.52v-.59c0-.67 1-.06 1-1.24v-11c0-1.17-.9-.57-.9-1.17V23h4.17zM172.6 23v.65c0 .61-1 0-1 1.17v8.32c0 2.2.42 3.52 2.68 3.52s2.75-1.07 2.75-3.16v-8.7c0-1.17-1-.57-1-1.17V23h3.4v.65c0 .61-1 0-1 1.17v8.68c0 3.1-1.49 4.46-5.24 4.46-3.46 0-4.88-1.53-4.88-4.3V24.8c0-1.17-1-.57-1-1.17V23zM184.17 24.06h-1c-1.15 0-1.36.76-1.51 1.53s-.21 1.53-1 1.53h-.4v-4.44l.75.19a3.29 3.29 0 0 0 .78.1h7.92a3.29 3.29 0 0 0 .78-.1l.75-.19v4.44h-.4c-.82 0-.88-.77-1-1.53s-.36-1.53-1.51-1.53h-1v11.76c0 1.17 1.13.57 1.13 1.17v.65H183V37c0-.61 1.13 0 1.13-1.17zM197.87 32.53h.46c1.57 0 .65 4.32 3.9 4.32a2.35 2.35 0 0 0 2.43-2.54c0-3.69-6.73-2.6-6.73-7.46a4.22 4.22 0 0 1 4.21-4.17c1.61 0 2.2.75 2.64.75a.57.57 0 0 0 .57-.31h1v4.36h-.63c-1.4 0-.84-3.71-3.29-3.71a1.72 1.72 0 0 0-1.82 1.78c0 3.25 6.73 2.43 6.73 7.36a4.89 4.89 0 0 1-5 5 8.55 8.55 0 0 1-3-.71.37.37 0 0 0-.4.29h-1.09zM222.13 40.41a3.5 3.5 0 0 1-3 1.43c-3.23 0-4.23-3.52-5.6-4-3.19-1.17-4.46-4.3-4.46-7.5 0-3.9 2-7.63 6.29-7.63s6.29 3.73 6.29 7.63-1.95 7.13-6.2 7.63c2.54.55 4 2.14 5.05 2.14a1.39 1.39 0 0 0 .86-.38zm-9.62-10.1c0 3.42.59 6.54 2.89 6.54s2.89-3.16 2.89-6.54-.59-6.54-2.89-6.54-2.89 3.12-2.89 6.54zM227.93 23v.65c0 .61-1 0-1 1.17v8.32c0 2.2.42 3.52 2.68 3.52s2.75-1.07 2.75-3.16v-8.7c0-1.17-1-.57-1-1.17V23h3.4v.65c0 .61-1 0-1 1.17v8.68c0 3.1-1.49 4.46-5.24 4.46-3.46 0-4.88-1.53-4.88-4.3V24.8c0-1.17-1-.57-1-1.17V23zM238 33.79l-.36 1.15a4 4 0 0 0-.15.9c0 .9 1.11.61 1.11 1.28v.52h-3.73v-.52c0-.67.84-.13 1.32-1.7l3-9.79a1.46 1.46 0 0 0 .08-.48A4.31 4.31 0 0 0 239 24c0-.15 0-.21.25-.34l1.57-.86a1 1 0 0 1 .48-.17c.15 0 .27.1.34.31L246 35.88c.34 1 1.13.61 1.13 1.13v.63h-5.2v-.42c0-.86 1-.48 1-1.11a2.61 2.61 0 0 0-.17-.75l-.54-1.57zm3.71-1.3L240 27.14l-1.55 5.34zM248 32.53h.46c1.57 0 .65 4.32 3.9 4.32a2.35 2.35 0 0 0 2.43-2.54c0-3.69-6.73-2.6-6.73-7.46a4.22 4.22 0 0 1 4.21-4.17c1.61 0 2.2.75 2.64.75a.57.57 0 0 0 .57-.31h1v4.36h-.63c-1.4 0-.84-3.71-3.29-3.71a1.72 1.72 0 0 0-1.82 1.78c0 3.25 6.73 2.43 6.73 7.36a4.89 4.89 0 0 1-5 5 8.55 8.55 0 0 1-3-.71.37.37 0 0 0-.4.29H248zM263.25 30.69v5.13c0 1.17 1 .57 1 1.17v.65h-5V37c0-.61 1 0 1-1.17v-11c0-1.17-1-.57-1-1.17V23h5v.65c0 .61-1 0-1 1.17v4.59h4.51V24.8c0-1.17-1-.57-1-1.17V23h5v.65c0 .61-1 0-1 1.17v11c0 1.17 1 .57 1 1.17v.65h-5V37c0-.61 1 0 1-1.17v-5.14zM69.86 70.34v-1.05c0-1 1.57 0 1.57-1.91V49.46c0-1.91-1.57-.92-1.57-1.91V46.5H80c4.7 0 7.12 2.08 7.12 5.52s-2.66 5.25-5.55 5.52v.07c3.37.17 6.88 1.91 6.88 6.27 0 3.07-2.11 6.47-8.28 6.47zm6.54-13.59h1.5c3 0 4.16-1.94 4.16-4.19 0-2.76-1.3-4.29-4.16-4.29h-1.5zm0 11.48h1.8c3.51 0 4.77-1.74 4.77-4.16 0-3.54-1.6-5.21-4.77-5.21h-1.8zM92.78 49.46c0-1.91-1.57-.92-1.57-1.91V46.5h8.11v1.06c0 1-1.57 0-1.57 1.91v19.1h1.95c3.51 0 4.16-1.57 4.46-3 .2-1 .2-2.38 1.5-2.38h.82v7.15H91.22v-1.05c0-1 1.57 0 1.57-1.91zM115.54 46.5v1.06c0 1-1.57 0-1.57 1.91V63c0 3.58.68 5.72 4.36 5.72s4.46-1.74 4.46-5.14V49.46c0-1.91-1.57-.92-1.57-1.91V46.5h5.52v1.06c0 1-1.57 0-1.57 1.91v14.1c0 5-2.42 7.26-8.52 7.26-5.62 0-7.94-2.49-7.94-7V49.46c0-1.91-1.57-.92-1.57-1.91V46.5zM130.09 49.46c0-1.91-1.57-.92-1.57-1.91V46.5h11.58a9.93 9.93 0 0 0 3.78-.48v7.05h-.82c-2.45 0-.27-4.8-5-4.8h-3V57h1.3c3.27 0 1.5-2.49 3.27-2.49h1v6.88h-1c-1.77 0 0-2.49-3.27-2.49h-1.3v9.64h3.3c3.51 0 4.16-1.57 4.46-3 .21-1 .21-2.38 1.5-2.38h.82v7.15h-16.62v-1.02c0-1 1.57 0 1.57-1.91zM172.09 54.74h-1c-2 0-.89-6.95-4.94-6.95-3.71 0-4.67 5.08-4.67 10.22 0 5.62 1 10.7 4.7 10.7s4.22-4.16 4.43-5.79l2 1.26c-.61 4.19-2.93 6.64-6.4 6.64-7 0-10.22-6.06-10.22-12.37s3.2-12.4 9.13-12.43c2.83 0 4.39 1.7 4.84 1.7s.61-.41.72-.68h1.43zM181.46 59v8.35c0 1.91 1.57.92 1.57 1.91v1.06h-8.11v-1.03c0-1 1.57 0 1.57-1.91V49.46c0-1.91-1.57-.92-1.57-1.91V46.5H183v1.06c0 1-1.57 0-1.57 1.91v7.46h7.32v-7.47c0-1.91-1.57-.92-1.57-1.91V46.5h8.11v1.06c0 1-1.57 0-1.57 1.91v17.91c0 1.91 1.57.92 1.57 1.91v1.06h-8.11v-1.06c0-1 1.57 0 1.57-1.91V59zM199.21 49.46c0-1.91-1.57-.92-1.57-1.91V46.5h11.58A9.93 9.93 0 0 0 213 46v7.05h-.82c-2.45 0-.27-4.8-5-4.8h-3V57h1.3c3.27 0 1.5-2.49 3.27-2.49h1v6.88h-1c-1.77 0 0-2.49-3.27-2.49h-1.3v9.64h3.3c3.51 0 4.16-1.57 4.46-3 .21-1 .21-2.38 1.5-2.38h.82v7.15h-16.62v-1.02c0-1 1.57 0 1.57-1.91zM218.15 49.46c0-1.91-1.57-.92-1.57-1.91V46.5h11.58A9.93 9.93 0 0 0 232 46v7.05h-.82c-2.45 0-.27-4.8-5-4.8h-3V57h1.3c3.27 0 1.5-2.49 3.27-2.49h1v6.88h-1c-1.77 0 0-2.49-3.27-2.49h-1.3v9.64h3.3c3.51 0 4.16-1.57 4.46-3 .21-1 .21-2.38 1.5-2.38h.82v7.15h-16.67v-1.02c0-1 1.57 0 1.57-1.91zM236.17 62h.75c2.56 0 1.06 7 6.34 7a3.82 3.82 0 0 0 4-4.12c0-6-10.94-4.22-10.94-12.13a6.86 6.86 0 0 1 6.8-6.75c2.62 0 3.58 1.23 4.29 1.23a.92.92 0 0 0 .92-.51h1.57v7.09h-1c-2.28 0-1.36-6-5.35-6a2.79 2.79 0 0 0-3 2.9c0 5.28 10.94 4 10.94 12a8 8 0 0 1-8.07 8.18c-2.79 0-4.33-1.16-4.84-1.16a.6.6 0 0 0-.65.48h-1.77zM256 49.46c0-1.91-1.57-.92-1.57-1.91V46.5h11.58a9.93 9.93 0 0 0 3.78-.48v7.05H269c-2.45 0-.27-4.8-5-4.8h-3V57h1.3c3.27 0 1.5-2.49 3.27-2.49h1v6.88h-1c-1.77 0 0-2.49-3.27-2.49H261v9.64h3.3c3.51 0 4.16-1.57 4.46-3 .21-1 .21-2.38 1.5-2.38h.82v7.15h-16.61v-1.02c0-1 1.57 0 1.57-1.91z"/></g></g></svg>