<svg xmlns="http://www.w3.org/2000/svg" viewBox="0 0 276.91 95.3"><defs><style>.cls-1,.cls-4{fill:#5e3327;}.cls-2,.cls-3{fill:#b83d24;}.cls-3{stroke:#b83d24;stroke-width:0.68px;}.cls-3,.cls-4{stroke-miterlimit:10;}.cls-4{stroke:#5e3327;stroke-width:0.31px;}.cls-5{fill:#d28850;}</style></defs><title>Asset 3</title><g id="Layer_2" data-name="Layer 2"><g id="Layer_1-2" data-name="Layer 1"><path class="cls-1" d="M27.85,65.11c-1.41,0-2,.22-2.36,1.55L21.14,81.43H17.51L14.61,71.9h-.06l-3.21,9.53H7.65L3.11,65.94c-.17-.55-.5-.83-2-.83v-2h8v2H8c-.61,0-.86.36-.86.72a4.7,4.7,0,0,0,.25,1L10,76.8h.06l3.21-9.36-.47-1.3a1.32,1.32,0,0,0-1.38-1h-.92v-2h8.28v2H17.6c-.61,0-1,.19-1,.55a4.15,4.15,0,0,0,.22.94l3,10h.06l2.77-9.81a3.14,3.14,0,0,0,.17-.91c0-.5-.33-.78-1.3-.78H20.23v-2h7.62Z"/><path class="cls-1" d="M29.78,81.43V79.38h1.38c1.14,0,1.58-.28,1.58-1v-12c0-.69-.33-1.25-1.41-1.25H29.78v-2h9.81v2H38.37c-.89,0-1.75.28-1.75,1.33V78A1.19,1.19,0,0,0,38,79.38h1.61v2.05Z"/><path class="cls-1" d="M41.52,81.43V79.38h1.77c.77,0,1.3-.28,1.3-1.22V66.3c0-.83-.36-1.19-1.47-1.19H41.52v-2H51.66v2H50.11c-1.22,0-1.63.28-1.63,1.25v13H53c2.85,0,3.55-1.58,3.8-5.87h2.05v7.89Z"/><path class="cls-1" d="M60.82,79.38H62.6c.64,0,1.19-.22,1.19-.94V66.05c0-.72-.55-.94-1.19-.94H60.82v-2H71.87c5.57,0,9.25,3.1,9.25,9.17s-3.68,9.2-9.25,9.2H60.82Zm6.84,0h3.41c3.21,0,5.71-1.69,5.71-7.15s-2.49-7.12-5.43-7.12H67.66Z"/><path class="cls-1" d="M97.94,78.43c0,.67.67.94,1.25.94h1.72v2.05H92.24V79.38h1.63c.89,0,1.19-.28,1.19-.94V66.05c0-.66-.44-.94-1.08-.94H92.24v-2h8.7l3.74,12h.06l4.21-12h8.37v2h-1.86c-.64,0-1.08.28-1.08.94V78c0,.89.42,1.33,1.19,1.33h1.75v2.05h-9.61V79.38h1.83c.75,0,1.19-.39,1.19-.94V65.83h-.06l-5.29,15.6h-2.3L98,65.83h-.06Z"/><path class="cls-1" d="M119.31,63.06h9.86v2H127.9c-1.41,0-1.69.36-1.69,1.08V76.44c0,1.94,1.44,2.94,3.8,2.94s3.93-1.05,3.93-3.77v-9c0-1.11-.39-1.52-1.66-1.52H131v-2h8.81v2h-1.52c-1.16,0-1.44.36-1.44,1.52v9.2c0,4.88-3.63,6.15-7.2,6.15s-7.29-1.27-7.29-5.54V66.25c0-.86-.64-1.14-1.86-1.14h-1.16Z"/><path class="cls-1" d="M154.62,63.06h1.61v7h-2c-.66-3-2.41-5.18-5.71-5.18-2.58,0-3.63.66-3.63,2.49,0,4.15,12.35,1.05,12.35,8.78,0,4.4-3.43,5.84-7.31,5.84a9.41,9.41,0,0,1-5.76-2.19l-.61,1.63h-1.88V73.92h2.05c.39,3.71,2.66,5.71,6.59,5.71,2.44,0,3.6-1.14,3.6-2.47,0-4.74-12.35-1.16-12.35-9.09,0-3.91,3.52-5.57,6.87-5.57a9.26,9.26,0,0,1,5.26,1.94Z"/><path class="cls-1" d="M158.91,81.43V79.38h1.83c.86,0,1.14-.28,1.14-1V66.11c0-.72-.28-1-1.14-1h-1.83v-2H169v2h-2.11c-.86,0-1.14.28-1.14,1V71h8.12v-4.9c0-.72-.28-1-1.14-1h-2.11v-2h10.08v2h-1.83c-.86,0-1.14.28-1.14,1V78.38c0,.72.28,1,1.14,1h1.83v2.05H170.62V79.38h2.11c.86,0,1.14-.28,1.14-1V73.06h-8.12v5.32c0,.72.28,1,1.14,1H169v2.05Z"/><path class="cls-1" d="M182.84,81.43V79.38h1.94c.86,0,1.14-.28,1.14-1V66.11c0-.72-.28-1-1.14-1h-1.94v-2h12c4,0,5.9,1.58,5.9,4.6,0,2.85-2.41,4.24-5.21,4.49v.06c2.91.36,3.57,1.64,3.57,3.8,0,2.94.67,3.38,1.14,3.38.66,0,.94-.58.94-2.22V76.3h1.83v.86c0,3.55-1.52,4.82-3.82,4.82-2.74,0-3.57-1.5-3.57-3.77,0-4.43-1-5.4-4.24-5.4h-1.63v5.57c0,.72.28,1,1.14,1h2v2.05Zm7-10.66h3.27c3,0,3.85-1,3.85-3,0-1.72-1.14-2.69-3.57-2.69h-3.55Z"/><path class="cls-1" d="M224.88,72.26c0,5.51-4,9.72-10,9.72s-10-4.21-10-9.72,4-9.75,10-9.75S224.88,66.75,224.88,72.26Zm-15.65,0c0,4,1.27,7.56,5.73,7.56s5.57-3.6,5.57-7.56-1.19-7.59-5.65-7.59S209.23,68.3,209.23,72.26Z"/><path class="cls-1" d="M247.1,72.26c0,5.51-4,9.72-10,9.72s-10-4.21-10-9.72,4-9.75,10-9.75S247.1,66.75,247.1,72.26Zm-15.65,0c0,4,1.27,7.56,5.73,7.56s5.57-3.6,5.57-7.56-1.19-7.59-5.65-7.59S231.45,68.3,231.45,72.26Z"/><path class="cls-1" d="M254.21,78.43c0,.67.67.94,1.25.94h1.72v2.05H248.5V79.38h1.63c.89,0,1.19-.28,1.19-.94V66.05c0-.66-.44-.94-1.08-.94H248.5v-2h8.7l3.74,12H261l4.21-12h8.37v2h-1.86c-.64,0-1.08.28-1.08.94V78c0,.89.42,1.33,1.19,1.33h1.75v2.05H264V79.38h1.83c.75,0,1.19-.39,1.19-.94V65.83h-.06l-5.29,15.6h-2.3l-5.07-15.6h-.06Z"/><path class="cls-1" d="M45.44,52.89a10.12,10.12,0,0,1-8.39-4.62c-2.18-3-3.24-7-3.24-12.12,0-8.42,3.21-12.39,5.09-14a8.86,8.86,0,0,1,5.75-2.26,8.72,8.72,0,0,1,3.52.75,10.45,10.45,0,0,1,1.05.56,1.81,1.81,0,0,0,.81.35c.17,0,.37,0,1-.58l.14-.12h2V31.73l-.46.06c-1.4.17-2.08,0-2.72-1.13a8.25,8.25,0,0,1-.88-2.93l-.09-.51a10.1,10.1,0,0,0-.5-1.74l-.06-.18a3.56,3.56,0,0,0-4.91-2.19A5.94,5.94,0,0,0,41,26.37c-.68,2-1,5.06-1,9.65,0,3.41.23,7.3,1.89,10.25.65,1.12,2.1,3,4.37,3a4.78,4.78,0,0,0,4.37-3.32,10.94,10.94,0,0,0,.6-2.67l.1-.81,2.78,1.68,0,.32a11.38,11.38,0,0,1-.58,3A8.42,8.42,0,0,1,45.44,52.89Z"/><path class="cls-1" d="M78.81,52.15H70v-.51c0-1.36,0-2,1-2.41l.14-.06a1,1,0,0,0,.46-.32A3.87,3.87,0,0,0,71.72,47V37.5H64.18v9.59c0,1.7,0,1.7.55,2,1.2.63,1.21,1.31,1.13,2.54l0,.49H57l0-.5c-.09-1.73.3-2.09,1.19-2.5.48-.18.57-.28.57-.92V25.47c0-1.55,0-1.55-.66-1.89C57,23,57,22.51,57,21.07v-.53h8.93v.53a2.65,2.65,0,0,1-.5,2,3,3,0,0,1-.72.52c-.34.2-.46.28-.52.53s0,1.14,0,1.73V34h7.54V25.6c0-1.63,0-1.63-.54-2l-.4-.25c-.72-.53-.83-1-.79-2.33l0-.51h8.81l0,.5c.08,1.58-.17,2-1,2.47l-.09.06a1.87,1.87,0,0,0-.46.38,3.56,3.56,0,0,0-.12,1.29V47c0,.17,0,.33,0,.49s0,.37,0,.55a2.49,2.49,0,0,0,0,.66c.07.24.21.32.61.5l.16.07c.82.39.82,1.08.82,2.13Z"/><path class="cls-1" d="M91.31,52.15H82.42l0-.5c-.08-1.57.11-2,1-2.46a2.21,2.21,0,0,0,.62-.36,5.35,5.35,0,0,0,.06-1.22V25.56c0-1.6,0-1.6-.62-1.93-.85-.41-1.19-.75-1.15-2.49v-.51l8.92,0v.52a3.77,3.77,0,0,1-.16,1.61,2.17,2.17,0,0,1-1,.86,1.63,1.63,0,0,0-.47.32,5.93,5.93,0,0,0-.1,1.61V47.52c-.06.82,0,1.35.3,1.56l.27.13.31.16c.79.41.82,1.13.86,2.23Z"/><path class="cls-1" d="M106.11,52.89a10.12,10.12,0,0,1-8.39-4.62c-2.18-3-3.24-7-3.24-12.12,0-8.42,3.21-12.39,5.09-14a8.86,8.86,0,0,1,5.75-2.26,8.72,8.72,0,0,1,3.52.75,10.44,10.44,0,0,1,1.05.56,1.81,1.81,0,0,0,.81.35c.17,0,.37,0,1-.58l.14-.12h2V31.73l-.46.06c-1.4.17-2.08,0-2.72-1.13a8.25,8.25,0,0,1-.88-2.93l-.09-.51a10.1,10.1,0,0,0-.5-1.74l-.06-.18a3.56,3.56,0,0,0-4.91-2.19,5.93,5.93,0,0,0-2.6,3.26c-.68,2-1,5.06-1,9.65,0,3.41.23,7.3,1.89,10.25.65,1.12,2.1,3,4.37,3a4.78,4.78,0,0,0,4.37-3.32,10.94,10.94,0,0,0,.6-2.67l.1-.81,2.78,1.68,0,.32a11.39,11.39,0,0,1-.58,3A8.42,8.42,0,0,1,106.11,52.89Z"/><path class="cls-1" d="M139.21,52.19h-10v-.51c0-1.35.1-2.07,1-2.53.5-.19.77-.39.77-.88a4.61,4.61,0,0,0-.45-1.44l-.07-.17-4.71-11.32-1.1,1.38V47c0,.73-.07,1.69.32,2a1.88,1.88,0,0,0,.33.19,2.08,2.08,0,0,1,.66.45,3,3,0,0,1,.49,2.05v.53h-8.8v-.51c0-1.36,0-2,1-2.4l.15-.08a1.11,1.11,0,0,0,.43-.31c.18-.26.22-.64.19-1.69V25.82c0-.41,0-.81,0-1.22,0-.59-.06-.72-.19-.84a1.13,1.13,0,0,0-.28-.18,2.68,2.68,0,0,1-.48-.31c-.78-.52-.78-1.33-.78-2.19v-.53h8.82l0,.49c.08,1.11,0,1.69-.63,2.13a2.92,2.92,0,0,1-.42.25,2.11,2.11,0,0,0-.3.17,1.17,1.17,0,0,0-.35.65,8.7,8.7,0,0,0-.08,1.18l0,.73v5.65l4.87-6c1-1.2,1.18-1.69,1.18-1.89s-.12-.3-.38-.43a2,2,0,0,1-1-.61A3.37,3.37,0,0,1,129,21V20.5h8.66l0,.49a3.44,3.44,0,0,1-.16,1.65,1.43,1.43,0,0,1-1,.81,3.74,3.74,0,0,0-.81.38,8.56,8.56,0,0,0-1.81,1.69l-4.37,5.19c1.48,3.6,3,7.19,4.46,10.71l.28.67c.34.77.67,1.56,1,2.35s.64,1.52,1,2.26c.81,1.87,1,2,1.81,2.41,1,.52,1.1,1,1.14,2.54Z"/><path class="cls-1" d="M160.55,52.19h-18l-.05-.63a3.56,3.56,0,0,1,0-1.14,1.75,1.75,0,0,1,1-1.17l.32-.2c.24-.17.36-.26.4-1.33V24.9c-.1-1.07-.25-1.16-.64-1.38l-.39-.24c-.84-.62-.78-1.35-.7-2.27l0-.48h13.35a6.19,6.19,0,0,0,2.86-.62l.72-.29V30h-.53a3.05,3.05,0,0,1-1.35-.13c-1.21-.39-1.47-1.88-1.66-3l-.05-.3a5.65,5.65,0,0,0-1-2.27,3.08,3.08,0,0,0-2.38-.79h-3V34.06h1.14a2.43,2.43,0,0,0,1.61-.36,1.3,1.3,0,0,0,.46-.86l0-.13c.31-1.21.79-1.52,2.42-1.57l.54,0v9l-.41.09a3.23,3.23,0,0,1-.64.06,2.11,2.11,0,0,1-1.23-.32,2,2,0,0,1-.63-1.05,2.08,2.08,0,0,0-.54-1.14,2.68,2.68,0,0,0-1.87-.46h-.93V49h2.18c1.25,0,3.16-.09,4.18-1.11s1.2-2.84,1.42-4.2c.51-1.63.92-2.15,2.38-2.15l.9,0Z"/><path class="cls-1" d="M184.13,52.32h-3.85l-.14-.32L169.3,27.2V46.39c-.08,2,.21,2.32.85,2.81s1,.9.91,2.39v.51h-6.73l0-.49c-.09-1.35,0-1.74.93-2.53a1.22,1.22,0,0,0,.5-.54,3.93,3.93,0,0,0,.29-2.13V25.65c0-1.09,0-1.82-.59-2.09-1.15-.54-1.17-.86-1.14-2.45v-.51l7.8,0,.19.44c1.67,3.8,3.34,7.59,5,11.38,1.22,2.82,2.42,5.65,3.62,8.49V26.26c0-2-.28-2.32-.9-2.81s-.95-.9-.9-2.39v-.51h6.69l0,.49c.09,1.49-.15,1.86-.76,2.42-.4.32-.48.38-.62.7a4.37,4.37,0,0,0-.31,2.38Z"/><path class="cls-1" d="M236.54,20.52,195.3,30.83V28.14l.9.45h.9l16.14-4,2.69-1.34,1.79-1.79.45-.9-.45-.9h-.9l-.9.45-.45.9.45.9H215l-.9-.9V19.63l1.79-1.79h2.69L220,19.18v2.47l-3.14,2,16.14-4h5.38V21Zm.9,21.52h-.9l-16.14,4-2.69,1.34-1.79,1.79-.45.9.45.9h.9l.9-.45.45-.9-.45-.9h.9l.9.9V51l-1.79,1.79H215l-1.35-1.34V49l3.14-2-16.14,4H195.3V49.66l1.79.45L238.33,39.8v2.69ZM205,45.54l.23-1.7L205,42.62l-.22-.18-3.23.81-.18.27L201,44.87l.18,1.61-4.53,1.16.85-1.93,2.74-12.19-.27-1.3,6.63-1.66L206.33,32l2.73,10.85.81,1.48Zm-1.79-10.45-.09-.67-.09.72-1,4.71.18.18,1.79-.45.18-.27Zm18.52-6.59V41.37L219.1,42l-4.3-6.63-.4-.94.14,1v6l.45,1.57-4.3,1.08.49-1.79V31.1l-.58-1.48,4.21-1,3.41,5.24.4.94-.09-1V29.35L218,27.79l4.21-1.08Zm11.39,10-8.52,2.15.49-1.79V27.65l-.49-1.53L233.13,24l2.73,2.2v8.74ZM232,29l-.49-.94-1-.27-1.26.31-.18.27v7.4l.27.22,1.16-.31,1-.76.49-1.12Z"/><path class="cls-2" d="M26.94,63.45c-1.41,0-2,.22-2.35,1.55L20.24,79.76H16.61L13.7,70.23h-.05l-3.21,9.53H6.75L2.21,64.28c-.17-.55-.5-.83-2-.83v-2h8v2H7.06c-.61,0-.86.36-.86.72a4.73,4.73,0,0,0,.25,1l2.69,10h.05l3.21-9.36-.47-1.3a1.32,1.32,0,0,0-1.38-1H9.63v-2h8.28v2H16.69c-.61,0-1,.19-1,.55a4.17,4.17,0,0,0,.22.94l3,10h.05l2.77-9.8a3.14,3.14,0,0,0,.17-.91c0-.5-.33-.78-1.3-.78H19.32v-2h7.61Z"/><path class="cls-2" d="M28.86,79.76v-2h1.38c1.14,0,1.58-.28,1.58-1v-12c0-.69-.33-1.25-1.41-1.25H28.86v-2h9.8v2H37.45c-.89,0-1.74.28-1.74,1.33V76.35a1.19,1.19,0,0,0,1.36,1.36h1.61v2Z"/><path class="cls-2" d="M40.58,79.76v-2h1.77c.77,0,1.3-.28,1.3-1.22V64.64c0-.83-.36-1.19-1.47-1.19H40.58v-2H50.72v2H49.17c-1.22,0-1.63.28-1.63,1.25v13H52c2.85,0,3.54-1.58,3.79-5.87h2v7.89Z"/><path class="cls-2" d="M59.87,77.71h1.77c.64,0,1.19-.22,1.19-.94V64.39c0-.72-.55-.94-1.19-.94H59.87v-2h11c5.57,0,9.25,3.1,9.25,9.17s-3.68,9.19-9.25,9.19h-11Zm6.84,0h3.4c3.21,0,5.7-1.69,5.7-7.14s-2.49-7.12-5.43-7.12H66.71Z"/><path class="cls-2" d="M97,76.77c0,.66.66.94,1.25.94h1.72v2H91.28v-2h1.63c.89,0,1.19-.28,1.19-.94V64.39c0-.66-.44-.94-1.08-.94H91.28v-2H100l3.74,12h.05l4.21-12h8.36v2h-1.86c-.64,0-1.08.28-1.08.94v12c0,.89.42,1.33,1.19,1.33h1.75v2h-9.61v-2h1.83c.75,0,1.19-.39,1.19-.94V64.17h-.05L104.4,79.76h-2.3L97,64.17H97Z"/><path class="cls-2" d="M118.33,61.4h9.86v2h-1.27c-1.41,0-1.69.36-1.69,1.08V74.77c0,1.94,1.44,2.94,3.79,2.94S133,76.66,133,73.94V65c0-1.11-.39-1.52-1.66-1.52H130v-2h8.81v2h-1.52c-1.16,0-1.44.36-1.44,1.52v9.19c0,4.87-3.63,6.15-7.2,6.15s-7.28-1.27-7.28-5.54V64.58c0-.86-.64-1.14-1.86-1.14h-1.16Z"/><path class="cls-2" d="M153.62,61.4h1.61v7h-2c-.66-3-2.41-5.18-5.7-5.18-2.57,0-3.63.66-3.63,2.49,0,4.15,12.35,1.05,12.35,8.78,0,4.4-3.43,5.84-7.31,5.84a9.4,9.4,0,0,1-5.76-2.19l-.61,1.63h-1.88v-7.5h2c.39,3.71,2.66,5.7,6.59,5.7,2.44,0,3.6-1.13,3.6-2.46,0-4.74-12.35-1.16-12.35-9.08,0-3.9,3.52-5.57,6.87-5.57a9.25,9.25,0,0,1,5.26,1.94Z"/><path class="cls-2" d="M157.89,79.76v-2h1.83c.86,0,1.14-.28,1.14-1V64.45c0-.72-.28-1-1.14-1h-1.83v-2H168v2h-2.1c-.86,0-1.14.28-1.14,1v4.9h8.11v-4.9c0-.72-.28-1-1.14-1H169.6v-2h10.08v2h-1.83c-.86,0-1.14.28-1.14,1V76.71c0,.72.28,1,1.14,1h1.83v2H169.6v-2h2.11c.86,0,1.14-.28,1.14-1V71.4h-8.11v5.32c0,.72.28,1,1.14,1H168v2Z"/><path class="cls-2" d="M181.8,79.76v-2h1.94c.86,0,1.14-.28,1.14-1V64.45c0-.72-.28-1-1.14-1H181.8v-2h12c4,0,5.9,1.58,5.9,4.6,0,2.85-2.41,4.24-5.21,4.49v.06c2.91.36,3.57,1.63,3.57,3.79,0,2.93.67,3.38,1.14,3.38.67,0,.94-.58.94-2.22v-.86H202v.86c0,3.54-1.52,4.82-3.82,4.82-2.74,0-3.57-1.5-3.57-3.77,0-4.43-1-5.4-4.24-5.4h-1.63v5.57c0,.72.28,1,1.13,1h2v2Zm7-10.66H192c3,0,3.85-1,3.85-3,0-1.72-1.14-2.69-3.57-2.69h-3.54Z"/><path class="cls-2" d="M223.81,70.59c0,5.51-4,9.72-10,9.72s-10-4.21-10-9.72,4-9.75,10-9.75S223.81,65.08,223.81,70.59Zm-15.64,0c0,4,1.27,7.56,5.73,7.56s5.57-3.6,5.57-7.56S218.27,63,213.81,63,208.17,66.63,208.17,70.59Z"/><path class="cls-2" d="M246,70.59c0,5.51-4,9.72-10,9.72s-10-4.21-10-9.72,4-9.75,10-9.75S246,65.08,246,70.59Zm-15.65,0c0,4,1.27,7.56,5.73,7.56s5.57-3.6,5.57-7.56S240.48,63,236,63,230.37,66.63,230.37,70.59Z"/><path class="cls-2" d="M253.1,76.77c0,.66.66.94,1.25.94h1.72v2H247.4v-2H249c.89,0,1.19-.28,1.19-.94V64.39c0-.66-.44-.94-1.08-.94H247.4v-2h8.7l3.74,12h.05l4.21-12h8.36v2H270.6c-.64,0-1.08.28-1.08.94v12c0,.89.42,1.33,1.19,1.33h1.74v2h-9.61v-2h1.83c.75,0,1.19-.39,1.19-.94V64.17h-.05l-5.29,15.59h-2.3l-5.07-15.59h-.06Z"/><path class="cls-3" d="M51,19.49v9.89c-1.06.13-1.61.13-2.2-.87a9.62,9.62,0,0,1-.9-3.27,11.36,11.36,0,0,0-.59-2,4.22,4.22,0,0,0-3.88-2.88,4.28,4.28,0,0,0-1.77.39,6.47,6.47,0,0,0-2.86,3.57c-.67,2-1,4.92-1,9.81,0,3.53.23,7.45,2,10.5,1.1,1.87,2.75,3.27,4.83,3.27a5.27,5.27,0,0,0,4.86-3.66,11.53,11.53,0,0,0,.63-2.79l1.8,1.09a11,11,0,0,1-.55,2.83,7.91,7.91,0,0,1-7.57,5.1,9.61,9.61,0,0,1-8-4.4c-1.53-2.14-3.14-5.53-3.14-11.81,0-7.58,2.67-11.68,4.9-13.6A8.32,8.32,0,0,1,43,18.53a8.22,8.22,0,0,1,3.3.7c1.06.48,1.49,1,2.08,1,.35,0,.67-.13,1.37-.7Z"/><path class="cls-3" d="M63.67,19.18c0,.26.12,1.18-.35,1.66s-1.22.52-1.37,1.31c0,.22,0,1.09,0,1.83v8.67H70.5V23.72c0-2.22-.12-2-1.18-2.66-.47-.35-.59-.61-.55-1.87h7.81c.08,1.48-.16,1.66-.79,2a3.21,3.21,0,0,0-.7.61,4,4,0,0,0-.2,1.92v21.4c0,.35,0,.7,0,1a2.87,2.87,0,0,0,0,.78c.16.57.59.7,1.06.92s.51.7.51,1.87H68.77c0-1.39.08-1.66.67-1.92a1.77,1.77,0,0,0,.82-.57c.27-.39.27-1,.23-2.14v-10H61.91V45.2c0,1.79,0,2,.82,2.48s.94.83.86,2H55.75c-.08-1.57.24-1.7.9-2s.86-.61.86-1.39V23.59c0-1.83,0-1.87-.94-2.35-.79-.39-.79-.65-.79-2Z"/><path class="cls-3" d="M89,19.31a3.75,3.75,0,0,1-.12,1.39c-.27.52-1.1.65-1.41,1.09a4.41,4.41,0,0,0-.2,1.92V45.47c0,.22-.2,1.57.47,2.14.2.13.43.22.67.35.51.26.55.65.59,1.79H81.13c-.08-1.53.12-1.66.75-2a2.44,2.44,0,0,0,.78-.48,4,4,0,0,0,.2-1.92V23.67c0-1.79,0-1.92-.9-2.4-.63-.3-.9-.44-.86-2Z"/><path class="cls-3" d="M111.53,19.49v9.89c-1.06.13-1.61.13-2.2-.87a9.62,9.62,0,0,1-.9-3.27,11.38,11.38,0,0,0-.59-2A4.22,4.22,0,0,0,104,20.36a4.28,4.28,0,0,0-1.77.39,6.47,6.47,0,0,0-2.86,3.57c-.67,2-1,4.92-1,9.81,0,3.53.24,7.45,2,10.5,1.1,1.87,2.75,3.27,4.83,3.27A5.27,5.27,0,0,0,110,44.25a11.52,11.52,0,0,0,.63-2.79l1.8,1.09a11,11,0,0,1-.55,2.83,7.91,7.91,0,0,1-7.57,5.1,9.61,9.61,0,0,1-8-4.4c-1.53-2.14-3.14-5.53-3.14-11.81,0-7.58,2.67-11.68,4.9-13.6a8.32,8.32,0,0,1,5.41-2.14,8.22,8.22,0,0,1,3.3.7c1.06.48,1.49,1,2.08,1,.35,0,.67-.13,1.37-.7Z"/><path class="cls-3" d="M124.08,19.18c.08,1.13,0,1.39-.39,1.66-.24.17-.51.26-.75.44a1.68,1.68,0,0,0-.55,1,16.25,16.25,0,0,0-.12,2v7.15l5.81-7.15A5,5,0,0,0,129.38,22c0-.61-.63-.87-.7-.92a1.63,1.63,0,0,1-.75-.44,3,3,0,0,1-.27-1.53h7.65a3,3,0,0,1-.12,1.39c-.24.57-.71.39-1.61,1a9,9,0,0,0-1.92,1.79l-4.59,5.45c1.61,3.92,3.26,7.85,4.86,11.68.67,1.53,1.29,3.09,2,4.62.82,1.92,1.06,2.14,2,2.66.78.39.82.61.86,2.09h-8.94c0-1.35.12-1.74.71-2a1.39,1.39,0,0,0,1.06-1.35,5.72,5.72,0,0,0-.55-1.79L124,32.43l-1.77,2.22V45.07c0,.91-.08,2,.55,2.4.27.22.67.3.9.57s.35,1.22.35,1.7h-7.77c0-1.44,0-1.66.71-1.92a2.14,2.14,0,0,0,.79-.57c.27-.39.31-.87.27-2V23.93c0-.44,0-.83,0-1.22,0-.57,0-.92-.35-1.22s-.47-.26-.79-.52c-.59-.39-.59-1-.59-1.79Z"/><path class="cls-3" d="M147.08,21.19V32.7h1.29a3.43,3.43,0,0,0,2.31-.48,1.92,1.92,0,0,0,.67-1.26c.24-.92.43-1.13,1.92-1.18v8a2.26,2.26,0,0,1-1.45-.17,1.54,1.54,0,0,1-.43-.78,2.5,2.5,0,0,0-.67-1.35,3.1,3.1,0,0,0-2.23-.61H147V47.64h2.71c1.49,0,3.41-.13,4.55-1.26s1.33-3,1.57-4.49c.51-1.61.79-1.74,2.24-1.7v9.59h-17a3.67,3.67,0,0,1,0-1.13c.12-.57.59-.7,1.1-1s.59-.57.63-1.74V23c-.16-1.7-.55-1.57-1.26-2s-.55-.92-.47-1.79h12.87a6.69,6.69,0,0,0,3.06-.65v9.11a2.77,2.77,0,0,1-1.14-.09c-1.06-.35-1.22-1.83-1.41-2.88a6,6,0,0,0-1.1-2.53,3.55,3.55,0,0,0-2.75-1Z"/><path class="cls-3" d="M169.79,19.27c1.69,3.84,3.37,7.67,5,11.51,1.57,3.62,3.1,7.23,4.63,10.9V24.37c0-2-.28-2.57-1.1-3.23-.55-.44-.75-.61-.71-2h5.69c.08,1.35-.12,1.57-.59,2a1.92,1.92,0,0,0-.75.87,4.79,4.79,0,0,0-.35,2.62V49.91h-3L166.81,22.8V44.51c-.08,2,.2,2.57,1.06,3.23.55.44.75.61.71,2h-5.73c-.08-1.22,0-1.44.75-2.09a1.59,1.59,0,0,0,.63-.7,4.4,4.4,0,0,0,.35-2.4V23.76c0-1,.08-2.14-.9-2.57-.82-.39-.86-.35-.82-2Z"/><path class="cls-2" d="M234.79,19.1,193.56,29.41V26.72l.9.45h.9l16.13-4,2.69-1.34L216,20l.45-.9-.45-.9h-.9l-.9.45-.45.9.45.9h-.9l-.9-.9V18.21l1.79-1.79h2.69l1.34,1.34v2.47l-3.14,2,16.13-4h5.38v1.34Zm.9,21.51h-.9l-16.13,4L216,46l-1.79,1.79-.45.9.45.9h.9l.9-.45.45-.9-.45-.9h.9l.9.9v1.34L216,51.37h-2.69L211.94,50V47.56l3.14-2-16.13,4h-5.38V48.24l1.79.45,41.23-10.31v2.69Zm-32.4,3.5.22-1.7-.27-1.21L203,41l-3.23.81-.18.27-.31,1.34.18,1.61L195,46.22l.85-1.93,2.73-12.19-.27-1.3,6.63-1.66-.31,1.43,2.73,10.85.81,1.48ZM201.5,33.67,201.4,33l-.09.72-1,4.71.18.18,1.79-.45.18-.27ZM220,27.08V39.94l-2.64.67L213.06,34l-.4-.94.13,1v6l.45,1.57-4.3,1.08.49-1.79V29.68l-.58-1.48,4.21-1,3.4,5.24.4.94-.09-1V27.93l-.49-1.57,4.21-1.08Zm11.38,10-8.52,2.15.49-1.79V26.23l-.49-1.52,8.52-2.15,2.73,2.2v8.74Zm-1.17-9.5-.49-.94-1-.27-1.26.31-.18.27v7.39l.27.22,1.17-.31,1-.76.49-1.12Z"/><path class="cls-4" d="M66.28.15A5.31,5.31,0,0,1,71.89,5.5,5.61,5.61,0,1,1,66.28.15Zm0,9.32a3.91,3.91,0,0,0,4.06-4,4.06,4.06,0,0,0-8.11,0A3.91,3.91,0,0,0,66.28,9.47Z"/><path class="cls-4" d="M86.12,6.62c0,2.55-1.53,4.23-4.63,4.23-2.2,0-4.34-1.24-4.34-4.08V.29h1.5V6.45c0,1.18.15,1.67.63,2.14a3,3,0,0,0,2.25.89A3.41,3.41,0,0,0,84,8.63a3,3,0,0,0,.66-2.28V.29h1.5Z"/><path class="cls-4" d="M94.56.29C96.67.29,98,1.41,98,3.21a2.61,2.61,0,0,1-1.74,2.55,8.51,8.51,0,0,1,2.32,2.89c.44.72.7,1.07,1.42,2.06H98.2L96.82,8.57c-1.37-2.14-2-2.38-2.77-2.38h-.63v4.52h-1.5V.29ZM93.43,4.84h1c1.6,0,2.06-.82,2-1.7s-.6-1.57-2-1.57h-1Z"/><path class="cls-4" d="M117.67,1.63h-4.06V4.52h4.06V5.87h-4.06v4.84h-1.5V.29h5.56Z"/><path class="cls-4" d="M131.29,10.71h-1.53l-1.39-3.07h-4.43l-1.31,3.07H121.1L125.58.23h1.05Zm-6.77-4.42h3.24l-1.68-3.77Z"/><path class="cls-4" d="M145.68,10.71H144.4l-7-8v8H136V.29h1.19l7.06,8.07V.29h1.41Z"/><path class="cls-4" d="M159.27,1.63h-3.61v9.08h-1.5V1.63h-3.61V.29h8.71Z"/><path class="cls-4" d="M172,10.71h-1.53l-1.39-3.07h-4.43l-1.31,3.07h-1.53L166.29.23h1.05Zm-6.77-4.42h3.24l-1.68-3.77Z"/><path class="cls-4" d="M181.79,2.58a3.5,3.5,0,0,0-2.44-1.08c-1,0-1.65.5-1.65,1.24,0,2,4.51,2,4.51,5.29a2.79,2.79,0,0,1-2.92,2.83,4.6,4.6,0,0,1-2.92-1V8a3.52,3.52,0,0,0,2.75,1.51c1.16,0,1.7-.73,1.7-1.31,0-2.15-4.51-2.4-4.51-5.26,0-1.7,1.25-2.78,3.16-2.78a4.17,4.17,0,0,1,2.32.73Z"/><path class="cls-4" d="M195.24,1.63h-3.61v9.08h-1.5V1.63h-3.61V.29h8.71Z"/><path class="cls-4" d="M201.62,10.71h-1.5V.29h1.5Z"/><path class="cls-4" d="M216.34,2.61a6.86,6.86,0,0,0-3.59-1.08,4,4,0,0,0-4.16,4,3.9,3.9,0,0,0,4.22,4,6.82,6.82,0,0,0,3.64-1.18V9.93a7.63,7.63,0,0,1-3.77.92,5.32,5.32,0,0,1-5.62-5.19,5.43,5.43,0,0,1,5.71-5.5,9.06,9.06,0,0,1,3.57.86Z"/><path class="cls-5" d="M274.78,88a6,6,0,0,0-2.88-.7,13.79,13.79,0,0,0-6.65,2.28,8,8,0,0,0-2-1,9.21,9.21,0,0,1-2.39-1.2l-.14-.22-.2.18a38,38,0,0,1-3.1,2.34,9.84,9.84,0,0,1-2.94,1.3H22.39a9.84,9.84,0,0,1-2.94-1.3,37.69,37.69,0,0,1-3.1-2.34l-.2-.18-.14.22a9.21,9.21,0,0,1-2.39,1.2,8,8,0,0,0-2,1A13.79,13.79,0,0,0,5,87.33a6,6,0,0,0-2.88.7A3.79,3.79,0,0,0,.51,93.34a3.47,3.47,0,0,0,1.94,1.58A4.55,4.55,0,0,0,5,95a2.66,2.66,0,0,0,2-2.3,2.39,2.39,0,0,0-.69-1.78,2.66,2.66,0,0,0-1.82-.79h-.1a2.55,2.55,0,0,0-2.62,2.38,2.36,2.36,0,0,0,.4,1.42,2,2,0,0,1-1-.9A2.77,2.77,0,0,1,.9,90.6,3,3,0,0,1,2.71,89a2.42,2.42,0,0,1,.77-.11c3.36,0,10.09,5,11.6,6.28l.2.18.14-.22a9.19,9.19,0,0,1,2.39-1.2,6.47,6.47,0,0,0,2-1,2.46,2.46,0,0,0,.55.13l.18,0,.05-.16s.1-.25,1.54-.43H254.73c1.48.18,1.57.42,1.57.43l.05.16.18,0a2.47,2.47,0,0,0,.55-.13,6.49,6.49,0,0,0,2,1,9.21,9.21,0,0,1,2.39,1.2l.14.22.2-.18c1.51-1.33,8.24-6.28,11.6-6.28a2.41,2.41,0,0,1,.77.11A3,3,0,0,1,276,90.59a2.78,2.78,0,0,1-.23,2.45,2,2,0,0,1-1,.9,2.35,2.35,0,0,0,.4-1.42,2.55,2.55,0,0,0-2.62-2.38h-.1A2.54,2.54,0,0,0,270,92.71a2.67,2.67,0,0,0,2,2.3,4.55,4.55,0,0,0,2.54-.09,3.47,3.47,0,0,0,1.95-1.58A3.79,3.79,0,0,0,274.78,88Zm-15.06,3.23a6.76,6.76,0,0,1,3.57-1.57,2.69,2.69,0,0,1,1.26.34c-.51.31-1,.65-1.57,1l-.32.22a6.76,6.76,0,0,1-3.57,1.57,2.69,2.69,0,0,1-1.24-.33c.39-.22.78-.49,1.16-.76Zm-245.48,0-.32-.22c-.54-.37-1.06-.71-1.57-1a2.69,2.69,0,0,1,1.26-.34,6.76,6.76,0,0,1,3.57,1.57l.7.49c.38.27.77.54,1.16.76a2.69,2.69,0,0,1-1.24.33A6.76,6.76,0,0,1,14.24,91.27Z"/><path class="cls-5" d="M274.78,1.21a6,6,0,0,0-2.88-.7,13.79,13.79,0,0,0-6.65,2.28,8,8,0,0,0-2-1A9.22,9.22,0,0,1,260.9.64l-.14-.22-.2.18a38,38,0,0,1-3.1,2.34,9.84,9.84,0,0,1-2.94,1.3H225.87V5.6h28.86c1.48.18,1.57.42,1.57.43l.05.16.18,0a2.47,2.47,0,0,0,.55-.13,6.48,6.48,0,0,0,2,1,9.2,9.2,0,0,1,2.39,1.2l.14.22.2-.18C263.33,7,270.07,2,273.43,2a2.4,2.4,0,0,1,.77.11A3,3,0,0,1,276,3.77a2.78,2.78,0,0,1-.23,2.45,2,2,0,0,1-1,.9,2.35,2.35,0,0,0,.4-1.42,2.55,2.55,0,0,0-2.62-2.38h-.1A2.54,2.54,0,0,0,270,5.89a2.67,2.67,0,0,0,2,2.3,4.55,4.55,0,0,0,2.54-.09,3.47,3.47,0,0,0,1.95-1.58A3.79,3.79,0,0,0,274.78,1.21Zm-11.8,3-.32.22A6.76,6.76,0,0,1,259.1,6a2.69,2.69,0,0,1-1.24-.33c.39-.22.78-.49,1.16-.76l.7-.49a6.76,6.76,0,0,1,3.57-1.57,2.69,2.69,0,0,1,1.26.34C264,3.52,263.53,3.86,263,4.23Z"/><path class="cls-5" d="M51,4.23H22.39a9.84,9.84,0,0,1-2.94-1.3A37.65,37.65,0,0,1,16.35.59l-.2-.18L16,.64a9.22,9.22,0,0,1-2.39,1.2,8,8,0,0,0-2,1A13.79,13.79,0,0,0,5,.51a6,6,0,0,0-2.88.7A3.79,3.79,0,0,0,.51,6.52,3.47,3.47,0,0,0,2.45,8.1,4.55,4.55,0,0,0,5,8.19a2.66,2.66,0,0,0,2-2.3,2.39,2.39,0,0,0-.69-1.78,2.66,2.66,0,0,0-1.82-.79h-.1A2.55,2.55,0,0,0,1.71,5.7a2.36,2.36,0,0,0,.4,1.42,2,2,0,0,1-1-.9A2.77,2.77,0,0,1,.9,3.77,3,3,0,0,1,2.71,2.13,2.41,2.41,0,0,1,3.48,2C6.84,2,13.58,7,15.08,8.3l.2.18.14-.22a9.19,9.19,0,0,1,2.39-1.2,6.47,6.47,0,0,0,2-1,2.46,2.46,0,0,0,.55.13l.18,0L20.61,6s.1-.25,1.54-.43H51ZM17.82,6a6.76,6.76,0,0,1-3.57-1.57l-.32-.22c-.54-.37-1.06-.71-1.57-1a2.69,2.69,0,0,1,1.26-.34,6.76,6.76,0,0,1,3.57,1.57l.7.49c.38.27.77.54,1.16.76A2.69,2.69,0,0,1,17.82,6Z"/></g></g></svg>