<svg xmlns="http://www.w3.org/2000/svg" viewBox="0 0 345.33 122.15"><defs><style>.cls-1{fill:#003f23;}.cls-2{fill:#d5d653;}.cls-3{fill:#d28850;}</style></defs><title>Asset 9</title><g id="Layer_2" data-name="Layer 2"><g id="Layer_1-2" data-name="Layer 1"><path class="cls-1" d="M103.59,41.26h-1.38c-2.8,0-1.24-9.7-6.89-9.7-5.18,0-6.51,7.08-6.51,14.26,0,7.84,1.33,14.93,6.56,14.93s5.9-5.8,6.18-8.08l2.76,1.76c-.86,5.85-4.09,9.27-8.94,9.27-9.79,0-14.26-8.46-14.26-17.25s4.47-17.3,12.74-17.35c3.95,0,6.13,2.38,6.75,2.38s.85-.57,1-1h2Z"/><path class="cls-1" d="M103.59,41.26h-1.38c-2.8,0-1.24-9.7-6.89-9.7-5.18,0-6.51,7.08-6.51,14.26,0,7.84,1.33,14.93,6.56,14.93s5.9-5.8,6.18-8.08l2.76,1.76c-.86,5.85-4.09,9.27-8.94,9.27-9.79,0-14.26-8.46-14.26-17.25s4.47-17.3,12.74-17.35c3.95,0,6.13,2.38,6.75,2.38s.85-.57,1-1h2Z"/><path class="cls-1" d="M116.67,47.25V58.9c0,2.66,2.19,1.28,2.19,2.66V63H107.54V61.56c0-1.38,2.19,0,2.19-2.66v-25c0-2.66-2.19-1.28-2.19-2.66V29.76h11.31v1.47c0,1.38-2.19,0-2.19,2.66V44.3h10.22V33.89c0-2.66-2.19-1.28-2.19-2.66V29.76H136v1.47c0,1.38-2.19,0-2.19,2.66v25c0,2.66,2.19,1.28,2.19,2.66V63H124.7V61.56c0-1.38,2.19,0,2.19-2.66V47.25Z"/><path class="cls-1" d="M116.67,47.25V58.9c0,2.66,2.19,1.28,2.19,2.66V63H107.54V61.56c0-1.38,2.19,0,2.19-2.66v-25c0-2.66-2.19-1.28-2.19-2.66V29.76h11.31v1.47c0,1.38-2.19,0-2.19,2.66V44.3h10.22V33.89c0-2.66-2.19-1.28-2.19-2.66V29.76H136v1.47c0,1.38-2.19,0-2.19,2.66v25c0,2.66,2.19,1.28,2.19,2.66V63H124.7V61.56c0-1.38,2.19,0,2.19-2.66V47.25Z"/><path class="cls-1" d="M142.05,33.89c0-2.66-2.14-1.28-2.14-2.66V29.76h11.22v1.47c0,1.38-2.14,0-2.14,2.66v25c0,2.66,2.14,1.28,2.14,2.66V63H139.92V61.56c0-1.38,2.14,0,2.14-2.66Z"/><path class="cls-1" d="M142.05,33.89c0-2.66-2.14-1.28-2.14-2.66V29.76h11.22v1.47c0,1.38-2.14,0-2.14,2.66v25c0,2.66,2.14,1.28,2.14,2.66V63H139.92V61.56c0-1.38,2.14,0,2.14-2.66Z"/><path class="cls-1" d="M177.57,41.26h-1.38c-2.8,0-1.24-9.7-6.89-9.7-5.18,0-6.51,7.08-6.51,14.26,0,7.84,1.33,14.93,6.56,14.93s5.9-5.8,6.18-8.08l2.76,1.76c-.86,5.85-4.09,9.27-8.94,9.27-9.79,0-14.26-8.46-14.26-17.25s4.47-17.3,12.74-17.35c3.95,0,6.13,2.38,6.75,2.38s.85-.57,1-1h2Z"/><path class="cls-1" d="M177.57,41.26h-1.38c-2.8,0-1.24-9.7-6.89-9.7-5.18,0-6.51,7.08-6.51,14.26,0,7.84,1.33,14.93,6.56,14.93s5.9-5.8,6.18-8.08l2.76,1.76c-.86,5.85-4.09,9.27-8.94,9.27-9.79,0-14.26-8.46-14.26-17.25s4.47-17.3,12.74-17.35c3.95,0,6.13,2.38,6.75,2.38s.85-.57,1-1h2Z"/><path class="cls-1" d="M191.4,43.16l7.7-8.6c.66-.76.9-1.14.9-1.57,0-1-1.81-.62-1.81-1.76V29.76h9.51v1.43c0,1.52-1.81.28-3.95,2.66l-7.08,7.8,8.65,15.45c2.38,4.23,4.09,3.09,4.09,4.85V63H196.68V61.61c0-1,2-1,2-2.14a5.43,5.43,0,0,0-.81-2.14l-5.75-10.94-.76,1V58.9c0,2.66,2.19,1.28,2.19,2.66V63H182.27V61.56c0-1.38,2.19,0,2.19-2.66v-25c0-2.66-2.19-1.28-2.19-2.66V29.76h11.31v1.47c0,1.38-2.19,0-2.19,2.66Z"/><path class="cls-1" d="M191.4,43.16l7.7-8.6c.66-.76.9-1.14.9-1.57,0-1-1.81-.62-1.81-1.76V29.76h9.51v1.43c0,1.52-1.81.28-3.95,2.66l-7.08,7.8,8.65,15.45c2.38,4.23,4.09,3.09,4.09,4.85V63H196.68V61.61c0-1,2-1,2-2.14a5.43,5.43,0,0,0-.81-2.14l-5.75-10.94-.76,1V58.9c0,2.66,2.19,1.28,2.19,2.66V63H182.27V61.56c0-1.38,2.19,0,2.19-2.66v-25c0-2.66-2.19-1.28-2.19-2.66V29.76h11.31v1.47c0,1.38-2.19,0-2.19,2.66Z"/><path class="cls-1" d="M212.75,33.89c0-2.66-2.19-1.28-2.19-2.66V29.76h16.16a13.83,13.83,0,0,0,5.28-.67v9.84h-1.14c-3.42,0-.38-6.7-6.94-6.7h-4.23V44.45h1.81c4.56,0,2.09-3.47,4.56-3.47h1.33v9.6h-1.33c-2.47,0,0-3.47-4.56-3.47h-1.81V60.56h4.61c4.9,0,5.8-2.19,6.23-4.18.29-1.38.29-3.33,2.09-3.33h1.14V63h-23.2V61.56c0-1.38,2.19,0,2.19-2.66Z"/><path class="cls-1" d="M212.75,33.89c0-2.66-2.19-1.28-2.19-2.66V29.76h16.16a13.83,13.83,0,0,0,5.28-.67v9.84h-1.14c-3.42,0-.38-6.7-6.94-6.7h-4.23V44.45h1.81c4.56,0,2.09-3.47,4.56-3.47h1.33v9.6h-1.33c-2.47,0,0-3.47-4.56-3.47h-1.81V60.56h4.61c4.9,0,5.8-2.19,6.23-4.18.29-1.38.29-3.33,2.09-3.33h1.14V63h-23.2V61.56c0-1.38,2.19,0,2.19-2.66Z"/><path class="cls-1" d="M257.77,50.15h.09V33.89c0-2.66-2.33-1.28-2.33-2.8V29.76h8v1.33c0,1.52-2.33.14-2.33,2.8V63h-3.28L242,35.75h-.09V58.9c0,2.66,2.33,1.28,2.33,2.8V63h-8V61.7c0-1.52,2.33-.14,2.33-2.8v-25c0-2.66-2-1.28-2-2.66V29.76H246Z"/><path class="cls-1" d="M257.77,50.15h.09V33.89c0-2.66-2.33-1.28-2.33-2.8V29.76h8v1.33c0,1.52-2.33.14-2.33,2.8V63h-3.28L242,35.75h-.09V58.9c0,2.66,2.33,1.28,2.33,2.8V63h-8V61.7c0-1.52,2.33-.14,2.33-2.8v-25c0-2.66-2-1.28-2-2.66V29.76H246Z"/><path class="cls-1" d="M154.58,75.16c0-2.85-2.34-1.37-2.34-2.85V70.74h12.1v1.58c0,1.47-2.34,0-2.34,2.85V103.7h2.9c5.24,0,6.2-2.34,6.66-4.48.31-1.47.31-3.56,2.24-3.56H175v10.68H152.24v-1.58c0-1.48,2.34,0,2.34-2.85Z"/><path class="cls-1" d="M154.58,75.16c0-2.85-2.34-1.37-2.34-2.85V70.74h12.1v1.58c0,1.47-2.34,0-2.34,2.85V103.7h2.9c5.24,0,6.2-2.34,6.66-4.48.31-1.47.31-3.56,2.24-3.56H175v10.68H152.24v-1.58c0-1.48,2.34,0,2.34-2.85Z"/><path class="cls-1" d="M179.2,75.16c0-2.85-2.34-1.37-2.34-2.85V70.74h17.29A14.83,14.83,0,0,0,199.8,70V80.56h-1.22c-3.66,0-.41-7.17-7.42-7.17h-4.53V86.45h1.93c4.88,0,2.24-3.71,4.88-3.71h1.42V93h-1.42c-2.65,0,0-3.71-4.88-3.71h-1.93V103.7h4.93c5.24,0,6.2-2.34,6.66-4.48.31-1.47.31-3.56,2.24-3.56h1.22v10.68H176.86v-1.58c0-1.48,2.34,0,2.34-2.85Z"/><path class="cls-1" d="M179.2,75.16c0-2.85-2.34-1.37-2.34-2.85V70.74h17.29A14.83,14.83,0,0,0,199.8,70V80.56h-1.22c-3.66,0-.41-7.17-7.42-7.17h-4.53V86.45h1.93c4.88,0,2.24-3.71,4.88-3.71h1.42V93h-1.42c-2.65,0,0-3.71-4.88-3.71h-1.93V103.7h4.93c5.24,0,6.2-2.34,6.66-4.48.31-1.47.31-3.56,2.24-3.56h1.22v10.68H176.86v-1.58c0-1.48,2.34,0,2.34-2.85Z"/><path class="cls-1" d="M207.48,75.16c0-2.85-2.34-1.37-2.34-2.85V70.74h17.29a14.83,14.83,0,0,0,5.65-.71V80.56h-1.22c-3.66,0-.41-7.17-7.42-7.17h-4.53V86.45h1.93c4.88,0,2.24-3.71,4.88-3.71h1.42V93h-1.42c-2.65,0,0-3.71-4.88-3.71h-1.93V103.7h4.93c5.24,0,6.2-2.34,6.66-4.48.31-1.47.31-3.56,2.24-3.56H230v10.68H205.14v-1.58c0-1.48,2.34,0,2.34-2.85Z"/><path class="cls-1" d="M207.48,75.16c0-2.85-2.34-1.37-2.34-2.85V70.74h17.29a14.83,14.83,0,0,0,5.65-.71V80.56h-1.22c-3.66,0-.41-7.17-7.42-7.17h-4.53V86.45h1.93c4.88,0,2.24-3.71,4.88-3.71h1.42V93h-1.42c-2.65,0,0-3.71-4.88-3.71h-1.93V103.7h4.93c5.24,0,6.2-2.34,6.66-4.48.31-1.47.31-3.56,2.24-3.56H230v10.68H205.14v-1.58c0-1.48,2.34,0,2.34-2.85Z"/><path class="cls-1" d="M244,85.08l8.24-9.21c.71-.81,1-1.22,1-1.68,0-1-1.93-.66-1.93-1.88V70.74h10.17v1.53c0,1.63-1.93.3-4.22,2.85l-7.58,8.34L258.9,100c2.54,4.53,4.37,3.31,4.37,5.19v1.17H249.65v-1.53c0-1.07,2.19-1.12,2.19-2.29a5.84,5.84,0,0,0-.87-2.29l-6.16-11.7-.81,1v12.36c0,2.85,2.34,1.37,2.34,2.85v1.58h-12.1v-1.58c0-1.48,2.34,0,2.34-2.85V75.16c0-2.85-2.34-1.37-2.34-2.85V70.74h12.1v1.58c0,1.48-2.34,0-2.34,2.85Z"/><path class="cls-1" d="M244,85.08l8.24-9.21c.71-.81,1-1.22,1-1.68,0-1-1.93-.66-1.93-1.88V70.74h10.17v1.53c0,1.63-1.93.3-4.22,2.85l-7.58,8.34L258.9,100c2.54,4.53,4.37,3.31,4.37,5.19v1.17H249.65v-1.53c0-1.07,2.19-1.12,2.19-2.29a5.84,5.84,0,0,0-.87-2.29l-6.16-11.7-.81,1v12.36c0,2.85,2.34,1.37,2.34,2.85v1.58h-12.1v-1.58c0-1.48,2.34,0,2.34-2.85V75.16c0-2.85-2.34-1.37-2.34-2.85V70.74h12.1v1.58c0,1.48-2.34,0-2.34,2.85Z"/><path class="cls-1" d="M133,81.2,132.39,80l-1.23-.35L129.6,80l-.22.36v9.78l.34.3,1.45-.42,1.23-1,.61-1.48Zm1.45,12.57-10.6,2.85.61-2.37V79.42l-.61-2,10.6-2.85,3.4,2.91V89ZM120.28,80.54v17l-3.29.89-5.36-8.77-.5-1.24.17,1.36v7.95l.56,2.08-5.36,1.42.61-2.37V84l-.72-2,5.25-1.36,4.24,6.94.5,1.24-.11-1.36V81.67l-.61-2.07,5.25-1.42Zm-23,8.72-.11-.89-.11.95-1.23,6.23.22.24,2.23-.59.22-.35Zm2.23,13.81.28-2.25-.34-1.6L99.13,99l-4,1.07-.22.35-.39,1.78.22,2.13-5.63,1.54,1.06-2.55,3.4-16.13-.34-1.72,8.26-2.19-.39,1.9,3.4,14.35,1,2Zm40.34-4.62H138.7l-20.09,5.34-3.35,1.78L113,107.94l-.56,1.19.56,1.19h1.12l1.12-.59.56-1.18-.56-1.19h1.12l1.12,1.19v1.78l-2.23,2.37h-3.35l-1.68-1.78v-3.26l3.91-2.67-20.09,5.34h-6.7v-1.78l2.23.59,51.34-13.64V99ZM138.7,70,87.36,83.63V80.07l1.12.59h1.12l20.09-5.34L113,73.55l2.23-2.37.56-1.19-.56-1.19h-1.12L113,69.4l-.56,1.19.56,1.18h-1.12l-1.12-1.18V68.8L113,66.43h3.35l1.68,1.78v3.26l-3.91,2.67,20.09-5.34h6.7v1.78Z"/><path class="cls-2" d="M101.9,39.57h-1.38c-2.8,0-1.24-9.7-6.89-9.7-5.18,0-6.51,7.08-6.51,14.26,0,7.84,1.33,14.93,6.56,14.93s5.9-5.8,6.18-8.08l2.76,1.76c-.86,5.85-4.09,9.27-8.94,9.27-9.79,0-14.26-8.46-14.26-17.25s4.47-17.3,12.74-17.35c3.95,0,6.13,2.38,6.75,2.38s.85-.57,1-1h2Z"/><path class="cls-2" d="M101.9,39.57h-1.38c-2.8,0-1.24-9.7-6.89-9.7-5.18,0-6.51,7.08-6.51,14.26,0,7.84,1.33,14.93,6.56,14.93s5.9-5.8,6.18-8.08l2.76,1.76c-.86,5.85-4.09,9.27-8.94,9.27-9.79,0-14.26-8.46-14.26-17.25s4.47-17.3,12.74-17.35c3.95,0,6.13,2.38,6.75,2.38s.85-.57,1-1h2Z"/><path class="cls-2" d="M115,45.56V57.2c0,2.66,2.19,1.28,2.19,2.66v1.47H105.84V59.87c0-1.38,2.19,0,2.19-2.66v-25c0-2.66-2.19-1.28-2.19-2.66V28.06h11.31v1.47c0,1.38-2.19,0-2.19,2.66V42.61h10.22V32.2c0-2.66-2.19-1.28-2.19-2.66V28.06h11.31v1.47c0,1.38-2.19,0-2.19,2.66v25c0,2.66,2.19,1.28,2.19,2.66v1.47H123V59.87c0-1.38,2.19,0,2.19-2.66V45.56Z"/><path class="cls-2" d="M115,45.56V57.2c0,2.66,2.19,1.28,2.19,2.66v1.47H105.84V59.87c0-1.38,2.19,0,2.19-2.66v-25c0-2.66-2.19-1.28-2.19-2.66V28.06h11.31v1.47c0,1.38-2.19,0-2.19,2.66V42.61h10.22V32.2c0-2.66-2.19-1.28-2.19-2.66V28.06h11.31v1.47c0,1.38-2.19,0-2.19,2.66v25c0,2.66,2.19,1.28,2.19,2.66v1.47H123V59.87c0-1.38,2.19,0,2.19-2.66V45.56Z"/><path class="cls-2" d="M140.36,32.2c0-2.66-2.14-1.28-2.14-2.66V28.06h11.22v1.47c0,1.38-2.14,0-2.14,2.66v25c0,2.66,2.14,1.28,2.14,2.66v1.47H138.22V59.87c0-1.38,2.14,0,2.14-2.66Z"/><path class="cls-2" d="M140.36,32.2c0-2.66-2.14-1.28-2.14-2.66V28.06h11.22v1.47c0,1.38-2.14,0-2.14,2.66v25c0,2.66,2.14,1.28,2.14,2.66v1.47H138.22V59.87c0-1.38,2.14,0,2.14-2.66Z"/><path class="cls-2" d="M175.87,39.57h-1.38c-2.8,0-1.24-9.7-6.89-9.7-5.18,0-6.51,7.08-6.51,14.26,0,7.84,1.33,14.93,6.56,14.93s5.9-5.8,6.18-8.08l2.76,1.76c-.86,5.85-4.09,9.27-8.94,9.27-9.79,0-14.26-8.46-14.26-17.25s4.47-17.3,12.74-17.35c3.95,0,6.13,2.38,6.75,2.38s.85-.57,1-1h2Z"/><path class="cls-2" d="M175.87,39.57h-1.38c-2.8,0-1.24-9.7-6.89-9.7-5.18,0-6.51,7.08-6.51,14.26,0,7.84,1.33,14.93,6.56,14.93s5.9-5.8,6.18-8.08l2.76,1.76c-.86,5.85-4.09,9.27-8.94,9.27-9.79,0-14.26-8.46-14.26-17.25s4.47-17.3,12.74-17.35c3.95,0,6.13,2.38,6.75,2.38s.85-.57,1-1h2Z"/><path class="cls-2" d="M189.71,41.47l7.7-8.6c.66-.76.9-1.14.9-1.57,0-1-1.81-.62-1.81-1.76V28.06H206v1.43c0,1.52-1.81.28-3.95,2.66L195,39.95l8.65,15.45c2.38,4.23,4.09,3.09,4.09,4.85v1.09H195V59.91c0-1,2-1,2-2.14a5.43,5.43,0,0,0-.81-2.14L190.47,44.7l-.76,1V57.2c0,2.66,2.19,1.28,2.19,2.66v1.47H180.58V59.87c0-1.38,2.19,0,2.19-2.66v-25c0-2.66-2.19-1.28-2.19-2.66V28.06h11.31v1.47c0,1.38-2.19,0-2.19,2.66Z"/><path class="cls-2" d="M189.71,41.47l7.7-8.6c.66-.76.9-1.14.9-1.57,0-1-1.81-.62-1.81-1.76V28.06H206v1.43c0,1.52-1.81.28-3.95,2.66L195,39.95l8.65,15.45c2.38,4.23,4.09,3.09,4.09,4.85v1.09H195V59.91c0-1,2-1,2-2.14a5.43,5.43,0,0,0-.81-2.14L190.47,44.7l-.76,1V57.2c0,2.66,2.19,1.28,2.19,2.66v1.47H180.58V59.87c0-1.38,2.19,0,2.19-2.66v-25c0-2.66-2.19-1.28-2.19-2.66V28.06h11.31v1.47c0,1.38-2.19,0-2.19,2.66Z"/><path class="cls-2" d="M211.06,32.2c0-2.66-2.19-1.28-2.19-2.66V28.06H225a13.83,13.83,0,0,0,5.28-.67v9.84h-1.14c-3.42,0-.38-6.7-6.94-6.7H218V42.75h1.81c4.56,0,2.09-3.47,4.56-3.47h1.33v9.6h-1.33c-2.47,0,0-3.47-4.56-3.47H218V58.87h4.61c4.9,0,5.8-2.19,6.23-4.18.29-1.38.29-3.33,2.09-3.33h1.14v10h-23.2V59.87c0-1.38,2.19,0,2.19-2.66Z"/><path class="cls-2" d="M211.06,32.2c0-2.66-2.19-1.28-2.19-2.66V28.06H225a13.83,13.83,0,0,0,5.28-.67v9.84h-1.14c-3.42,0-.38-6.7-6.94-6.7H218V42.75h1.81c4.56,0,2.09-3.47,4.56-3.47h1.33v9.6h-1.33c-2.47,0,0-3.47-4.56-3.47H218V58.87h4.61c4.9,0,5.8-2.19,6.23-4.18.29-1.38.29-3.33,2.09-3.33h1.14v10h-23.2V59.87c0-1.38,2.19,0,2.19-2.66Z"/><path class="cls-2" d="M256.08,48.46h.09V32.2c0-2.66-2.33-1.28-2.33-2.8V28.06h8v1.33c0,1.52-2.33.14-2.33,2.8V61.34h-3.28L240.29,34.05h-.09V57.2c0,2.66,2.33,1.28,2.33,2.8v1.33h-8V60c0-1.52,2.33-.14,2.33-2.8v-25c0-2.66-2-1.28-2-2.66V28.06h9.46Z"/><path class="cls-2" d="M256.08,48.46h.09V32.2c0-2.66-2.33-1.28-2.33-2.8V28.06h8v1.33c0,1.52-2.33.14-2.33,2.8V61.34h-3.28L240.29,34.05h-.09V57.2c0,2.66,2.33,1.28,2.33,2.8v1.33h-8V60c0-1.52,2.33-.14,2.33-2.8v-25c0-2.66-2-1.28-2-2.66V28.06h9.46Z"/><path class="cls-2" d="M152.89,73.47c0-2.85-2.34-1.37-2.34-2.85V69h12.1v1.58c0,1.47-2.34,0-2.34,2.85V102h2.9c5.24,0,6.2-2.34,6.66-4.48.31-1.47.31-3.56,2.24-3.56h1.22v10.68H150.55v-1.58c0-1.48,2.34,0,2.34-2.85Z"/><path class="cls-2" d="M152.89,73.47c0-2.85-2.34-1.37-2.34-2.85V69h12.1v1.58c0,1.47-2.34,0-2.34,2.85V102h2.9c5.24,0,6.2-2.34,6.66-4.48.31-1.47.31-3.56,2.24-3.56h1.22v10.68H150.55v-1.58c0-1.48,2.34,0,2.34-2.85Z"/><path class="cls-2" d="M177.5,73.47c0-2.85-2.34-1.37-2.34-2.85V69h17.29a14.83,14.83,0,0,0,5.65-.71V78.86h-1.22c-3.66,0-.41-7.17-7.42-7.17h-4.53V84.76h1.93c4.88,0,2.24-3.71,4.88-3.71h1.42V91.32h-1.42c-2.65,0,0-3.71-4.88-3.71h-1.93V102h4.93c5.24,0,6.2-2.34,6.66-4.48.31-1.47.31-3.56,2.24-3.56H200v10.68H175.17v-1.58c0-1.48,2.34,0,2.34-2.85Z"/><path class="cls-2" d="M177.5,73.47c0-2.85-2.34-1.37-2.34-2.85V69h17.29a14.83,14.83,0,0,0,5.65-.71V78.86h-1.22c-3.66,0-.41-7.17-7.42-7.17h-4.53V84.76h1.93c4.88,0,2.24-3.71,4.88-3.71h1.42V91.32h-1.42c-2.65,0,0-3.71-4.88-3.71h-1.93V102h4.93c5.24,0,6.2-2.34,6.66-4.48.31-1.47.31-3.56,2.24-3.56H200v10.68H175.17v-1.58c0-1.48,2.34,0,2.34-2.85Z"/><path class="cls-2" d="M205.78,73.47c0-2.85-2.34-1.37-2.34-2.85V69h17.29a14.83,14.83,0,0,0,5.65-.71V78.86h-1.22c-3.66,0-.41-7.17-7.42-7.17h-4.53V84.76h1.93C220,84.76,217.38,81,220,81h1.42V91.32H220c-2.65,0,0-3.71-4.88-3.71h-1.93V102h4.93c5.24,0,6.2-2.34,6.66-4.48.31-1.47.31-3.56,2.24-3.56h1.22v10.68H203.45v-1.58c0-1.48,2.34,0,2.34-2.85Z"/><path class="cls-2" d="M205.78,73.47c0-2.85-2.34-1.37-2.34-2.85V69h17.29a14.83,14.83,0,0,0,5.65-.71V78.86h-1.22c-3.66,0-.41-7.17-7.42-7.17h-4.53V84.76h1.93C220,84.76,217.38,81,220,81h1.42V91.32H220c-2.65,0,0-3.71-4.88-3.71h-1.93V102h4.93c5.24,0,6.2-2.34,6.66-4.48.31-1.47.31-3.56,2.24-3.56h1.22v10.68H203.45v-1.58c0-1.48,2.34,0,2.34-2.85Z"/><path class="cls-2" d="M242.31,83.39l8.24-9.21c.71-.81,1-1.22,1-1.68,0-1-1.93-.66-1.93-1.88V69h10.17v1.53c0,1.63-1.93.3-4.22,2.85L248,81.76l9.26,16.53c2.54,4.53,4.37,3.31,4.37,5.19v1.17H248v-1.53c0-1.07,2.19-1.12,2.19-2.29a5.84,5.84,0,0,0-.87-2.29l-6.16-11.7-.81,1v12.36c0,2.85,2.34,1.37,2.34,2.85v1.58h-12.1v-1.58c0-1.48,2.34,0,2.34-2.85V73.47c0-2.85-2.34-1.37-2.34-2.85V69h12.1v1.58c0,1.48-2.34,0-2.34,2.85Z"/><path class="cls-2" d="M242.31,83.39l8.24-9.21c.71-.81,1-1.22,1-1.68,0-1-1.93-.66-1.93-1.88V69h10.17v1.53c0,1.63-1.93.3-4.22,2.85L248,81.76l9.26,16.53c2.54,4.53,4.37,3.31,4.37,5.19v1.17H248v-1.53c0-1.07,2.19-1.12,2.19-2.29a5.84,5.84,0,0,0-.87-2.29l-6.16-11.7-.81,1v12.36c0,2.85,2.34,1.37,2.34,2.85v1.58h-12.1v-1.58c0-1.48,2.34,0,2.34-2.85V73.47c0-2.85-2.34-1.37-2.34-2.85V69h12.1v1.58c0,1.48-2.34,0-2.34,2.85Z"/><path class="cls-2" d="M131.31,79.5l-.61-1.24-1.23-.35-1.56.41-.22.36v9.78l.34.3,1.45-.42,1.23-1,.61-1.48Zm1.45,12.57-10.6,2.85.61-2.37V77.72l-.61-2,10.6-2.85,3.4,2.91V87.33ZM118.59,78.85v17l-3.29.89L109.94,88l-.5-1.24.17,1.36V96l.56,2.08-5.36,1.42.61-2.37V82.29l-.72-2L109.94,79l4.24,6.94.5,1.24-.11-1.36V80L114,77.9l5.25-1.42Zm-23,8.72-.11-.89-.11.95-1.23,6.23.22.24,2.23-.59.22-.35Zm2.23,13.81.28-2.25-.34-1.6-.28-.24-4,1.07-.22.35-.39,1.78.22,2.13-5.63,1.54,1.06-2.55,3.4-16.13-.34-1.72,8.26-2.19-.39,1.9,3.4,14.35,1,2Zm40.34-4.62H137l-20.09,5.34-3.35,1.78-2.23,2.37-.56,1.19.56,1.19h1.12l1.12-.59.56-1.18-.56-1.19h1.12l1.12,1.19v1.78L113.57,111h-3.35l-1.68-1.78v-3.26l3.91-2.67-20.09,5.34h-6.7v-1.78l2.23.59,51.34-13.64v3.56ZM137,68.3,85.67,81.93V78.38l1.12.59H87.9L108,73.63l3.35-1.78,2.23-2.37.56-1.19-.56-1.19h-1.12l-1.12.59-.56,1.19.56,1.18h-1.12l-1.12-1.18V67.11l2.23-2.37h3.35l1.68,1.78v3.26l-3.91,2.67,20.09-5.34h6.7v1.78Z"/><path class="cls-3" d="M17.76,117.12l-.4-.28c-.67-.46-1.32-.88-2-1.27a3.37,3.37,0,0,1,1.57-.42c1.67,0,3.28,1.13,4.46,2l.87.61c.48.34,1,.67,1.45,1a3.36,3.36,0,0,1-1.54.41c-1.67,0-3.28-1.13-4.45-2m306.13,0c1.18-.83,2.79-2,4.46-2a3.37,3.37,0,0,1,1.57.42c-.63.39-1.28.81-2,1.27l-.4.28c-1.18.83-2.78,2-4.46,2a3.36,3.36,0,0,1-1.54-.41c.49-.28,1-.62,1.45-1Zm18.78-4a7.48,7.48,0,0,0-3.59-.87c-2.31,0-5,.94-8.3,2.84a10,10,0,0,0-2.44-1.19,11.56,11.56,0,0,1-3-1.49l-.17-.28-.25.22a46.52,46.52,0,0,1-3.86,2.91,12.3,12.3,0,0,1-3.67,1.62H27.92a12.3,12.3,0,0,1-3.67-1.62,46.26,46.26,0,0,1-3.86-2.91l-.25-.22-.17.28a11.56,11.56,0,0,1-3,1.49,9.92,9.92,0,0,0-2.44,1.19c-3.25-1.9-6-2.84-8.3-2.84a7.48,7.48,0,0,0-3.59.87,4.73,4.73,0,0,0-2,6.62,4.33,4.33,0,0,0,2.42,2,5.7,5.7,0,0,0,3.16.11,3.32,3.32,0,0,0,2.44-2.87,3,3,0,0,0-.87-2.22,3.33,3.33,0,0,0-2.27-1H5.4a3.18,3.18,0,0,0-3.26,3,2.94,2.94,0,0,0,.5,1.77,2.43,2.43,0,0,1-1.23-1.12,3.46,3.46,0,0,1-.29-3,3.76,3.76,0,0,1,2.27-2,3,3,0,0,1,1-.14c4.19,0,12.59,6.17,14.47,7.83l.25.22.17-.28a11.56,11.56,0,0,1,3-1.49,8.14,8.14,0,0,0,2.51-1.26,3.06,3.06,0,0,0,.69.16l.22,0,.07-.2s.12-.31,1.93-.53h290c1.84.23,2,.52,2,.53l.07.2.22,0a3.05,3.05,0,0,0,.69-.16,8.1,8.1,0,0,0,2.51,1.26,11.56,11.56,0,0,1,3,1.49l.17.28.25-.22c1.88-1.66,10.28-7.83,14.47-7.83a3,3,0,0,1,1,.14,3.76,3.76,0,0,1,2.27,2,3.47,3.47,0,0,1-.29,3.05,2.44,2.44,0,0,1-1.23,1.12,2.94,2.94,0,0,0,.5-1.77,3.18,3.18,0,0,0-3.26-3h-.13a3.17,3.17,0,0,0-3.14,3.21,3.32,3.32,0,0,0,2.44,2.87,5.69,5.69,0,0,0,3.16-.11,4.33,4.33,0,0,0,2.43-2,4.73,4.73,0,0,0-2-6.62"/><path class="cls-3" d="M328,6.53l-.4.28c-1.18.83-2.78,2-4.46,2a3.36,3.36,0,0,1-1.54-.41c.49-.28,1-.62,1.45-1l.87-.61c1.18-.83,2.79-2,4.46-2a3.37,3.37,0,0,1,1.57.42c-.63.39-1.28.81-2,1.27m14.71-3.76a7.48,7.48,0,0,0-3.59-.87c-2.31,0-5,.94-8.3,2.84a9.92,9.92,0,0,0-2.44-1.19,11.56,11.56,0,0,1-3-1.49l-.17-.28-.25.22a46.51,46.51,0,0,1-3.86,2.91,12.3,12.3,0,0,1-3.67,1.62H273.9V8.24h43.76c1.84.23,2,.52,2,.53l.07.2.22,0a3.05,3.05,0,0,0,.69-.16,8.1,8.1,0,0,0,2.51,1.26,11.47,11.47,0,0,1,3,1.49l.17.28.25-.22C328.4,9.95,336.79,3.77,341,3.77a3,3,0,0,1,1,.14,3.76,3.76,0,0,1,2.27,2A3.47,3.47,0,0,1,343.92,9a2.44,2.44,0,0,1-1.23,1.12,2.94,2.94,0,0,0,.5-1.77,3.18,3.18,0,0,0-3.26-3h-.13a3.17,3.17,0,0,0-3.14,3.21,3.32,3.32,0,0,0,2.44,2.87,5.69,5.69,0,0,0,3.16-.11,4.33,4.33,0,0,0,2.43-2,4.73,4.73,0,0,0-2-6.62"/><path class="cls-3" d="M22.22,8.77c-1.67,0-3.28-1.13-4.45-2l-.4-.28c-.67-.46-1.32-.88-2-1.27A3.35,3.35,0,0,1,17,4.84c1.67,0,3.28,1.13,4.45,2l.87.61c.48.34,1,.67,1.45,1a3.34,3.34,0,0,1-1.54.41M71.42,6.53H27.92a12.24,12.24,0,0,1-3.67-1.62A47.37,47.37,0,0,1,20.39,2l-.25-.22L20,2.05a11.53,11.53,0,0,1-3,1.49,9.9,9.9,0,0,0-2.44,1.19c-3.25-1.9-6-2.84-8.3-2.84a7.48,7.48,0,0,0-3.59.87,4.73,4.73,0,0,0-2,6.62,4.33,4.33,0,0,0,2.43,2,5.67,5.67,0,0,0,3.16.11A3.32,3.32,0,0,0,8.66,8.6,3,3,0,0,0,7.8,6.38a3.31,3.31,0,0,0-2.27-1H5.4a3.18,3.18,0,0,0-3.26,3,3,3,0,0,0,.5,1.77A2.44,2.44,0,0,1,1.41,9a3.45,3.45,0,0,1-.29-3,3.76,3.76,0,0,1,2.27-2,3,3,0,0,1,1-.14c4.19,0,12.58,6.17,14.46,7.83l.25.22.17-.28a11.45,11.45,0,0,1,3-1.49,8,8,0,0,0,2.5-1.26,3.2,3.2,0,0,0,.69.16l.22,0,.07-.2s.12-.31,1.92-.53h43.8Z"/><path class="cls-1" d="M97.64,0a8.37,8.37,0,0,1,3.9.89,6.88,6.88,0,0,1,2.76,2.57,6.93,6.93,0,0,1,1,3.69,7,7,0,0,1-3.76,6.22,8.81,8.81,0,0,1-7.88,0,6.9,6.9,0,0,1-3.75-6.21,7,7,0,0,1,1-3.6A6.86,6.86,0,0,1,93.65.93,8.31,8.31,0,0,1,97.64,0ZM92.72,7.16a5,5,0,0,0,.63,2.5,4.37,4.37,0,0,0,1.75,1.72,5.24,5.24,0,0,0,2.54.61,4.85,4.85,0,0,0,3.53-1.35,4.64,4.64,0,0,0,1.38-3.47,5,5,0,0,0-.62-2.5,4.32,4.32,0,0,0-1.76-1.72,5.62,5.62,0,0,0-5.1,0,4.26,4.26,0,0,0-1.74,1.72A5.08,5.08,0,0,0,92.72,7.16Z"/><path class="cls-1" d="M111.82.18V8.29a4.43,4.43,0,0,0,.37,2,2.93,2.93,0,0,0,1.22,1.22,4,4,0,0,0,2,.48,4.47,4.47,0,0,0,2.1-.45,2.86,2.86,0,0,0,1.26-1.24,4.84,4.84,0,0,0,.4-2.17V.18h2.69V8.46a5.51,5.51,0,0,1-1.69,4.33,6.91,6.91,0,0,1-4.77,1.51,7.63,7.63,0,0,1-3.36-.69,4.89,4.89,0,0,1-2.17-2,6,6,0,0,1-.75-3.06V.18Z"/><path class="cls-1" d="M131.21.18a4.67,4.67,0,0,1,3.2,1.09,3.59,3.59,0,0,1,1.24,2.83A3.54,3.54,0,0,1,135,6.17a4.06,4.06,0,0,1-1.82,1.39,4,4,0,0,1,1.19,1,12.46,12.46,0,0,1,1.29,2.09q1.28,2.53,1.9,3.49h-3a16.89,16.89,0,0,1-.84-1.47,31.85,31.85,0,0,0-1.7-3,4.07,4.07,0,0,0-1-1.1,2.06,2.06,0,0,0-1.15-.32h-1v5.89h-2.69V.18Zm-.61,5.95a2.44,2.44,0,0,0,1.66-.53,1.83,1.83,0,0,0,.6-1.45,1.72,1.72,0,0,0-.6-1.43,2.69,2.69,0,0,0-1.71-.47h-1.68V6.13Z"/><path class="cls-1" d="M151.81,0a8.15,8.15,0,0,1,3.92,1v2.4a7.68,7.68,0,0,0-3.84-1.31,2.78,2.78,0,0,0-1.59.39,1.22,1.22,0,0,0-.57,1.05q0,.79,1.07,1.46.3.2,2.31,1.12a6.62,6.62,0,0,1,2.48,1.8,3.78,3.78,0,0,1,.76,2.38A3.63,3.63,0,0,1,155,13.2a5,5,0,0,1-3.35,1.1,7.91,7.91,0,0,1-2.3-.29,10,10,0,0,1-2.16-1V10.34a6.77,6.77,0,0,0,4.21,1.86,2.71,2.71,0,0,0,1.6-.43,1.33,1.33,0,0,0,.61-1.14,1.8,1.8,0,0,0-1.06-1.58q-.88-.48-2.27-1.15a6.66,6.66,0,0,1-2.46-1.75,3.56,3.56,0,0,1-.81-2.32A3.4,3.4,0,0,1,148.36,1,5.37,5.37,0,0,1,151.81,0Z"/><path class="cls-1" d="M165.45.18a4.49,4.49,0,0,1,3.18,1.13,3.8,3.8,0,0,1,1.22,2.92,3.75,3.75,0,0,1-1.24,2.92,4.68,4.68,0,0,1-3.26,1.12h-2.59v5.85h-2.69V.18Zm-.67,6a2.58,2.58,0,0,0,1.68-.49,1.78,1.78,0,0,0,.6-1.46q0-1.93-2.48-1.93h-1.84V6.17Z"/><path class="cls-1" d="M176.06.18V12h6.77v2.11h-9.46V.18Z"/><path class="cls-1" d="M195.05.18V2.29h-6.32V5.95h6V8.05h-6v4h6.46v2.11H186V.18Z"/><path class="cls-1" d="M201.44.18l8.28,9.73V.18h2.63V14.12H210l-8.33-9.89v9.89h-2.63V.18Z"/><path class="cls-1" d="M222.63.18a8.23,8.23,0,0,1,3.87.89,6.44,6.44,0,0,1,2.63,2.5,7,7,0,0,1,.94,3.61,7,7,0,0,1-.94,3.63,6.34,6.34,0,0,1-2.68,2.45,8.79,8.79,0,0,1-4,.87H216.8V.18ZM222.35,12a4.87,4.87,0,0,0,3.59-1.34,4.74,4.74,0,0,0,1.35-3.52,4.7,4.7,0,0,0-1.36-3.56,5.08,5.08,0,0,0-3.67-1.31h-2.77V12Z"/><path class="cls-1" d="M236.72.18V14.12H234V.18Z"/><path class="cls-1" d="M247.06.18a8.23,8.23,0,0,1,3.87.89,6.44,6.44,0,0,1,2.63,2.5,7,7,0,0,1,.94,3.61,7,7,0,0,1-.94,3.63,6.34,6.34,0,0,1-2.68,2.45,8.79,8.79,0,0,1-4,.87h-5.68V.18ZM246.78,12a4.87,4.87,0,0,0,3.59-1.34,4.74,4.74,0,0,0,1.35-3.52,4.7,4.7,0,0,0-1.36-3.56,5.08,5.08,0,0,0-3.67-1.31h-2.77V12Z"/></g></g></svg>