<svg xmlns="http://www.w3.org/2000/svg" viewBox="0 0 275.99 94.98"><defs><style>.cls-1,.cls-4{fill:#003e52;}.cls-2,.cls-3{fill:#d5d755;}.cls-2{stroke:#d5d755;stroke-width:0.67px;}.cls-2,.cls-4{stroke-miterlimit:10;}.cls-4{stroke:#003e52;stroke-width:0.31px;}.cls-5{fill:#d28850;}</style></defs><title>Asset 4</title><g id="Layer_2" data-name="Layer 2"><g id="Layer_1-2" data-name="Layer 1"><path class="cls-1" d="M15.64,43a14.49,14.49,0,0,1-.46,2.74C14.61,47.73,13.35,49,12,49c-1.63,0-2.71-1.88-3.2-3-1.28-3-1.45-7-1.45-10.47a43.16,43.16,0,0,1,.77-9.85,6.14,6.14,0,0,1,2-3.3,2.05,2.05,0,0,1,1.06-.31c1.43,0,2.09,1.46,2.46,2.53l.05.19A13.32,13.32,0,0,1,14,26.6l.07.52a10.42,10.42,0,0,0,.66,2.94,1.71,1.71,0,0,0,1.59,1.26,4.13,4.13,0,0,0,.66-.07l.44-.07v-11H15.66l-.16.17c-.45.49-.6.54-.66.54a1.49,1.49,0,0,1-.5-.32,7.9,7.9,0,0,0-.82-.58,5.57,5.57,0,0,0-2.79-.79,6.07,6.07,0,0,0-4.53,2.35C4.78,23.17,2.37,27.19,2.34,35.7c0,5.24.78,9.13,2.46,12.25,2.2,4.13,5,4.75,6.54,4.75,2.88,0,5.35-2.19,6.28-5.57a14.85,14.85,0,0,0,.44-3l0-.27L15.72,42Z"/><path class="cls-1" d="M36.15,22.88l.07-.06c.66-.49.84-.89.78-2.45l0-.51H30v.51c0,1.28,0,1.77.6,2.31l.31.26c.41.33.43.35.41,2v8.55H25.8V25.25c0-.64,0-1.6,0-1.78s.14-.37.39-.55a2.58,2.58,0,0,0,.57-.54,3.3,3.3,0,0,0,.37-2v-.53H20.08v.53c0,1.47,0,2,.83,2.52.49.33.49.33.49,2V48c0,.77-.12.83-.42,1-.76.46-1,.87-.93,2.5l0,.51h7l0-.5c.06-1.25,0-1.88-.87-2.53-.44-.32-.44-.33-.42-2.1V37.07H31.3v9.67a5.2,5.2,0,0,1-.12,1.91c-.09.17-.2.24-.43.37-.74.44-.8,1-.77,2.41v.51h7V51.2c0-1.11,0-1.72-.64-2.13L36.2,49c-.28-.17-.38-.23-.44-.51a3.52,3.52,0,0,1,0-.7c0-.18,0-.37,0-.55s0-.34,0-.51V24.63a4.56,4.56,0,0,1,.1-1.38A1.73,1.73,0,0,1,36.15,22.88Z"/><path class="cls-1" d="M45.87,49.18,45.62,49l-.18-.11c-.14-.16-.29-.57-.23-1.66V25a7.52,7.52,0,0,1,.09-1.7,1.21,1.21,0,0,1,.34-.3,2,2,0,0,0,.77-.88,4.83,4.83,0,0,0,.12-1.58V20l-7.06-.05v.52c0,1.64.17,2,.89,2.48.48.33.48.33.46,2v22.4a6.24,6.24,0,0,1-.06,1.3,1.57,1.57,0,0,1-.45.34c-.73.47-.87.89-.81,2.45l0,.51h7v-.54C46.5,50.24,46.48,49.6,45.87,49.18Z"/><path class="cls-1" d="M64,47.13a14.84,14.84,0,0,0,.44-3l0-.27L62.14,42,62,43a14.52,14.52,0,0,1-.46,2.74C61,47.73,59.77,49,58.38,49c-1.63,0-2.71-1.88-3.2-3-1.28-3-1.45-7-1.45-10.47a43.15,43.15,0,0,1,.77-9.85,6.13,6.13,0,0,1,2-3.3,2.05,2.05,0,0,1,1.06-.31c1.43,0,2.09,1.46,2.46,2.53l.05.19a13.32,13.32,0,0,1,.38,1.78l.07.52a10.42,10.42,0,0,0,.66,2.94,1.71,1.71,0,0,0,1.59,1.26,4.13,4.13,0,0,0,.66-.07l.44-.07v-11H62.08l-.16.17c-.45.49-.6.54-.66.54a1.49,1.49,0,0,1-.5-.32,7.91,7.91,0,0,0-.82-.58,5.57,5.57,0,0,0-2.79-.79,6.07,6.07,0,0,0-4.53,2.35c-1.43,1.64-3.84,5.65-3.87,14.16,0,5.24.78,9.13,2.46,12.25,2.2,4.13,5,4.75,6.54,4.75C60.64,52.7,63.1,50.51,64,47.13Z"/><path class="cls-1" d="M67.35,49l-.11.08c-.78.43-.8,1-.77,2.4v.51h7v-.53a3.67,3.67,0,0,0-.36-2,1.73,1.73,0,0,0-.53-.48,1.32,1.32,0,0,1-.24-.18c-.31-.29-.27-1.34-.25-2.05V36.24l.67-1.12,3.5,11.21.05.17A5.84,5.84,0,0,1,76.64,48a.89.89,0,0,1-.58.94c-.7.48-.8,1.14-.77,2.53V52h7.87v-.54c0-1.48,0-2-.88-2.54-.62-.44-.75-.53-1.36-2.44-.25-.76-.49-1.54-.74-2.31s-.5-1.59-.76-2.37l-.2-.62c-1.14-3.62-2.3-7.31-3.44-11l3.36-5.32a7.83,7.83,0,0,1,1.37-1.71,2.4,2.4,0,0,1,.59-.36,1.28,1.28,0,0,0,.8-.85A4.49,4.49,0,0,0,82,20.31l0-.5H75.15v.53a4.12,4.12,0,0,0,.28,1.81,1.69,1.69,0,0,0,.78.65.54.54,0,0,1,.26.46,6.28,6.28,0,0,1-.91,2l-3.46,5.67V25.53l0-.74a11.66,11.66,0,0,1,.06-1.23,1.38,1.38,0,0,1,.27-.69,1.46,1.46,0,0,1,.21-.16,2.55,2.55,0,0,0,.34-.26c.51-.45.54-1,.48-2.11l0-.5h-7v.53c0,.89,0,1.65.58,2.17a2.14,2.14,0,0,0,.38.33.79.79,0,0,1,.19.17c.12.15.13.36.16.92s0,.82,0,1.24V46.87a3.91,3.91,0,0,1-.15,1.79A.82.82,0,0,1,67.35,49Z"/><path class="cls-1" d="M96.75,43.39c-.17,1.4-.4,3.31-1.1,4.31s-1.85,1-3.05,1.07H91.06V36.85h.58c.63,0,1,.07,1.29.41a2.48,2.48,0,0,1,.42,1.18,2.17,2.17,0,0,0,.48,1.06,1.52,1.52,0,0,0,1.07.37,2.05,2.05,0,0,0,.55-.07l.37-.11V30.59l-.55,0c-1.41.05-1.74.47-2,1.62l0,.13a1.58,1.58,0,0,1-.36.9c-.24.27-.53.31-1.09.31h-.74V22.94h2.14a1.84,1.84,0,0,1,1.69.75A6.91,6.91,0,0,1,95.67,26l0,.31c.15,1.15.34,2.58,1.29,3a2,2,0,0,0,1.14.16h.52V18.84l-.77.42a3.55,3.55,0,0,1-2.09.6H85.49l0,.49c-.06.94-.11,1.61.53,2.24l.3.25c.28.21.4.3.48,1.45V47.47c0,1.13-.14,1.23-.31,1.4l-.24.2a1.72,1.72,0,0,0-.77,1.17,4.65,4.65,0,0,0,0,1.12l0,.65h14V41.22l-.81,0C97.4,41.19,97.11,41.84,96.75,43.39Z"/><path class="cls-1" d="M102.85,48.9c-.72.8-.77,1.16-.7,2.5l0,.5h5.38v-.51c0-1.48-.15-1.8-.69-2.37s-.72-.82-.66-2.91V27.34l8.14,24.78h3.18V25.94a5.93,5.93,0,0,1,.24-2.47,1.51,1.51,0,0,1,.48-.72c.46-.57.63-.92.57-2.39l0-.5h-5.36v.51c0,1.47.15,1.8.68,2.37s.69.92.69,2.92V39.81q-1.24-3.92-2.51-7.82c-1.26-3.9-2.55-7.8-3.83-11.69l-.12-.36-6.2-.05v.52c0,1.61,0,1.89.89,2.45.49.29.46,1.32.43,2.16V46.12a5.36,5.36,0,0,1-.23,2.22A1.29,1.29,0,0,1,102.85,48.9Z"/><path class="cls-1" d="M121.93,48.07a1.51,1.51,0,0,0-1.35,1.05,2.49,2.49,0,0,0-.17,1,2.46,2.46,0,0,0,.57,1.64,1.38,1.38,0,0,0,.47.3l.11.05c0,.1-.05.25-.09.43a8.31,8.31,0,0,1-.57,1.63l-.16.36,1.47,1.23.28-.63a10.4,10.4,0,0,0,1-3,9.15,9.15,0,0,0,.1-1.32C123.58,48.91,122.72,48.07,121.93,48.07Z"/><path class="cls-1" d="M132.88,48.94c-.76.46-1,.87-.93,2.5l0,.51h7l0-.5c.06-1.25,0-1.88-.87-2.53-.44-.32-.45-.33-.42-2.1V37.07h5.51v9.67a5.2,5.2,0,0,1-.12,1.91c-.09.17-.2.24-.43.37-.74.44-.8,1-.77,2.41v.51h7V51.2c0-1.11,0-1.72-.64-2.13L148.1,49c-.28-.17-.38-.23-.44-.51a3.52,3.52,0,0,1,0-.7c0-.18,0-.37,0-.55s0-.34,0-.51V24.63a4.56,4.56,0,0,1,.1-1.38,1.73,1.73,0,0,1,.34-.38l.07-.06c.66-.49.84-.89.78-2.45l0-.51h-7v.51c0,1.28,0,1.77.6,2.31l.31.26c.41.33.43.35.41,2v8.55H137.7V25.25c0-.64,0-1.6,0-1.78s.14-.37.39-.55a2.58,2.58,0,0,0,.57-.54,3.3,3.3,0,0,0,.37-2v-.53H132v.53c0,1.47,0,2,.83,2.52.49.33.49.33.49,2V48C133.3,48.73,133.18,48.79,132.88,48.94Z"/><path class="cls-1" d="M157.18,51.38a3.78,3.78,0,0,0-.24-1.84,1.57,1.57,0,0,0-.62-.6c-.27-.17-.48-.3-.48-1.23a9.72,9.72,0,0,1,.25-1.84l.09-.49c.18-.83.31-1.63.44-2.42l.07-.4h4.69l.79,4.13a6.75,6.75,0,0,1,.25,1.54c0,.46-.08.5-.48.69-.79.44-.9,1.1-.84,2.43l0,.5h7.31v-.53c0-1.24,0-1.82-.86-2.61-.52-.44-.65-.55-.91-2.14l-5.11-24.9c-.13-.87-.33-2.18-1.28-2.26h-.14a2.66,2.66,0,0,0-.58.21l-.32.13-.33.12a2.78,2.78,0,0,0-1.31.71,1.25,1.25,0,0,0-.37.91,2.86,2.86,0,0,0,.19,1c.08.36.16.71.22,1.07l-4.35,22.72-.16.64c-.08.35-.16.68-.26,1a1.56,1.56,0,0,1-.66,1c-.91.73-1,1.22-.94,2.55v.51h5.92Zm.13-12.17,1.61-8.86,1.79,8.86Z"/><path class="cls-1" d="M185,29.85c0,5.43,0,11,0,16.41l0,.71a10.74,10.74,0,0,1-.06,1.18.77.77,0,0,1-.41.63,3.15,3.15,0,0,0-.53.48,3.19,3.19,0,0,0-.39,2.22l0,.51h6.88l0-.78c0-1.29,0-1.68-.78-2.24a1.12,1.12,0,0,1-.33-.41,4.69,4.69,0,0,1-.14-1.83V25.14a3.75,3.75,0,0,1,.12-1.81,1.35,1.35,0,0,1,.4-.45,1.69,1.69,0,0,0,.73-1.3,3.49,3.49,0,0,0-.08-1.44l-.15-.23L184,19.85l-.44,2.56c-.57,3.31-1.13,6.61-1.67,9.93-.45,2.61-.87,5.28-1.27,7.93l-3.39-20.32h-6.69v.53a4.62,4.62,0,0,0,.2,1.77,1.44,1.44,0,0,0,.63.63l.16.1c.29.23.42.85.37,1.85V46a5.36,5.36,0,0,1-.26,2.39,2.37,2.37,0,0,1-.58.76c-.44.53-.57.94-.51,2.31l0,.5H176l0-.49c.09-1.49,0-1.84-.69-2.47a1.38,1.38,0,0,1-.37-.49,5.88,5.88,0,0,1-.28-2.3V29.47l3.85,22.47h2.83L185,29.8Z"/><path class="cls-1" d="M217.35,22.88l.07-.06c.66-.49.84-.89.78-2.45l0-.51h-7v.51c0,1.28,0,1.77.6,2.31l.31.26c.41.33.43.35.41,2v8.55H207V25.25c0-.64,0-1.6,0-1.78s.14-.37.39-.55a2.58,2.58,0,0,0,.57-.54,3.3,3.3,0,0,0,.37-2v-.53h-7.07v.53c0,1.47,0,2,.83,2.52.49.33.49.33.49,2V48c0,.77-.12.83-.42,1-.76.46-1,.87-.93,2.5l0,.51h7l0-.5c.06-1.25,0-1.88-.87-2.53-.44-.32-.44-.33-.42-2.1V37.07h5.51v9.67a5.2,5.2,0,0,1-.12,1.91c-.09.17-.2.24-.43.37-.74.44-.8,1-.77,2.41v.51h7V51.2c0-1.11,0-1.72-.64-2.13L217.4,49c-.28-.17-.38-.23-.44-.51a3.53,3.53,0,0,1,0-.7c0-.18,0-.37,0-.55s0-.34,0-.51V24.63a4.56,4.56,0,0,1,.1-1.38A1.73,1.73,0,0,1,217.35,22.88Z"/><path class="cls-1" d="M229.34,19.23c-2.31,0-4.27,1.25-5.79,3.69a8.07,8.07,0,0,0-.42.72c-.07.14-.15.28-.24.44-1.57,3.11-2.36,7.18-2.36,12.1,0,9.05,2.77,13,4.42,14.6a6.32,6.32,0,0,0,4.3,1.82,6.49,6.49,0,0,0,4.92-2.44c2.51-2.94,3.84-7.92,3.84-14.42,0-5.27-.9-9.5-2.68-12.58C234.33,21.48,232.62,19.23,229.34,19.23Zm-.09,30.55A2.82,2.82,0,0,1,226.73,48a12.9,12.9,0,0,1-.91-4,51.54,51.54,0,0,1-.38-6.27A81.82,81.82,0,0,1,226,26.63c.49-2.8,1.45-3.85,2-4.23a2,2,0,0,1,1.19-.34c2.81,0,3.91,3.7,3.91,13.2,0,5.27-.31,9.06-.91,11.24C231.39,49.47,229.87,49.79,229.25,49.79Z"/><path class="cls-1" d="M254.1,43a14.48,14.48,0,0,1-.46,2.74c-.56,2-1.82,3.34-3.21,3.34-1.63,0-2.71-1.88-3.2-3-1.28-3-1.46-7-1.46-10.47a43.14,43.14,0,0,1,.77-9.85,6.14,6.14,0,0,1,2-3.3,2.06,2.06,0,0,1,1.06-.31c1.43,0,2.09,1.46,2.46,2.53l.05.19a13.29,13.29,0,0,1,.38,1.78l.07.52a10.42,10.42,0,0,0,.66,2.94,1.72,1.72,0,0,0,1.59,1.26,4.13,4.13,0,0,0,.66-.07l.44-.07v-11h-1.74l-.16.17c-.45.49-.6.54-.66.54a1.49,1.49,0,0,1-.5-.32A7.92,7.92,0,0,0,252,20a5.57,5.57,0,0,0-2.79-.79,6.07,6.07,0,0,0-4.53,2.35c-1.43,1.64-3.84,5.65-3.87,14.16,0,5.24.78,9.13,2.46,12.25,2.2,4.13,5,4.75,6.54,4.75,2.88,0,5.35-2.19,6.28-5.57a14.84,14.84,0,0,0,.44-3l0-.27L254.19,42Z"/><path class="cls-1" d="M275.22,51.45c0-1.48,0-2-.88-2.54-.62-.44-.75-.53-1.36-2.44-.25-.76-.49-1.54-.74-2.31s-.5-1.59-.76-2.37l-.2-.62c-1.14-3.62-2.3-7.31-3.44-11l3.36-5.32a7.83,7.83,0,0,1,1.37-1.71,2.4,2.4,0,0,1,.59-.36,1.29,1.29,0,0,0,.8-.85,4.44,4.44,0,0,0,.12-1.61l0-.5h-6.86v.53a4.1,4.1,0,0,0,.28,1.81,1.69,1.69,0,0,0,.78.65.54.54,0,0,1,.26.46,6.29,6.29,0,0,1-.91,2l-3.46,5.67V25.53l0-.74a11.69,11.69,0,0,1,.06-1.23,1.38,1.38,0,0,1,.27-.69,1.47,1.47,0,0,1,.21-.16,2.54,2.54,0,0,0,.34-.26c.51-.45.54-1,.48-2.11l0-.5h-7v.53c0,.89,0,1.65.58,2.17a2.14,2.14,0,0,0,.38.33.79.79,0,0,1,.19.17c.12.15.13.36.16.92s0,.82,0,1.24V46.87a3.91,3.91,0,0,1-.15,1.79.82.82,0,0,1-.31.29l-.11.08c-.78.43-.8,1-.77,2.4v.51h7v-.53a3.67,3.67,0,0,0-.36-2,1.73,1.73,0,0,0-.53-.48,1.32,1.32,0,0,1-.24-.18c-.31-.29-.27-1.34-.25-2.05V36.24l.67-1.12,3.5,11.21.05.17a5.84,5.84,0,0,1,.35,1.51.89.89,0,0,1-.58.94c-.7.48-.8,1.14-.77,2.53V52h7.87Z"/><path class="cls-1" d="M115.67,81.17h-5.89v-17c0-1.27.54-1.63,2.13-1.63h2V59.85H100.71v2.67h2.1c1.45,0,1.92.47,1.92,1.55V79.54c0,1.23-.69,1.59-1.7,1.59h-2.31v2.67H123.3V73.51h-2.68C120.3,79.11,119.4,81.17,115.67,81.17Z"/><path class="cls-1" d="M126.73,62.52h1.63c1.88,0,2.31.47,2.31,2V78.6c0,2.17-.69,2.53-1.92,2.53h-2v2.67h23.86V73.69h-2.67c-.33,5.39-1.63,7.45-5,7.45h-7.23V72.71h1.92c2.17,0,3.14,1.12,3.14,4v.87h2.67V65.56h-2.67V66c0,2.93-1,4-3.14,4h-1.92V62.52h6.36c4.84,0,5.28,2,5.82,6.87h2.67V59.85H126.73Z"/><path class="cls-1" d="M154.69,62.52h1.63c1.88,0,2.31.47,2.31,2V78.6c0,2.17-.69,2.53-1.92,2.53h-2v2.67h23.86V73.69h-2.67c-.33,5.39-1.63,7.45-5,7.45h-7.23V72.71h1.92c2.17,0,3.14,1.12,3.14,4v.87h2.67V65.56h-2.67V66c0,2.93-1,4-3.14,4h-1.92V62.52h6.36c4.84,0,5.28,2,5.82,6.87h2.67V59.85H154.69Z"/><path class="cls-1" d="M206.75,79.51,199,68.92l5.1-4.45a6.16,6.16,0,0,1,4.7-2h1.34V59.85H197.49v2.67h2.28c.43,0,.65.18.65.47s-.29.69-.83,1.16l-7.77,7.08V63.82c0-.94.36-1.3,1.48-1.3h2.13V59.85H182.71v2.67h2.57c1.12,0,1.48.36,1.48,1.3V79.18c0,1.19-.47,2-2.13,2h-1.92v2.67h12.72V81.13H193.3c-1.12,0-1.48-.36-1.48-1.3V75.46l3.79-3.25,5.13,7.45a1.63,1.63,0,0,1,.33.83c0,.54-.51.65-1.08.65h-2.42v2.67h13.81V81.13h-1.88A3.3,3.3,0,0,1,206.75,79.51Z"/><polygon class="cls-1" points="74.11 60.2 76.91 58.4 76.91 56.2 75.71 55 73.31 55 71.71 56.6 71.71 57.8 72.51 58.6 73.31 58.6 72.91 57.8 73.31 57 74.11 56.6 74.91 56.6 75.31 57.4 74.91 58.2 73.31 59.8 70.91 61 56.51 64.6 55.71 64.6 54.91 64.2 54.91 66.6 91.7 57.4 93.3 57.8 93.3 56.6 88.5 56.6 74.11 60.2"/><path class="cls-1" d="M81.07,75.36l7.6-1.92,2.44-3.2v-7.8l-2.44-2-7.6,1.92.44,1.36v10Zm4-11,.16-.24,1.12-.28.88.24.44.84v4.28l-.44,1-.88.68-1,.28L85,71Z"/><polygon class="cls-1" points="54.91 83.4 54.91 84.6 59.71 84.6 74.11 81 71.31 82.8 71.31 85 72.51 86.2 74.91 86.2 76.5 84.6 76.5 83.4 75.71 82.6 74.91 82.6 75.31 83.4 74.91 84.2 74.11 84.6 73.31 84.6 72.91 83.8 73.31 83 74.91 81.4 77.31 80.2 91.7 76.6 92.5 76.6 93.3 77 93.3 74.6 56.51 83.8 54.91 83.4"/><path class="cls-1" d="M56.15,81.6l4-1L60,79.12l.28-1.2.16-.24L63.35,77l.2.16.24,1.08-.2,1.52,4.32-1.08-.72-1.32-2.44-9.68L65,66.36l-5.92,1.48L59.35,69,56.91,79.88Zm5.68-11.16.08-.64.08.6.88,3.76-.16.24-1.6.4-.16-.16Z"/><polygon class="cls-1" points="72.31 64.6 68.55 65.52 69.07 66.84 69.07 76.88 68.63 78.48 72.47 77.52 72.07 76.12 72.07 70.76 71.95 69.84 72.31 70.68 76.15 76.6 78.51 76 78.51 64.52 78.95 62.92 75.19 63.88 75.63 65.28 75.63 69.2 75.71 70.12 75.35 69.28 72.31 64.6"/><path class="cls-2" d="M15,18.87v10c-.81.13-1.23.13-1.68-.89a12.39,12.39,0,0,1-.69-3.32,14.48,14.48,0,0,0-.45-2c-.3-.89-1-2.92-3-2.92a2.62,2.62,0,0,0-1.35.4,6.68,6.68,0,0,0-2.18,3.63,43,43,0,0,0-.78,10c0,3.59.18,7.57,1.5,10.67.84,1.9,2.09,3.32,3.68,3.32s3.08-1.46,3.71-3.72a14.81,14.81,0,0,0,.48-2.83l1.38,1.11a14.46,14.46,0,0,1-.42,2.88c-.93,3.36-3.32,5.18-5.78,5.18-1.32,0-4-.53-6.08-4.47C2.24,43.7,1,40.25,1,33.88,1,26.17,3,22,4.75,20.07A5.69,5.69,0,0,1,8.88,17.9a5,5,0,0,1,2.51.71c.81.49,1.14,1,1.59,1,.27,0,.51-.13,1-.71Z"/><path class="cls-2" d="M24.74,18.56a3,3,0,0,1-.27,1.68c-.39.53-.93.53-1,1.33,0,.22,0,1.11,0,1.86v8.81h6.56V23.16c0-2.26-.09-2-.9-2.7-.36-.35-.45-.62-.42-1.9h6c.06,1.5-.12,1.68-.6,2a2.79,2.79,0,0,0-.54.62,5.36,5.36,0,0,0-.15,1.95V44.9c0,.35,0,.71,0,1.06a3.85,3.85,0,0,0,0,.8c.12.58.45.71.81.93s.39.71.39,1.9H28.63c0-1.42.06-1.68.51-1.95a1.39,1.39,0,0,0,.63-.58,5,5,0,0,0,.18-2.17V34.72H23.39V45c0,1.82,0,2,.63,2.52s.72.84.66,2.08h-6c-.06-1.59.18-1.73.69-2s.66-.62.66-1.42V23c0-1.86,0-1.9-.72-2.39s-.6-.66-.6-2.08Z"/><path class="cls-2" d="M44.09,18.69A5.06,5.06,0,0,1,44,20.11c-.21.53-.84.66-1.08,1.11a5.86,5.86,0,0,0-.15,1.95V45.25c0,.22-.15,1.59.36,2.17.15.13.33.22.51.35.39.27.42.66.45,1.81h-6c-.06-1.55.09-1.68.57-2a1.89,1.89,0,0,0,.6-.49,5.35,5.35,0,0,0,.15-1.95v-22c0-1.81,0-1.95-.69-2.43-.48-.31-.69-.44-.66-2Z"/><path class="cls-2" d="M61.35,18.87v10c-.81.13-1.23.13-1.68-.89A12.38,12.38,0,0,1,59,24.71a14.69,14.69,0,0,0-.45-2c-.3-.89-1-2.92-3-2.92a2.62,2.62,0,0,0-1.35.4A6.68,6.68,0,0,0,52,23.78a43,43,0,0,0-.78,10c0,3.59.18,7.57,1.5,10.67.84,1.9,2.09,3.32,3.68,3.32s3.08-1.46,3.71-3.72a14.81,14.81,0,0,0,.48-2.83L62,42.29a14.47,14.47,0,0,1-.42,2.88c-.93,3.36-3.32,5.18-5.78,5.18-1.32,0-4-.53-6.08-4.47-1.17-2.17-2.4-5.62-2.4-12,0-7.7,2-11.86,3.74-13.81a5.69,5.69,0,0,1,4.13-2.17,5,5,0,0,1,2.51.71c.81.49,1.14,1,1.59,1,.27,0,.51-.13,1-.71Z"/><path class="cls-2" d="M71,18.56c.06,1.15,0,1.42-.3,1.68s-.39.27-.57.44a1.88,1.88,0,0,0-.42,1c-.06.27-.06,1.11-.09,2V31L74,23.7a5.66,5.66,0,0,0,1-2.26,1.09,1.09,0,0,0-.54-.93,1.21,1.21,0,0,1-.57-.44,4,4,0,0,1-.21-1.55h5.84a4.1,4.1,0,0,1-.09,1.42c-.18.58-.54.4-1.23,1a8.1,8.1,0,0,0-1.47,1.82l-3.5,5.53c1.23,4,2.48,8,3.71,11.86.51,1.55,1,3.14,1.5,4.69.63,1.95.81,2.17,1.56,2.7s.63.62.66,2.13H73.85c0-1.37.09-1.77.54-2.08a1.34,1.34,0,0,0,.81-1.37,7.24,7.24,0,0,0-.42-1.81L70.92,32l-1.35,2.26V44.85c0,.93-.06,2,.42,2.43.21.22.51.31.69.58a3.6,3.6,0,0,1,.27,1.73H65c0-1.46,0-1.68.54-1.95a1.72,1.72,0,0,0,.6-.58,4.17,4.17,0,0,0,.21-2V23.38c0-.44,0-.84,0-1.24a2.08,2.08,0,0,0-.27-1.24c-.21-.27-.36-.27-.6-.53C65,20,65,19.4,65,18.56Z"/><path class="cls-2" d="M88.57,20.6V32.28h1a2.1,2.1,0,0,0,1.76-.49,2.23,2.23,0,0,0,.51-1.28c.18-.93.33-1.15,1.47-1.2v8.14a1.33,1.33,0,0,1-1.11-.18,1.71,1.71,0,0,1-.33-.8,2.94,2.94,0,0,0-.51-1.37,2,2,0,0,0-1.71-.62H88.54v13H90.6c1.14,0,2.6-.13,3.47-1.28s1-3.05,1.2-4.56c.39-1.64.6-1.77,1.71-1.73v9.74H84a5,5,0,0,1,0-1.15c.09-.58.45-.71.84-1.06s.45-.58.48-1.77V22.46c-.12-1.73-.42-1.59-1-2.08s-.42-.93-.36-1.81h9.82a4.08,4.08,0,0,0,2.33-.66v9.25a1.61,1.61,0,0,1-.87-.09c-.81-.35-.93-1.86-1.08-2.92a7.22,7.22,0,0,0-.84-2.57,2.35,2.35,0,0,0-2.1-1Z"/><path class="cls-2" d="M105.95,18.65c1.29,3.9,2.57,7.79,3.83,11.69,1.2,3.67,2.37,7.35,3.53,11.07V23.83c0-2.08-.21-2.61-.84-3.28-.42-.44-.57-.62-.54-2h4.34c.06,1.37-.09,1.59-.45,2a1.9,1.9,0,0,0-.57.89,6.3,6.3,0,0,0-.27,2.66V49.77h-2.28l-9-27.53v22c-.06,2.08.15,2.61.81,3.28.42.44.57.62.54,2h-4.37c-.06-1.24,0-1.46.57-2.12a1.54,1.54,0,0,0,.48-.71,5.82,5.82,0,0,0,.27-2.43V23.21c0-1,.06-2.17-.69-2.61s-.66-.35-.63-2Z"/><path class="cls-2" d="M119.31,52.54a8.9,8.9,0,0,0,.6-1.74,3.87,3.87,0,0,0,.11-.63c0-.29-.21-.34-.41-.43a1.06,1.06,0,0,1-.37-.24,2.25,2.25,0,0,1-.24-2,1,1,0,0,1,.87-.72c.44,0,1.13.56,1.13,2.17a8.7,8.7,0,0,1-.1,1.23,9.89,9.89,0,0,1-.95,2.9Z"/><path class="cls-2" d="M136.46,18.56a3,3,0,0,1-.27,1.68c-.39.53-.93.53-1,1.33,0,.22,0,1.11,0,1.86v8.81h6.56V23.16c0-2.26-.09-2-.9-2.7-.36-.35-.45-.62-.42-1.9h6c.06,1.5-.12,1.68-.6,2a2.8,2.8,0,0,0-.54.62,5.36,5.36,0,0,0-.15,1.95V44.9c0,.35,0,.71,0,1.06a3.84,3.84,0,0,0,0,.8c.12.58.45.71.81.93s.39.71.39,1.9h-5.93c0-1.42.06-1.68.51-1.95a1.39,1.39,0,0,0,.63-.58,5,5,0,0,0,.18-2.17V34.72h-6.56V45c0,1.82,0,2,.63,2.52s.72.84.66,2.08h-6c-.06-1.59.18-1.73.69-2s.66-.62.66-1.42V23c0-1.86,0-1.9-.72-2.39s-.6-.66-.6-2.08Z"/><path class="cls-2" d="M164.05,44.85c.3,1.82.51,1.95,1.14,2.48s.63,1,.63,2.17h-6.29c-.06-1.37.09-1.68.57-1.95a1.06,1.06,0,0,0,.75-1.15,7.27,7.27,0,0,0-.27-1.68l-.87-4.52h-5.57c-.18,1.06-.33,2.13-.57,3.23a13.67,13.67,0,0,0-.36,2.44c0,1.81.84,1.46,1.17,2.08a3.55,3.55,0,0,1,.18,1.59h-4.88c0-1.28,0-1.55.75-2.12a2.08,2.08,0,0,0,.84-1.24c.15-.49.27-1.06.42-1.64l4.37-22.84c-.06-.4-.15-.8-.24-1.2a2.56,2.56,0,0,1-.18-.84.73.73,0,0,1,.21-.53,3.56,3.56,0,0,1,1.47-.71,8,8,0,0,1,.81-.31c.51,0,.69,1,.81,1.81Zm-9.46-6.95h4.67l-2.46-12.17Z"/><path class="cls-2" d="M174.7,18.65l3.86,23.11c.57-3.72,1.14-7.48,1.77-11.16.66-4,1.35-8,2-12l5.51,0a4,4,0,0,1,0,1.06c-.09,1-.69.84-1.08,1.59a4.13,4.13,0,0,0-.18,2.08V44.9a4.93,4.93,0,0,0,.18,2,1.84,1.84,0,0,0,.54.66c.54.4.51.58.54,2H182a2.87,2.87,0,0,1,.27-1.86c.45-.53.93-.53,1-1.37.06-.31.06-1.11.09-1.95,0-5.49,0-11,0-16.42l.09-6.91-4.76,28.46h-1.95L172,21.48V44.37a6.23,6.23,0,0,0,.33,2.52,1.93,1.93,0,0,0,.51.66c.45.44.6.57.51,2H169c-.06-1.28.06-1.55.39-1.95a2.7,2.7,0,0,0,.66-.89,5.74,5.74,0,0,0,.3-2.61v-21c0-.27.18-1.86-.57-2.43-.24-.18-.51-.27-.63-.53a4.34,4.34,0,0,1-.15-1.55Z"/><path class="cls-2" d="M205.71,18.56a3,3,0,0,1-.27,1.68c-.39.53-.93.53-1,1.33,0,.22,0,1.11,0,1.86v8.81h6.56V23.16c0-2.26-.09-2-.9-2.7-.36-.35-.45-.62-.42-1.9h6c.06,1.5-.12,1.68-.6,2a2.79,2.79,0,0,0-.54.62,5.36,5.36,0,0,0-.15,1.95V44.9c0,.35,0,.71,0,1.06a3.84,3.84,0,0,0,0,.8c.12.58.45.71.81.93s.39.71.39,1.9H209.6c0-1.42.06-1.68.51-1.95a1.39,1.39,0,0,0,.63-.58,5,5,0,0,0,.18-2.17V34.72h-6.56V45c0,1.82,0,2,.63,2.52s.72.84.66,2.08h-6c-.06-1.59.18-1.73.69-2s.66-.62.66-1.42V23c0-1.86,0-1.9-.72-2.39s-.6-.66-.6-2.08Z"/><path class="cls-2" d="M221.21,22.5c.21-.35.39-.75.63-1.11.75-1.2,2.39-3.45,5.36-3.45,3.11,0,4.7,2.26,5.54,3.67,1.23,2.12,2.6,5.8,2.6,12.31,0,1.77,0,9.74-3.71,14.08a6.09,6.09,0,0,1-4.52,2.26,5.8,5.8,0,0,1-4-1.68c-2-1.9-4.25-6.06-4.25-14.21C218.9,32.64,218.94,27,221.21,22.5Zm1.95,19.74a12.89,12.89,0,0,0,1,4.12,3.36,3.36,0,0,0,3,2.12c1,0,2.6-.58,3.44-3.67.6-2.17.93-5.89.93-11.38,0-8.72-.81-13.72-4.43-13.72a2.53,2.53,0,0,0-1.5.44c-.75.53-1.71,1.82-2.19,4.56a82.21,82.21,0,0,0-.6,11.2A52.12,52.12,0,0,0,223.16,42.24Z"/><path class="cls-2" d="M253.17,18.87v10c-.81.13-1.23.13-1.68-.89a12.38,12.38,0,0,1-.69-3.32,14.48,14.48,0,0,0-.45-2c-.3-.89-1-2.92-3-2.92a2.62,2.62,0,0,0-1.35.4,6.68,6.68,0,0,0-2.18,3.63,43,43,0,0,0-.78,10c0,3.59.18,7.57,1.5,10.67.84,1.9,2.09,3.32,3.68,3.32S251.34,46.27,252,44a14.81,14.81,0,0,0,.48-2.83l1.38,1.11a14.46,14.46,0,0,1-.42,2.88c-.93,3.36-3.32,5.18-5.78,5.18-1.32,0-4-.53-6.08-4.47-1.17-2.17-2.39-5.62-2.39-12,0-7.7,2-11.86,3.74-13.81A5.69,5.69,0,0,1,247,17.9a5,5,0,0,1,2.51.71c.81.49,1.14,1,1.59,1,.27,0,.51-.13,1-.71Z"/><path class="cls-2" d="M262.79,18.56c.06,1.15,0,1.42-.3,1.68s-.39.27-.57.44a1.88,1.88,0,0,0-.42,1c-.06.27-.06,1.11-.09,2V31l4.43-7.26a5.66,5.66,0,0,0,1-2.26,1.09,1.09,0,0,0-.54-.93,1.21,1.21,0,0,1-.57-.44,4,4,0,0,1-.21-1.55h5.84a4.09,4.09,0,0,1-.09,1.42c-.18.58-.54.4-1.23,1a8.1,8.1,0,0,0-1.47,1.82l-3.5,5.53c1.23,4,2.48,8,3.71,11.86.51,1.55,1,3.14,1.5,4.69.63,1.95.81,2.17,1.56,2.7s.63.62.66,2.13h-6.83c0-1.37.09-1.77.54-2.08a1.34,1.34,0,0,0,.81-1.37,7.24,7.24,0,0,0-.42-1.81L262.73,32l-1.35,2.26V44.85c0,.93-.06,2,.42,2.43.21.22.51.31.69.58a3.6,3.6,0,0,1,.27,1.73h-5.93c0-1.46,0-1.68.54-1.95a1.72,1.72,0,0,0,.6-.58,4.17,4.17,0,0,0,.21-2V23.38c0-.44,0-.84,0-1.24a2.08,2.08,0,0,0-.27-1.24c-.21-.27-.36-.27-.6-.53-.45-.4-.45-1-.45-1.81Z"/><path class="cls-3" d="M98.84,82.4V79.72h2.31c1,0,1.7-.36,1.7-1.59V62.66c0-1.08-.47-1.55-1.92-1.55h-2.1V58.43h13.23v2.67h-2c-1.59,0-2.13.36-2.13,1.63v17h5.89c3.72,0,4.63-2.06,5-7.66h2.68V82.4Z"/><path class="cls-3" d="M124.86,82.4V79.72h2c1.23,0,1.92-.36,1.92-2.53V63.13c0-1.55-.43-2-2.31-2h-1.63V58.43h23.86V68H146c-.54-4.92-1-6.87-5.82-6.87h-6.36v7.52h1.92c2.17,0,3.14-1.08,3.14-4v-.47h2.67V76.21h-2.67v-.87c0-2.93-1-4-3.14-4h-1.92v8.42h7.23c3.33,0,4.63-2.06,5-7.45h2.67V82.4Z"/><path class="cls-3" d="M152.82,82.4V79.72h2c1.23,0,1.92-.36,1.92-2.53V63.13c0-1.55-.43-2-2.31-2h-1.63V58.43h23.86V68H174c-.54-4.92-1-6.87-5.82-6.87h-6.36v7.52h1.92c2.17,0,3.14-1.08,3.14-4v-.47h2.67V76.21h-2.67v-.87c0-2.93-1-4-3.14-4h-1.92v8.42h7.23c3.33,0,4.63-2.06,5-7.45h2.67V82.4Z"/><path class="cls-3" d="M195.69,79.72h2.42c.58,0,1.08-.11,1.08-.65a1.63,1.63,0,0,0-.33-.83l-5.13-7.45L189.95,74v4.37c0,.94.36,1.3,1.48,1.3h2.13V82.4H180.84V79.72h1.92c1.66,0,2.13-.76,2.13-2V62.41c0-.94-.36-1.3-1.48-1.3h-2.57V58.43h12.72v2.67h-2.13c-1.12,0-1.48.36-1.48,1.3v7.41l7.77-7.08c.54-.47.83-.83.83-1.16s-.22-.47-.65-.47h-2.28V58.43h12.69v2.67H207a6.16,6.16,0,0,0-4.7,2l-5.1,4.45,7.7,10.59a3.3,3.3,0,0,0,2.75,1.63h1.88V82.4H195.69Z"/><path class="cls-3" d="M90,56.32l-36.79,9.2v-2.4l.8.4h.8l14.4-3.6,2.4-1.2,1.6-1.6.4-.8-.4-.8h-.8l-.8.4-.4.8.4.8h-.8l-.8-.8v-1.2l1.6-1.6H74l1.2,1.2v2.2l-2.8,1.8,14.4-3.6h4.8v1.2Zm.8,19.2H90l-14.4,3.6-2.4,1.2-1.6,1.6-.4.8.4.8h.8l.8-.4.4-.8-.4-.8H74l.8.8v1.2l-1.6,1.6h-2.4l-1.2-1.2v-2.2l2.8-1.8L58,83.52h-4.8v-1.2l1.6.4,36.79-9.2v2.4ZM61.87,78.64l.2-1.52L61.82,76l-.2-.16-2.88.72-.16.24L58.31,78l.16,1.44-4,1,.76-1.72,2.44-10.88-.24-1.16,5.92-1.48L63,66.56l2.44,9.68.72,1.32Zm-1.6-9.32-.08-.6-.08.64-.88,4.2.16.16,1.6-.4.16-.24Zm16.52-5.88V74.92l-2.36.6L70.58,69.6l-.36-.84.12.92V75l.4,1.4-3.84,1,.44-1.6v-10l-.52-1.32,3.76-.92,3,4.68L74,69l-.08-.92V64.2l-.44-1.4,3.76-1Zm10.16,8.92-7.6,1.92.44-1.6v-10l-.44-1.36,7.6-1.92,2.44,2v7.8Zm-1-8.48L85.46,63l-.88-.24-1.12.28-.16.24v6.6l.24.2,1-.28.88-.68.44-1Z"/><path class="cls-4" d="M65.37.15A5.29,5.29,0,0,1,71,5.48,5.59,5.59,0,1,1,65.37.15Zm0,9.29a3.9,3.9,0,0,0,4.05-4,4,4,0,0,0-8.09,0A3.89,3.89,0,0,0,65.37,9.44Z"/><path class="cls-4" d="M83.18,6.59c0,2.54-1.52,4.22-4.61,4.22-2.19,0-4.32-1.23-4.32-4.07V.29h1.49V6.43c0,1.17.15,1.66.63,2.13a3,3,0,0,0,2.24.88A3.4,3.4,0,0,0,81,8.6a3,3,0,0,0,.65-2.27v-6h1.49Z"/><path class="cls-4" d="M89.55.29C91.66.29,93,1.4,93,3.2a2.6,2.6,0,0,1-1.74,2.54,8.49,8.49,0,0,1,2.31,2.88c.44.72.7,1.07,1.42,2.06H93.18L91.81,8.54c-1.37-2.13-2-2.38-2.76-2.38h-.62v4.51H86.94V.29ZM88.43,4.83h1c1.6,0,2.06-.82,2-1.69s-.59-1.57-2-1.57h-1Z"/><path class="cls-4" d="M108.61,2.57a3.49,3.49,0,0,0-2.44-1.08c-1,0-1.65.5-1.65,1.23,0,2,4.49,2,4.49,5.27a2.78,2.78,0,0,1-2.91,2.82,4.59,4.59,0,0,1-2.91-1V8A3.51,3.51,0,0,0,106,9.47c1.16,0,1.69-.73,1.69-1.31,0-2.15-4.49-2.39-4.49-5.24,0-1.69,1.25-2.77,3.15-2.77a4.16,4.16,0,0,1,2.31.73Z"/><path class="cls-4" d="M115.49.29c2.27,0,3.3,1.34,3.3,3s-1.1,2.91-3.5,2.91h-1.55v4.49h-1.49V.29Zm-1.75,4.55h1.69a1.6,1.6,0,0,0,1.83-1.63c0-.76-.41-1.58-1.77-1.58h-1.75Z"/><path class="cls-4" d="M127.66,1.63h-4.4V4.77h4.25V6.11h-4.25V9.33h4.54v1.34h-6V.29h5.89Z"/><path class="cls-4" d="M139.9,2.6a6.84,6.84,0,0,0-3.58-1.08,4,4,0,0,0-4.14,4,3.89,3.89,0,0,0,4.2,3.94A6.8,6.8,0,0,0,140,8.27V9.9a7.61,7.61,0,0,1-3.76.91,5.31,5.31,0,0,1-5.6-5.18A5.41,5.41,0,0,1,136.34.15,9,9,0,0,1,139.9,1Z"/><path class="cls-4" d="M151.3,1.63h-3.59v9h-1.49v-9h-3.59V.29h8.68Z"/><path class="cls-4" d="M161.86,10.68h-1.52L159,7.61h-4.42l-1.31,3.06h-1.52L156.17.23h1.05Zm-6.74-4.4h3.23l-1.68-3.76Z"/><path class="cls-4" d="M172.91,2.6a6.84,6.84,0,0,0-3.58-1.08,4,4,0,0,0-4.14,4,3.89,3.89,0,0,0,4.2,3.94A6.8,6.8,0,0,0,173,8.27V9.9a7.61,7.61,0,0,1-3.76.91,5.31,5.31,0,0,1-5.6-5.18A5.41,5.41,0,0,1,169.35.15a9,9,0,0,1,3.56.85Z"/><path class="cls-4" d="M185.25,6.59c0,2.54-1.52,4.22-4.61,4.22-2.19,0-4.32-1.23-4.32-4.07V.29h1.49V6.43c0,1.17.15,1.66.63,2.13a3,3,0,0,0,2.24.88,3.4,3.4,0,0,0,2.44-.84,3,3,0,0,0,.65-2.27v-6h1.49Z"/><path class="cls-4" d="M190.45,9.33h4.69v1.34H189V.29h1.49Z"/><path class="cls-4" d="M207.12,10.68H205.6l-1.39-3.06H199.8l-1.31,3.06H197L201.42.23h1.05Zm-6.74-4.4h3.23l-1.68-3.76Z"/><path class="cls-4" d="M212.58.29C214.68.29,216,1.4,216,3.2a2.6,2.6,0,0,1-1.74,2.54,8.48,8.48,0,0,1,2.31,2.88c.44.72.7,1.07,1.42,2.06h-1.78l-1.37-2.13c-1.37-2.13-2-2.38-2.76-2.38h-.62v4.51H210V.29Zm-1.13,4.54h1c1.6,0,2.05-.82,2-1.69s-.59-1.57-2-1.57h-1Z"/><path class="cls-5" d="M273.87,87.74A6,6,0,0,0,271,87a13.74,13.74,0,0,0-6.63,2.27,8,8,0,0,0-1.95-1A9.18,9.18,0,0,1,260,87.17L259.9,87l-.2.18a37.86,37.86,0,0,1-3.09,2.33,9.81,9.81,0,0,1-2.93,1.29H22.31a9.81,9.81,0,0,1-2.93-1.29,37.56,37.56,0,0,1-3.09-2.33l-.2-.18-.14.22a9.18,9.18,0,0,1-2.38,1.19,7.94,7.94,0,0,0-1.95,1A13.74,13.74,0,0,0,5,87a6,6,0,0,0-2.87.7A3.78,3.78,0,0,0,.51,93a3.46,3.46,0,0,0,1.94,1.58A4.53,4.53,0,0,0,5,94.7a2.66,2.66,0,0,0,2-2.29,2.38,2.38,0,0,0-.69-1.77,2.66,2.66,0,0,0-1.82-.79h-.1a2.54,2.54,0,0,0-2.61,2.38,2.35,2.35,0,0,0,.4,1.41,2,2,0,0,1-1-.89A2.76,2.76,0,0,1,.89,90.3a3,3,0,0,1,1.81-1.63,2.41,2.41,0,0,1,.77-.11c3.35,0,10.06,4.93,11.56,6.26l.2.18.14-.22a9.16,9.16,0,0,1,2.38-1.19,6.45,6.45,0,0,0,2-1,2.46,2.46,0,0,0,.55.13l.18,0,.05-.16s.1-.25,1.54-.42H253.89c1.47.18,1.56.42,1.57.43l.05.16.18,0a2.46,2.46,0,0,0,.55-.13,6.47,6.47,0,0,0,2,1,9.17,9.17,0,0,1,2.38,1.19l.14.22.2-.18c1.5-1.33,8.21-6.26,11.56-6.26a2.41,2.41,0,0,1,.77.11,3,3,0,0,1,1.81,1.63,2.77,2.77,0,0,1-.23,2.44,2,2,0,0,1-1,.89,2.35,2.35,0,0,0,.4-1.41,2.54,2.54,0,0,0-2.61-2.38h-.1a2.53,2.53,0,0,0-2.51,2.57,2.66,2.66,0,0,0,2,2.29,4.53,4.53,0,0,0,2.53-.09A3.46,3.46,0,0,0,275.49,93,3.78,3.78,0,0,0,273.87,87.74Zm-15,3.22a6.74,6.74,0,0,1,3.56-1.57,2.68,2.68,0,0,1,1.26.33c-.51.31-1,.65-1.56,1l-.32.22a6.74,6.74,0,0,1-3.56,1.57,2.68,2.68,0,0,1-1.23-.32c.39-.22.78-.49,1.16-.76ZM14.2,91l-.32-.22c-.54-.37-1.06-.7-1.56-1a2.68,2.68,0,0,1,1.26-.33A6.74,6.74,0,0,1,17.13,91l.7.49c.38.27.77.54,1.16.76a2.68,2.68,0,0,1-1.23.32A6.74,6.74,0,0,1,14.2,91Z"/><path class="cls-5" d="M273.87,1.21A6,6,0,0,0,271,.51a13.74,13.74,0,0,0-6.63,2.27,8,8,0,0,0-1.95-1A9.19,9.19,0,0,1,260,.64L259.9.42l-.2.17a37.86,37.86,0,0,1-3.09,2.33,9.81,9.81,0,0,1-2.93,1.29H225.12V5.58h28.76c1.47.18,1.56.42,1.57.43l.05.16.18,0a2.46,2.46,0,0,0,.55-.13,6.46,6.46,0,0,0,2,1,9.17,9.17,0,0,1,2.38,1.19l.14.22.2-.18C262.46,6.95,269.17,2,272.52,2a2.4,2.4,0,0,1,.77.11,3,3,0,0,1,1.81,1.63,2.77,2.77,0,0,1-.23,2.44,2,2,0,0,1-1,.89,2.35,2.35,0,0,0,.4-1.41,2.54,2.54,0,0,0-2.61-2.38h-.1a2.53,2.53,0,0,0-2.51,2.57,2.66,2.66,0,0,0,2,2.29,4.53,4.53,0,0,0,2.53-.09,3.46,3.46,0,0,0,1.94-1.58A3.78,3.78,0,0,0,273.87,1.21Zm-11.76,3-.32.22A6.74,6.74,0,0,1,258.24,6,2.68,2.68,0,0,1,257,5.68c.39-.22.78-.49,1.16-.76l.7-.49a6.74,6.74,0,0,1,3.56-1.57,2.68,2.68,0,0,1,1.26.33C263.17,3.51,262.65,3.84,262.12,4.21Z"/><path class="cls-5" d="M50.87,4.21H22.31a9.81,9.81,0,0,1-2.93-1.29A37.53,37.53,0,0,1,16.29.59l-.2-.17L16,.64a9.19,9.19,0,0,1-2.38,1.19,8,8,0,0,0-1.95,1A13.74,13.74,0,0,0,5,.51a6,6,0,0,0-2.87.7A3.78,3.78,0,0,0,.51,6.5,3.46,3.46,0,0,0,2.44,8.08,4.53,4.53,0,0,0,5,8.16a2.66,2.66,0,0,0,2-2.29,2.38,2.38,0,0,0-.69-1.77A2.66,2.66,0,0,0,4.42,3.3h-.1A2.54,2.54,0,0,0,1.71,5.68a2.35,2.35,0,0,0,.4,1.41,2,2,0,0,1-1-.89A2.76,2.76,0,0,1,.89,3.76,3,3,0,0,1,2.71,2.12,2.4,2.4,0,0,1,3.47,2C6.82,2,13.53,6.95,15,8.27l.2.18.14-.22A9.16,9.16,0,0,1,17.76,7a6.45,6.45,0,0,0,2-1,2.46,2.46,0,0,0,.55.13l.18,0L20.54,6s.1-.25,1.54-.42H50.87ZM17.76,6A6.74,6.74,0,0,1,14.2,4.44l-.32-.22c-.54-.37-1.06-.7-1.56-1a2.68,2.68,0,0,1,1.26-.34,6.74,6.74,0,0,1,3.56,1.57l.7.49c.38.27.77.54,1.16.76A2.68,2.68,0,0,1,17.76,6Z"/></g></g></svg>