<svg xmlns="http://www.w3.org/2000/svg" viewBox="0 0 1563.4 370.8"><style>.st0{fill:#fff}</style><path class="st0" d="M457.2 109.4v54c-43.1 0-78.2 35.1-78.2 78.2v125h-54v-77.3c-37.1 43.9-84.4 81.5-153.1 81.5C77.1 370.8 0 293.7 0 198.9s77.1-172 171.9-172c41.9 0 82 15.1 113.4 42.7l-36.5 39.8c-21.4-18.4-48.6-28.5-76.9-28.5-65 0-117.9 52.9-117.9 117.9s52.9 117.9 117.9 117.9c31.5 0 58.7-11.1 85.6-34.9 25.4-22.5 46.8-53.2 67.5-82.8 8.9-12.8 17.4-24.8 26.2-36.4 24.2-32.2 62.7-53.2 106-53.2zm773.5 184.5c0 22.5-8.1 41-24.2 55.3-15.9 14.2-38.9 21.4-69.1 21.6h-1.3c-36.9-.3-69.1-13.6-98.3-40.5-24.2-22.3-43.1-50.8-61.3-78.4-32.4-49.1-60.4-91.4-109.5-91.4-1.4 0-2.7 0-4 .1h-.1c-5.4.3-10.7 1.1-15.7 2.4h-.1c-.9.2-1.8.5-2.7.8-10.3 3.1-19.7 8.4-28.4 15.3-17.4 14.6-28.6 36.6-28.6 61.1 0 43.9 35.7 79.7 79.7 79.7 27.2 0 52.2-13.6 67-36.5L977 311c-24.2 37.5-65.3 59.8-109.8 59.8-59.6 0-110-40.1-125.7-94.8-13.5 19.5-27.9 38.5-45.1 54.3-29.6 27.2-62.1 40.5-99.6 40.5-72.1 0-130.7-58.6-130.7-130.7s58.6-130.7 130.7-130.7c61.8 0 113.7 43.1 127.2 100.8 17-25.3 35.5-51 58.9-70.1 8-6.7 16.8-12.5 26.2-17.2 16.8-8.5 35.9-13.6 58-13.6 76.5 0 116.6 60.7 152 114.3 34 51.5 63.4 96.1 118.3 96.1 10.5-.2 18.7-2.4 24.7-6.7 6.2-4.5 9.4-10.6 9.4-18.2 0-5.9-3.6-10.8-10.7-14.8s-20.2-9.3-39.2-15.8c-24.9-8.7-44.1-19-57.4-31.2-13.3-12.1-20-29.4-20-52 0-20.8 8.4-37.9 25.2-51.4 16.8-13.5 38.2-20.3 64.2-20.3 33.6 0 63.4 10.6 89.4 31.7l-29.1 45.7c-19.1-18-40.2-27-63.4-27-6.9 0-13.2 1.8-19 5.5-5.7 3.6-8.6 9.1-8.6 16.4 0 10.4 13.3 20.6 40 30.7 32.9 12.8 53.5 22.2 61.8 28.1 17.4 12.1 26 29.9 26 53.5zm-710.1-76.8h152.6c-9.9-32.8-40.3-56.7-76.3-56.7-36 .1-66.4 24-76.3 56.7zm167.5 46H520.6c9.9 32.8 40.3 56.7 76.3 56.7 40 0 66.5-23.8 91.2-56.7zm851.2 86.1c16.1-14.4 24.2-32.8 24.2-55.3 0-23.6-8.7-41.4-26-53.5-8.3-5.9-28.9-15.2-61.8-28.1-26.7-10-40-20.3-40-30.7 0-7.3 2.9-12.7 8.6-16.4 5.7-3.6 12-5.5 19-5.5 23.2 0 44.3 9 63.4 27l29.1-45.7c-26-21.1-55.8-31.7-89.4-31.7-26 0-47.4 6.8-64.2 20.3-16.8 13.5-25.2 30.7-25.2 51.4 0 22.5 6.7 39.8 20 52 13.3 12.1 32.5 22.5 57.4 31.2 19 6.6 32.1 11.9 39.2 15.8 7.1 4 10.7 8.9 10.7 14.8 0 7.6-3.1 13.7-9.4 18.2-6.2 4.5-14.9 6.8-26 6.8-28.8 0-53.2-9.9-73.3-29.6l-29.1 43.6c27.7 24.6 61.8 36.9 102.4 36.9 30.8.1 54.3-7.1 70.4-21.5zm-212.1-236.1h-54v253.6h54V113.1z"/><linearGradient id="SVGID_1_" gradientUnits="userSpaceOnUse" x1="1401.983" y1="157.716" x2="1555.654" y2="157.716"><stop offset="0"/><stop offset=".571" stop-color="#fff" stop-opacity="0"/></linearGradient><path d="M1460.6 206c-16.7-8-25-16.1-25-24.3 0-7.3 2.9-12.7 8.6-16.4 5.7-3.6 12-5.5 19-5.5 23.2 0 44.3 9 63.4 27l29.1-45.7c-26-21.1-55.8-31.7-89.4-31.7-18.7 0-35 3.5-48.9 10.5-31.5 18.6-13.6 60.4 43.2 86.1z" opacity=".4" fill="url(#SVGID_1_)"/><linearGradient id="SVGID_2_" gradientUnits="userSpaceOnUse" x1="1537.813" y1="322.283" x2="1366.527" y2="322.283"><stop offset="0"/><stop offset=".571" stop-color="#fff" stop-opacity="0"/></linearGradient><path d="M1479.9 273.8c5.8 2.4 10.4 4.5 13.7 6.4 7.1 4 10.7 8.9 10.7 14.8 0 7.6-3.1 13.7-9.4 18.2-6.2 4.5-14.9 6.8-26 6.8-28.8 0-53.2-9.9-73.3-29.6l-29.1 43.6c27.7 24.6 61.8 36.9 102.4 36.9 21.4 0 39.2-3.5 53.5-10.4 30.6-19.1 15.3-65.2-42.5-86.7z" opacity=".4" fill="url(#SVGID_2_)"/><linearGradient id="SVGID_3_" gradientUnits="userSpaceOnUse" x1="1069.257" y1="157.716" x2="1222.928" y2="157.716"><stop offset="0"/><stop offset=".571" stop-color="#fff" stop-opacity="0"/></linearGradient><path d="M1127.9 206c-16.7-8-25-16.1-25-24.3 0-7.3 2.9-12.7 8.6-16.4 5.7-3.6 12-5.5 19-5.5 23.2 0 44.3 9 63.4 27l29.1-45.7c-26-21.1-55.8-31.7-89.4-31.7-18.7 0-35 3.5-48.9 10.5-31.5 18.6-13.6 60.4 43.2 86.1z" opacity=".4" fill="url(#SVGID_3_)"/><linearGradient id="SVGID_4_" gradientUnits="userSpaceOnUse" x1="665.742" y1="285.453" x2="516.279" y2="135.99"><stop offset="0"/><stop offset=".005" stop-color="#030303" stop-opacity=".992"/><stop offset=".174" stop-color="#5b5b5b" stop-opacity=".705"/><stop offset=".323" stop-color="#a1a1a1" stop-opacity=".453"/><stop offset=".447" stop-color="#d4d4d4" stop-opacity=".244"/><stop offset=".539" stop-color="#f3f3f3" stop-opacity=".087"/><stop offset=".591" stop-color="#fff" stop-opacity="0"/></linearGradient><path d="M520.6 263.1h167.5c9.1-12.1 17.9-25.5 27.1-39.4 2.9-4.4 5.9-8.9 8.9-13.5-13.5-57.7-65.4-100.8-127.2-100.8-72.1 0-130.7 58.6-130.7 130.7 0 20.8 32.8 23 54.4 23zm76.3-102.6c35.9 0 66.4 23.9 76.3 56.7H520.6c9.9-32.8 40.3-56.7 76.3-56.7z" opacity=".4" fill="url(#SVGID_4_)"/><linearGradient id="SVGID_5_" gradientUnits="userSpaceOnUse" x1="1205.087" y1="322.309" x2="1036.781" y2="322.309"><stop offset="0"/><stop offset=".571" stop-color="#fff" stop-opacity="0"/></linearGradient><path d="M1147.3 273.8c5.8 2.4 10.3 4.5 13.6 6.3 7.1 4 10.7 8.9 10.7 14.8 0 7.6-3.1 13.7-9.4 18.2-.7.5-1.4 1-2.2 1.4-.1 0-.1.1-.2.1l-1.8.9c-5.5 2.7-12.3 4.1-20.5 4.2-30.3 0-52.8-13.6-72.6-34.4l-28 43.8c.4.3.7.7 1.1 1.1 29.2 26.9 61.4 40.2 98.3 40.5h1.3c18.7-.1 34.7-2.9 47.9-8.4.2-.1.5-.2.7-.3 1-.4 2-.9 3-1.4l.6-.3c30.4-18.8 15.2-64.9-42.5-86.5z" opacity=".4" fill="url(#SVGID_5_)"/><linearGradient id="SVGID_6_" gradientUnits="userSpaceOnUse" x1="781.209" y1="285.149" x2="976.965" y2="285.149"><stop offset="0"/><stop offset=".605" stop-color="#fff" stop-opacity="0"/></linearGradient><path d="M781.2 259.2c0 58.8 45.9 106.8 103.8 110.4 37.5-5.1 71-26.2 92-58.6l-42.8-27.7c-14.8 22.9-39.8 36.5-67 36.5-43.9 0-79.7-35.7-79.7-79.7 0-14.3 3.8-27.8 10.5-39.4-10.7 17-16.8 37-16.8 58.5z" opacity=".4" fill="url(#SVGID_6_)"/><linearGradient id="SVGID_7_" gradientUnits="userSpaceOnUse" x1="44.544" y1="255.768" x2="325.064" y2="255.768"><stop offset="0"/><stop offset=".605" stop-color="#fff" stop-opacity="0"/></linearGradient><path d="M325 199.1c-20.7 29.6-42.1 60.2-67.5 82.8-26.9 23.8-54.1 34.9-85.6 34.9-65 0-117.9-52.9-117.9-117.9 0-21.1 5.6-40.9 15.3-58.1v-.1c-15.7 25.2-24.8 54.9-24.8 86.7 0 54.5 26.6 102.7 67.4 132.5 18.7 7 38.9 10.8 60 10.8 68.7 0 116-37.6 153.1-81.5v-90.1c.1 0 0 0 0 0z" opacity=".4" fill="url(#SVGID_7_)"/><linearGradient id="SVGID_8_" gradientUnits="userSpaceOnUse" x1="351.254" y1="266.745" x2="171.93" y2="266.745"><stop offset="0"/><stop offset="1" stop-color="#fff" stop-opacity="0"/></linearGradient><path d="M351.3 162.7c-8.9 11.6-17.3 23.6-26.2 36.4-20.7 29.6-42.1 60.2-67.5 82.8-26.9 23.8-54.1 34.9-85.6 34.9v54c68.7 0 116-37.6 153.1-81.5v-47.7c0-29.5 9.7-56.8 26.2-78.9z" opacity=".4" fill="url(#SVGID_8_)"/><circle class="st0" cx="1291.3" cy="32.5" r="32.5"/><circle cx="1309.1" cy="46.7" r="32.5" opacity=".7" fill="#c6c6c6"/></svg>