<svg xmlns="http://www.w3.org/2000/svg" viewBox="0 0 1417.32 1417.32"><defs><style>.cls-1,.cls-2,.cls-4{fill:none;stroke-linecap:round;stroke-width:12px;}.cls-1{stroke:#28a7e0;}.cls-1,.cls-2{stroke-miterlimit:10;}.cls-2{stroke:#ed2027;}.cls-3{fill:#ed2027;}.cls-4{stroke:#ffca06;stroke-linejoin:round;}</style></defs><title>webrx_seasons</title><g id="Layer_2" data-name="Layer 2"><line class="cls-1" x1="385.71" y1="949.25" x2="385.71" y2="999.67"/><line class="cls-1" x1="319.71" y1="951.85" x2="319.71" y2="999.67"/><line class="cls-1" x1="253.71" y1="949.25" x2="253.71" y2="999.67"/><line class="cls-1" x1="715.72" y1="468.72" x2="715.72" y2="735.49"/><line class="cls-1" x1="649.72" y1="579.19" x2="649.72" y2="718.01"/><line class="cls-1" x1="583.72" y1="628.44" x2="583.72" y2="723.43"/><line class="cls-1" x1="517.72" y1="760.62" x2="517.72" y2="735.49"/><line class="cls-1" x1="1177.73" y1="580.88" x2="1177.73" y2="1002.26"/><line class="cls-1" x1="1111.73" y1="581.84" x2="1111.73" y2="1002.26"/><line class="cls-1" x1="1045.73" y1="627.1" x2="1045.73" y2="1002.26"/><line class="cls-1" x1="979.73" y1="630.53" x2="979.73" y2="1002.26"/><line class="cls-1" x1="913.73" y1="577.78" x2="913.73" y2="1002.26"/><line class="cls-1" x1="847.72" y1="522.28" x2="847.72" y2="1002.26"/><line class="cls-1" x1="781.72" y1="468.72" x2="781.72" y2="1002.26"/><line class="cls-1" x1="451.71" y1="772.17" x2="451.71" y2="1002.26"/><line class="cls-1" x1="385.71" y1="655.66" x2="385.71" y2="897.06"/><line class="cls-1" x1="319.71" y1="556.37" x2="319.71" y2="897.06"/><line class="cls-1" x1="253.71" y1="537.83" x2="253.71" y2="897.06"/><line class="cls-1" x1="649.72" y1="781.05" x2="649.72" y2="999.67"/><line class="cls-1" x1="715.72" y1="814.34" x2="715.72" y2="999.67"/><line class="cls-1" x1="583.72" y1="854.81" x2="583.72" y2="999.67"/><line class="cls-1" x1="517.72" y1="852.87" x2="517.72" y2="999.67"/><line id="_Path_" data-name="&lt;Path&gt;" class="cls-1" x1="749.22" y1="372.84" x2="749.22" y2="453.97"/><polygon id="_Path_2" data-name="&lt;Path&gt;" class="cls-1" points="769.17 378.64 769.17 407.56 814.19 393.1 769.17 378.64"/><line id="_Path_3" data-name="&lt;Path&gt;" class="cls-1" x1="272.65" y1="453.97" x2="272.65" y2="535.09"/><polygon id="_Path_4" data-name="&lt;Path&gt;" class="cls-1" points="292.6 459.77 292.6 488.68 337.62 474.22 292.6 459.77"/><path class="cls-2" d="M187.71,878.24C316.69,741.82,410.25,832,410.25,832,487,897,554.73,814.34,554.73,814.34c83.1-77.67,160.76,0,160.76,0C800.35,892,866.82,832,866.82,832c283.19-232.69,376.92-41.93,376.92-41.93v210.27c0,10.11-1056,0-1056,0V949.25"/><path class="cls-2" d="M1088,718,773.39,461.28s-52.58-37.48-86.27,57.27l-75,195.12"/><path class="cls-2" d="M639.74,780C585.38,877.4,553,868.69,553,868.69c-42,2.9-129.76-139.18-129.76-139.18-33.35-52.19-103.66-46.12-103.66-46.12-110,6.42-131.88,111.15-131.88,111.15V900.65"/><path class="cls-2" d="M915.84,794.52C988,683.38,1056.76,615.69,1056.76,615.69c63.86-68.14,152.3-24.65,152.3-24.65,85.54,45.67-11.6,67.59-11.6,67.59C1124.79,677,1116.73,720,1116.73,720c-79,158.06-146.17,149.43-146.17,149.43C914,872.31,827,704.85,827,704.85c-25.37-42-66-46.22-66-46.22-43.17-4.3-73.76,32.17-91.12,61.45"/><line class="cls-2" x1="1243.74" y1="799.09" x2="1243.74" y2="623.23"/><path class="cls-2" d="M223.91,725V550.45s59.44-44.22,114.53,22.47c0,0,58.09,86.33,74.72,143.57"/><path class="cls-2" d="M456.49,778.87s24.75,26.75,55.2-32c0,0,75.38-183.32,174.71-172.53,0,0,79-4.35,140.63,130.49"/><path class="cls-3" d="M804.78,439.29l21.09,16.85-8.58,10.74L799,452.26l5.8-13m-4.62-19.06-6.33,14.16-5.8,13-3.79,8.48,7.25,5.8,18.3,14.63,9.37,7.49,7.49-9.37,8.58-10.74,7.49-9.37-9.37-7.49-21.09-16.85-12.12-9.68Z"/><path class="cls-3" d="M849.84,475.5l18.3,14.63-8.58,10.74-18.3-14.63,8.58-10.74M848,458.63,840.47,468l-8.58,10.74-7.49,9.37,9.37,7.49,18.3,14.63,9.38,7.49,7.49-9.37,8.58-10.74,7.49-9.37-9.37-7.49-18.3-14.63L848,458.63Z"/><path class="cls-3" d="M892.51,509.59l18.3,14.63L902.23,535l-18.3-14.63,8.58-10.74m-1.88-16.87-7.49,9.37-8.58,10.74-7.49,9.37,9.37,7.49,18.3,14.63,9.37,7.49,7.49-9.37,8.58-10.74,7.49-9.37-9.37-7.49L900,500.22l-9.37-7.49Z"/><path class="cls-3" d="M935.18,543.69l18.3,14.63-8.58,10.74-18.3-14.63,8.58-10.74m-1.88-16.87-7.49,9.37-8.58,10.74-7.49,9.37,9.37,7.49,18.3,14.63,9.37,7.49,7.49-9.37,8.58-10.74,7.49-9.37L961,548.94l-18.3-14.63-9.37-7.49Z"/><path class="cls-3" d="M977.84,577.78l15.52,12.4-5.8,13-18.3-14.63,8.58-10.74M976,560.92l-7.49,9.37L959.89,581l-7.49,9.37,9.37,7.49,18.3,14.63,12.12,9.68,6.33-14.16,5.8-13,3.79-8.48-7.25-5.8-15.52-12.4L976,560.92Z"/><rect class="cls-2" x="147.26" y="900.65" width="270.05" height="48.59"/><path class="cls-3" d="M531.36,783.27l9.63,9.81L524.27,809.5l-12.18-7.32,19.27-18.91m.16-17L523,774.71l-19.27,18.91-11.07,10.86,13.29,8,12.18,7.32,8,4.78,6.63-6.5,16.72-16.41,8.56-8.41-8.41-8.56-9.63-9.81-8.41-8.56Z"/><path class="cls-3" d="M586,751l5.5,12.6L570,773l-5.5-12.6L586,751m6.2-15.8-11,4.8-21.47,9.37-11,4.8,4.8,11,5.5,12.6,4.8,11,11-4.8,21.47-9.37,11-4.8-4.8-11-5.5-12.6-4.8-11Z"/><path class="cls-3" d="M648.94,742v13.75H625.51V742h23.43m12-12H613.51v37.75h47.43V730Z"/><path class="cls-3" d="M690.67,753.09,711.41,764,705,776.15l-20.75-10.89,6.39-12.18m-5-16.2L680,747.51l-6.39,12.18-5.58,10.63,10.62,5.58,20.75,10.89,10.63,5.58,5.58-10.63L722,769.55l5.58-10.62L717,753.35l-20.75-10.89-10.63-5.58Z"/><path class="cls-3" d="M741.65,785l15.52,12.4-5.8,13-18.3-14.63L741.65,785m-1.88-16.87-7.49,9.37-8.58,10.74-7.49,9.37,9.37,7.49,18.3,14.63L756,829.45l6.33-14.16,5.8-13,3.79-8.48-7.25-5.8-15.52-12.4-9.37-7.49Z"/><line class="cls-4" x1="467.92" y1="364.54" x2="439.37" y2="335.99"/><line class="cls-4" x1="450.1" y1="407.56" x2="409.73" y2="407.56"/><line class="cls-4" x1="467.92" y1="450.58" x2="439.37" y2="479.12"/><line class="cls-4" x1="510.94" y1="468.4" x2="510.94" y2="508.76"/><line class="cls-4" x1="553.96" y1="450.58" x2="582.5" y2="479.12"/><line class="cls-4" x1="571.78" y1="407.56" x2="612.14" y2="407.56"/><line class="cls-4" x1="553.96" y1="364.54" x2="582.5" y2="335.99"/><line class="cls-4" x1="510.94" y1="346.72" x2="510.94" y2="306.35"/><circle class="cls-4" cx="510.94" cy="407.56" r="43.02"/></g></svg>